<?xml version="1.0" encoding="UTF-8"?>
<svg width="64px" height="62px" viewBox="0 0 64 62" version="1.1" xmlns="http://www.w3.org/2000/svg" xmlns:xlink="http://www.w3.org/1999/xlink">
    <!-- Generator: Sketch 53.2 (72643) - https://sketchapp.com -->
    <title>ic_callback</title>
    <desc>Created with Sketch.</desc>
    <g id="Web-App" stroke="none" stroke-width="1" fill="none" fill-rule="evenodd">
        <g id="Contact-Service-Provider" transform="translate(-71.000000, -148.000000)" fill="#14A815" fill-rule="nonzero">
            <g id="Group-2" transform="translate(60.000000, 32.000000)">
                <g id="Group-9">
                    <g id="Group-5">
                        <g id="Group">
                            <g transform="translate(-19.000000, 84.000000)" id="ic_callback">
                                <g transform="translate(30.000000, 32.000000)">
                                    <path d="M44.1778641,32.5119055 C44.0535922,32.6969801 44.0535922,32.8820547 43.9914563,33.1288209 C43.9293204,33.9308109 44.5506796,34.6711095 45.3584466,34.732801 C46.1662136,34.7944925 46.9118447,34.1775771 46.9739806,33.3755871 C46.9739806,33.1905124 46.9739806,33.0054378 47.0361165,32.6969801 C47.0361165,32.3885224 47.0361165,32.2034478 47.0361165,32.0183731 C47.0361165,30.2293184 46.7254369,28.5019552 46.1662136,26.8362836 C45.4205825,24.6770796 44.1157282,22.7646418 42.5623301,21.1606617 C40.6361165,19.2482239 38.2749515,17.89101 35.6031068,17.1507114 C34.3603883,16.8422537 32.9933981,16.6571791 31.6885437,16.6571791 C31.2535922,16.6571791 30.8186408,16.6571791 30.3215534,16.7188706 C29.8866019,16.7805622 29.4516505,16.8422537 29.016699,16.9039453 C28.208932,17.0273284 27.6497087,17.8293184 27.8361165,18.5696169 C27.9603883,19.371607 28.7681553,19.9268308 29.5137864,19.7417562 C29.8866019,19.6800647 30.1972816,19.6183731 30.5700971,19.6183731 C30.632233,19.6183731 30.6943689,19.6183731 30.7565049,19.6183731 C31.0671845,19.6183731 31.3778641,19.5566816 31.6885437,19.5566816 C35.1060194,19.5566816 38.2749515,20.9138955 40.5118447,23.1964826 C42.7487379,25.4173781 44.1157282,28.4402637 44.1778641,31.8332985 L44.1778641,31.9566816 C44.1778641,32.2034478 44.1778641,32.3885224 44.1778641,32.5119055 Z" id="Path"></path>
                                    <path d="M52.3798058,33.8691194 C52.3176699,34.6711095 52.9390291,35.411408 53.7467961,35.4730995 C54.5545631,35.534791 55.3001942,34.9178756 55.3623301,34.1158856 C55.424466,33.4372786 55.424466,32.7586716 55.424466,32.0800647 C55.424466,30.7228507 55.3001942,29.4273284 55.1137864,28.131806 C54.3060194,23.1964826 51.8827184,18.7546915 48.4652427,15.3616567 C44.5506796,11.4750896 39.3312621,8.94573632 33.5526214,8.51389552 C32.9312621,8.45220398 32.247767,8.45220398 31.6264078,8.45220398 C30.9429126,8.45220398 30.2594175,8.45220398 29.5759223,8.51389552 C28.8924272,8.57558706 28.208932,8.63727861 27.5254369,8.76066169 C26.7176699,8.88404478 26.1584466,9.68603483 26.3448544,10.4263333 C26.4691262,11.2283234 27.2768932,11.7835473 28.0225243,11.5984726 C28.4574757,11.5367811 28.8302913,11.4750896 29.2652427,11.413398 C29.4516505,11.413398 29.6380583,11.3517065 29.824466,11.3517065 C30.4458252,11.2900149 31.0671845,11.2900149 31.6264078,11.2900149 C33.7390291,11.2900149 35.7273786,11.5984726 37.6535922,12.1536965 C41.008932,13.1407612 43.9914563,14.9298159 46.4147573,17.3357861 C48.4031068,19.3099154 50.0186408,21.7158856 51.0749515,24.3069303 C52.0069903,26.651209 52.5662136,29.2422537 52.5662136,31.9566816 C52.5662136,32.1417562 52.5662136,32.3885224 52.5662136,32.573597 C52.4419417,33.0671294 52.3798058,33.4372786 52.3798058,33.8691194 Z" id="Path"></path>
                                    <path d="M54.4924272,9.43926866 C48.5895146,3.57857214 40.5118447,0.000462686567 31.5642718,0.000462686567 C30.632233,0.000462686567 29.7001942,0.0621542289 28.7681553,0.123845771 C27.8361165,0.185537313 26.9040777,0.308920398 25.9720388,0.493995025 C25.1642718,0.617378109 24.6050485,1.41936816 24.7914563,2.15966667 C24.9157282,2.96165672 25.7234951,3.5168806 26.4691262,3.33180597 C26.9040777,3.27011443 27.2768932,3.20842289 27.7118447,3.14673134 C28.1467961,3.0850398 28.5817476,3.02334826 29.016699,3.02334826 C29.8866019,2.96165672 30.6943689,2.89996517 31.5642718,2.89996517 C39.6419417,2.89996517 46.9739806,6.16961692 52.3176699,11.413398 C57.5992233,16.6571791 60.8924272,23.9367811 60.8924272,32.0183731 C60.8924272,32.4502139 60.8924272,32.9437463 60.8924272,33.3755871 C60.8924272,33.7457363 60.8302913,34.1158856 60.8302913,34.5477264 C60.7681553,35.3497164 61.3895146,36.0900149 62.1972816,36.1517065 C63.0050485,36.213398 63.7506796,35.5964826 63.8128155,34.7944925 C63.8749515,33.8691194 63.9370874,32.9437463 63.9370874,32.0800647 C63.9370874,23.2581741 60.3332039,15.2382736 54.4924272,9.43926866 Z" id="Path"></path>
                                    <path d="M61.6380583,46.8243433 L50.64,40.9636468 C46.9739806,38.9895174 46.8497087,40.2850398 42.9972816,44.3566816 C42.0652427,45.3437463 40.3254369,47.934791 38.2749515,47.4412587 C33.9875728,46.3925025 25.9720388,40.1616567 23.3623301,37.3238458 C22.1196117,35.9666318 16.7759223,29.4890199 16.7137864,27.3915075 C16.5895146,24.1835473 23.6730097,22.5795672 21.3739806,16.4721045 L16.4652427,5.55270149 C11.8671845,-4.9348607 -0.994951456,11.8452388 0.0613592233,19.6800647 C2.79533981,38.9895174 36.9079612,70.2054378 55.9215534,59.9029502 C60.1467961,57.5586716 65.863301,49.3536965 61.6380583,46.8243433 Z" id="Path"></path>
                                </g>
                            </g>
                        </g>
                    </g>
                </g>
            </g>
        </g>
    </g>
</svg>