<?xml version="1.0" encoding="UTF-8"?>
<svg width="36px" height="41px" viewBox="0 0 36 41" version="1.1" xmlns="http://www.w3.org/2000/svg" xmlns:xlink="http://www.w3.org/1999/xlink">
    <!-- Generator: Sketch 62 (91390) - https://sketch.com -->
    <title>fingertips_logo_loader</title>
    <desc>Created with Sketch.</desc>
    <g id="Website" stroke="none" stroke-width="1" fill="none" fill-rule="evenodd">
        <g id="fingertips_logo_loader" transform="translate(-8.000000, -3.000000)">
            <g id="Group-2">
                <g id="Group">
                    <g id="624815" transform="translate(25.550392, 24.599900) rotate(-330.000000) translate(-25.550392, -24.599900) translate(5.277616, 8.823102)"></g>
                </g>
            </g>
            <path d="M36.6598065,14.2847485 L36.6989735,14.3232835 L43.2559906,21.5290294 C44.8638343,23.2973387 45.7497056,25.587018 45.7497056,27.9761811 C45.7497056,30.5088918 44.7737841,32.8929029 42.9978665,34.6950633 L42.9438061,34.7494957 L40.2006869,37.4926149 C38.4069263,39.2863755 36.0286223,40.2819972 33.4955152,40.3017303 L33.4187074,40.3020294 L16.9755236,40.3020294 C15.5332954,40.3020294 14.3596815,39.1284154 14.3596815,37.6861872 C14.3596815,35.7818795 15.7663192,34.1425231 17.6405587,33.8459589 L17.697496,33.8373842 L24.7393431,32.7317822 L12.8669348,20.8593738 C11.5677604,19.5601995 11.5677604,17.446599 12.8669348,16.1491413 C14.1634761,14.8525999 16.2479814,14.841317 17.5484637,16.1001429 L17.5876307,16.1386779 L20.6778395,19.2288867 C20.8295583,18.7126666 21.1085542,18.2279184 21.5149089,17.8215636 C22.7146813,16.6199929 24.596371,16.5223893 25.900777,17.5181259 C26.0507792,16.9897258 26.3332902,16.4927158 26.7465933,16.0776961 C27.948164,14.8761254 29.8298537,14.7767233 31.1342598,15.7759751 C31.2807469,15.2457765 31.5632579,14.7487665 31.9782776,14.3337468 C33.2748189,13.0372055 35.3593241,13.0259226 36.6598065,14.2847485 Z M33.22162,15.5559991 C32.9111523,15.8663851 32.7472534,16.2639931 32.7472534,16.6877595 C32.7472534,17.0994184 32.9036175,17.4880893 33.1874951,17.7849055 L33.2128733,17.810855 L33.2878336,17.8858152 C33.627893,18.2258747 33.627893,18.7787166 33.2878336,19.1187761 C32.9548041,19.4536039 32.4141423,19.4605522 32.0723661,19.1361878 L32.0688693,19.1344076 L32.0637829,19.1293212 L32.0620663,19.1276046 L30.2344918,17.3000301 C29.617153,16.6826913 28.607438,16.6826913 27.9900992,17.3000301 C27.3679004,17.9222289 27.3606656,18.9124797 27.958292,19.5331352 L29.7985454,21.3737955 C29.9694743,21.5447245 30.0548979,21.7678885 30.0548979,21.9911343 C30.0548979,22.2143801 29.9693925,22.4375441 29.800262,22.608473 C29.466275,22.94246 28.9270371,22.9484241 28.5857197,22.6263652 L28.5673011,22.608473 L25.0028075,19.0439794 C24.3854687,18.4266406 23.3757537,18.4266406 22.7584149,19.0439794 C22.1362161,19.6661781 22.1289813,20.6564289 22.7266077,21.2770845 L26.3107286,24.8616123 C26.4816575,25.0325413 26.5670811,25.2557053 26.5670811,25.4789511 C26.5670811,25.7021968 26.4815758,25.9253609 26.3124452,26.0962898 C25.9784582,26.4302768 25.4392203,26.4362409 25.097903,26.114182 L25.0794844,26.0962898 L16.3547516,17.371557 C16.0442838,17.061171 15.6380108,16.9059371 15.2316561,16.9059371 C14.8253014,16.9059371 14.4189466,17.061171 14.1085606,17.3698404 C13.4880585,17.9920392 13.4808434,18.9839669 14.07847,19.6046614 L14.0998139,19.626413 L27.1841746,32.7107737 C27.4161671,32.9426844 27.4980757,33.286259 27.396957,33.596645 C27.2967483,33.900614 27.0411535,34.1251463 26.7283459,34.1834629 L26.7028596,34.1878253 L17.9572001,35.5620416 C16.8951682,35.7137605 16.1034672,36.6257902 16.1034672,37.6861055 C16.1034672,38.1596573 16.4816266,38.5454546 16.9522244,38.5577765 L16.9754419,38.5580801 L33.4186257,38.5580801 C35.4938525,38.5580801 37.4460176,37.7581786 38.9231114,36.3039225 L41.7108453,33.5165348 C43.191412,32.0359682 44.0058381,30.0688549 44.0058381,27.9761811 C44.0058381,26.042045 43.2957044,24.188164 42.0089864,22.7487678 L41.9672796,22.7024798 L35.4381376,15.5263256 C34.8469572,14.940377 33.8424738,14.9386603 33.22162,15.5559991 Z M22.0869313,13.3220395 C22.3754625,13.7958045 22.2248751,14.4123298 21.751166,14.7007481 C21.287538,14.9862331 20.6814097,14.8436544 20.3888537,14.3881244 L20.3742504,14.3646927 C18.9390331,12.0070783 16.2524219,10.6982747 13.5291561,11.0326496 C9.68705972,11.5043998 6.9454433,15.0134388 7.41715875,18.8552529 C7.75151729,21.5783846 9.67145831,23.8684316 12.306368,24.6905876 C12.8338325,24.856172 13.1292026,25.4180353 12.9658157,25.9472888 C12.843566,26.3340587 12.5081185,26.5975445 12.1299182,26.6439816 C11.9925605,26.660847 11.8497243,26.6500651 11.7090467,26.60672 C8.32386509,25.549348 5.85657793,22.6031621 5.42640524,19.0996867 C4.82001378,14.1610245 8.34574739,9.64852014 13.2846525,9.04209884 C16.7883003,8.61190499 20.2440191,10.2931282 22.0869313,13.3220395 Z" id="Shape" stroke="#8D1B3D" stroke-width="0.864" fill="#8D1B3D" fill-rule="nonzero" transform="translate(25.554127, 24.638780) rotate(-330.000000) translate(-25.554127, -24.638780) "></path>
        </g>
    </g>
</svg>