<?xml version="1.0" encoding="UTF-8"?>
<svg width="128px" height="44px" viewBox="0 0 128 44" version="1.1" xmlns="http://www.w3.org/2000/svg" xmlns:xlink="http://www.w3.org/1999/xlink">
    <!-- Generator: Sketch 55.2 (78181) - https://sketchapp.com -->
    <title>fooding_admin@1x</title>
    <desc>Created with Sketch.</desc>
    <g id="Web-App" stroke="none" stroke-width="1" fill="none" fill-rule="evenodd">
        <g id="fooding_admin" fill-rule="nonzero">
            <path d="M2.453125,24.328125 L2.453125,11.078125 L0,11.078125 L0,7.421875 L2.453125,7.421875 L2.453125,6.046875 C2.453125,5.06770344 2.60416516,4.20052461 2.90625,3.4453125 C3.20833484,2.69010039 3.64062219,2.05729422 4.203125,1.546875 C4.76562781,1.03645578 5.44530852,0.651042969 6.2421875,0.390625 C7.03906648,0.130207031 7.937495,0 8.9375,0 C9.38541891,0 9.81249797,0.0312496875 10.21875,0.09375 C10.625002,0.156250312 11.0208314,0.234374531 11.40625,0.328125 L11.421875,4.203125 C11.2447908,4.15104141 11.0546885,4.11458344 10.8515625,4.09375 C10.6484365,4.07291656 10.4062514,4.0625 10.125,4.0625 C9.35416281,4.0625 8.76302289,4.23176914 8.3515625,4.5703125 C7.94010211,4.90885586 7.734375,5.40103844 7.734375,6.046875 L7.734375,7.421875 L11.03125,7.421875 L11.03125,11.078125 L7.734375,11.078125 L7.734375,24.328125 L2.453125,24.328125 Z M12.21875,15.71875 C12.21875,14.4895772 12.3958316,13.3489636 12.75,12.296875 C13.1041684,11.2447864 13.6249966,10.3333372 14.3125,9.5625 C15.0000034,8.79166281 15.8515574,8.19010633 16.8671875,7.7578125 C17.8828176,7.32551867 19.0468684,7.109375 20.359375,7.109375 C21.692715,7.109375 22.8671824,7.32551867 23.8828125,7.7578125 C24.8984426,8.19010633 25.7499966,8.79166281 26.4375,9.5625 C27.1250034,10.3333372 27.6458316,11.2447864 28,12.296875 C28.3541684,13.3489636 28.53125,14.4895772 28.53125,15.71875 L28.53125,16.046875 C28.53125,17.2864645 28.3567726,18.4296823 28.0078125,19.4765625 C27.6588524,20.5234427 27.1406284,21.4296837 26.453125,22.1953125 C25.7656216,22.9609413 24.9140676,23.5598937 23.8984375,23.9921875 C22.8828074,24.4244813 21.7135483,24.640625 20.390625,24.640625 C19.0677017,24.640625 17.8984426,24.4244813 16.8828125,23.9921875 C15.8671824,23.5598937 15.0130243,22.9609413 14.3203125,22.1953125 C13.6276007,21.4296837 13.1041684,20.5234427 12.75,19.4765625 C12.3958316,18.4296823 12.21875,17.2864645 12.21875,16.046875 L12.21875,15.71875 Z M17.484375,16.046875 C17.484375,16.6822948 17.5286454,17.2760389 17.6171875,17.828125 C17.7057296,18.3802111 17.861978,18.859373 18.0859375,19.265625 C18.309897,19.671875 18.6093731,19.9921863 18.984375,20.2265625 C19.3593769,20.4609387 19.8281222,20.578125 20.390625,20.578125 C20.9427111,20.578125 21.403644,20.4609387 21.7734375,20.2265625 C22.143231,19.9921863 22.4374989,19.671875 22.65625,19.265625 C22.8750011,18.859373 23.0312495,18.3802111 23.125,17.828125 C23.2187505,17.2760389 23.265625,16.6822948 23.265625,16.046875 L23.265625,15.71875 C23.265625,15.1041636 23.2213546,14.5208361 23.1328125,13.96875 C23.0442704,13.4166639 22.888022,12.9348979 22.6640625,12.5234375 C22.440103,12.1119771 22.1406269,11.7838554 21.765625,11.5390625 C21.3906231,11.2942696 20.9218778,11.171875 20.359375,11.171875 C19.8072889,11.171875 19.346356,11.2942696 18.9765625,11.5390625 C18.606769,11.7838554 18.3125011,12.1119771 18.09375,12.5234375 C17.8749989,12.9348979 17.7187505,13.4166639 17.625,13.96875 C17.5312495,14.5208361 17.484375,15.1041636 17.484375,15.71875 L17.484375,16.046875 Z M30.1875,15.71875 C30.1875,14.4895772 30.3645816,13.3489636 30.71875,12.296875 C31.0729184,11.2447864 31.5937466,10.3333372 32.28125,9.5625 C32.9687534,8.79166281 33.8203074,8.19010633 34.8359375,7.7578125 C35.8515676,7.32551867 37.0156184,7.109375 38.328125,7.109375 C39.661465,7.109375 40.8359324,7.32551867 41.8515625,7.7578125 C42.8671926,8.19010633 43.7187466,8.79166281 44.40625,9.5625 C45.0937534,10.3333372 45.6145816,11.2447864 45.96875,12.296875 C46.3229184,13.3489636 46.5,14.4895772 46.5,15.71875 L46.5,16.046875 C46.5,17.2864645 46.3255226,18.4296823 45.9765625,19.4765625 C45.6276024,20.5234427 45.1093784,21.4296837 44.421875,22.1953125 C43.7343716,22.9609413 42.8828176,23.5598937 41.8671875,23.9921875 C40.8515574,24.4244813 39.6822983,24.640625 38.359375,24.640625 C37.0364517,24.640625 35.8671926,24.4244813 34.8515625,23.9921875 C33.8359324,23.5598937 32.9817743,22.9609413 32.2890625,22.1953125 C31.5963507,21.4296837 31.0729184,20.5234427 30.71875,19.4765625 C30.3645816,18.4296823 30.1875,17.2864645 30.1875,16.046875 L30.1875,15.71875 Z M35.453125,16.046875 C35.453125,16.6822948 35.4973954,17.2760389 35.5859375,17.828125 C35.6744796,18.3802111 35.830728,18.859373 36.0546875,19.265625 C36.278647,19.671875 36.5781231,19.9921863 36.953125,20.2265625 C37.3281269,20.4609387 37.7968722,20.578125 38.359375,20.578125 C38.9114611,20.578125 39.372394,20.4609387 39.7421875,20.2265625 C40.111981,19.9921863 40.4062489,19.671875 40.625,19.265625 C40.8437511,18.859373 40.9999995,18.3802111 41.09375,17.828125 C41.1875005,17.2760389 41.234375,16.6822948 41.234375,16.046875 L41.234375,15.71875 C41.234375,15.1041636 41.1901046,14.5208361 41.1015625,13.96875 C41.0130204,13.4166639 40.856772,12.9348979 40.6328125,12.5234375 C40.408853,12.1119771 40.1093769,11.7838554 39.734375,11.5390625 C39.3593731,11.2942696 38.8906278,11.171875 38.328125,11.171875 C37.7760389,11.171875 37.315106,11.2942696 36.9453125,11.5390625 C36.575519,11.7838554 36.2812511,12.1119771 36.0625,12.5234375 C35.8437489,12.9348979 35.6875005,13.4166639 35.59375,13.96875 C35.4999995,14.5208361 35.453125,15.1041636 35.453125,15.71875 L35.453125,16.046875 Z M48.15625,15.75 C48.15625,14.4687436 48.2968736,13.2968803 48.578125,12.234375 C48.8593764,11.1718697 49.2760389,10.2604205 49.828125,9.5 C50.3802111,8.73957953 51.0651001,8.15104375 51.8828125,7.734375 C52.7005249,7.31770625 53.6510363,7.109375 54.734375,7.109375 C55.5364623,7.109375 56.2499969,7.26562344 56.875,7.578125 C57.5000031,7.89062656 58.0572892,8.328125 58.546875,8.890625 L58.546875,0.328125 L63.828125,0.328125 L63.828125,24.328125 L59.09375,24.328125 L58.828125,22.515625 C58.3281225,23.1718783 57.7395867,23.6901023 57.0625,24.0703125 C56.3854133,24.4505227 55.5989628,24.640625 54.703125,24.640625 C53.630203,24.640625 52.6875041,24.4244813 51.875,23.9921875 C51.0624959,23.5598937 50.3802111,22.9635455 49.828125,22.203125 C49.2760389,21.4427045 48.8593764,20.5390677 48.578125,19.4921875 C48.2968736,18.4453073 48.15625,17.3072978 48.15625,16.078125 L48.15625,15.75 Z M53.421875,16.078125 C53.421875,16.7135448 53.4635413,17.3046848 53.546875,17.8515625 C53.6302087,18.3984402 53.7734365,18.874998 53.9765625,19.28125 C54.1796885,19.687502 54.4505191,20.0052072 54.7890625,20.234375 C55.1276059,20.4635428 55.5468725,20.578125 56.046875,20.578125 C56.640628,20.578125 57.1458313,20.4505221 57.5625,20.1953125 C57.9791687,19.9401029 58.3072905,19.5781273 58.546875,19.109375 L58.546875,12.671875 C58.0677059,11.671875 57.2447975,11.171875 56.078125,11.171875 C55.5885392,11.171875 55.1744809,11.2864572 54.8359375,11.515625 C54.4973941,11.7447928 54.2239594,12.0651021 54.015625,12.4765625 C53.8072906,12.8880229 53.6562505,13.372393 53.5625,13.9296875 C53.4687495,14.486982 53.421875,15.0937467 53.421875,15.75 L53.421875,16.078125 Z M72.375,24.328125 L67.09375,24.328125 L67.09375,7.421875 L72.375,7.421875 L72.375,24.328125 Z M66.78125,3.0625 C66.78125,2.68749813 66.8515618,2.34375156 66.9921875,2.03125 C67.1328132,1.71874844 67.333332,1.44791781 67.59375,1.21875 C67.854168,0.989582187 68.1614566,0.812500625 68.515625,0.6875 C68.8697934,0.562499375 69.2656228,0.5 69.703125,0.5 C70.1406272,0.5 70.5364566,0.562499375 70.890625,0.6875 C71.2447934,0.812500625 71.552082,0.989582187 71.8125,1.21875 C72.072918,1.44791781 72.2734368,1.71874844 72.4140625,2.03125 C72.5546882,2.34375156 72.625,2.68749813 72.625,3.0625 C72.625,3.43750187 72.5546882,3.78124844 72.4140625,4.09375 C72.2734368,4.40625156 72.072918,4.67708219 71.8125,4.90625 C71.552082,5.13541781 71.2447934,5.31249938 70.890625,5.4375 C70.5364566,5.56250062 70.1406272,5.625 69.703125,5.625 C69.2656228,5.625 68.8697934,5.56250062 68.515625,5.4375 C68.1614566,5.31249938 67.854168,5.13541781 67.59375,4.90625 C67.333332,4.67708219 67.1328132,4.40625156 66.9921875,4.09375 C66.8515618,3.78124844 66.78125,3.43750187 66.78125,3.0625 Z M80.453125,7.421875 L80.625,9.40625 C81.1979195,8.65624625 81.8932251,8.08593945 82.7109375,7.6953125 C83.5286499,7.30468555 84.4427033,7.109375 85.453125,7.109375 C86.2343789,7.109375 86.9505176,7.22135305 87.6015625,7.4453125 C88.2526074,7.66927195 88.8124977,8.03905992 89.28125,8.5546875 C89.7500023,9.07031508 90.1119779,9.74739164 90.3671875,10.5859375 C90.6223971,11.4244834 90.75,12.4583272 90.75,13.6875 L90.75,24.328125 L85.46875,24.328125 L85.46875,13.671875 C85.46875,13.1614558 85.414063,12.7447933 85.3046875,12.421875 C85.195312,12.0989567 85.0390635,11.8437509 84.8359375,11.65625 C84.6328115,11.4687491 84.382814,11.3411462 84.0859375,11.2734375 C83.789061,11.2057288 83.4531269,11.171875 83.078125,11.171875 C82.515625,11.171875 82.049481,11.2812489 81.6796875,11.5 C81.309894,11.7187511 81.0104178,12.0156231 80.78125,12.390625 L80.78125,24.328125 L75.515625,24.328125 L75.515625,7.421875 L80.453125,7.421875 Z M93.046875,15.75 C93.046875,14.4687436 93.2057276,13.2968803 93.5234375,12.234375 C93.8411474,11.1718697 94.2994762,10.2604205 94.8984375,9.5 C95.4973988,8.73957953 96.2265582,8.15104375 97.0859375,7.734375 C97.9453168,7.31770625 98.911453,7.109375 99.984375,7.109375 C100.942713,7.109375 101.752601,7.26562344 102.414062,7.578125 C103.075524,7.89062656 103.640623,8.32812219 104.109375,8.890625 L104.296875,7.421875 L109.078125,7.421875 L109.078125,23.671875 C109.078125,24.8489642 108.869794,25.8906205 108.453125,26.796875 C108.036456,27.7031295 107.450525,28.4661427 106.695312,29.0859375 C105.9401,29.7057323 105.033859,30.1770817 103.976562,30.5 C102.919266,30.8229183 101.750006,30.984375 100.46875,30.984375 C99.9062472,30.984375 99.3255238,30.929688 98.7265625,30.8203125 C98.1276012,30.710937 97.5520861,30.5494802 97,30.3359375 C96.4479139,30.1223948 95.9296899,29.8593766 95.4453125,29.546875 C94.9609351,29.2343734 94.546875,28.8697937 94.203125,28.453125 L96.40625,25.359375 C96.8229187,25.8489608 97.3541634,26.260415 98,26.59375 C98.6458366,26.927085 99.4062456,27.09375 100.28125,27.09375 C101.427089,27.09375 102.296872,26.7942738 102.890625,26.1953125 C103.484378,25.5963512 103.78125,24.7447972 103.78125,23.640625 L103.78125,22.96875 C103.302081,23.5000027 102.750003,23.9114569 102.125,24.203125 C101.499997,24.4947931 100.776046,24.640625 99.953125,24.640625 C98.880203,24.640625 97.9166709,24.4244813 97.0625,23.9921875 C96.2083291,23.5598937 95.484378,22.9635455 94.890625,22.203125 C94.296872,21.4427045 93.8411474,20.5390677 93.5234375,19.4921875 C93.2057276,18.4453073 93.046875,17.3072978 93.046875,16.078125 L93.046875,15.75 Z M98.328125,16.078125 C98.328125,16.7135448 98.3880202,17.3046848 98.5078125,17.8515625 C98.6276048,18.3984402 98.8098946,18.874998 99.0546875,19.28125 C99.2994804,19.687502 99.6093731,20.0052072 99.984375,20.234375 C100.359377,20.4635428 100.796873,20.578125 101.296875,20.578125 C101.890628,20.578125 102.390623,20.4791677 102.796875,20.28125 C103.203127,20.0833323 103.531249,19.8020852 103.78125,19.4375 L103.78125,12.328125 C103.531249,11.9531231 103.205731,11.6666677 102.804688,11.46875 C102.403644,11.2708323 101.911461,11.171875 101.328125,11.171875 C100.838539,11.171875 100.406252,11.2864572 100.03125,11.515625 C99.6562481,11.7447928 99.3437512,12.0651021 99.09375,12.4765625 C98.8437488,12.8880229 98.6536465,13.372393 98.5234375,13.9296875 C98.3932285,14.486982 98.328125,15.0937467 98.328125,15.75 L98.328125,16.078125 Z M111.40625,15.71875 C111.40625,14.4895772 111.583332,13.3489636 111.9375,12.296875 C112.291668,11.2447864 112.812497,10.3333372 113.5,9.5625 C114.187503,8.79166281 115.039057,8.19010633 116.054688,7.7578125 C117.070318,7.32551867 118.234368,7.109375 119.546875,7.109375 C120.880215,7.109375 122.054682,7.32551867 123.070312,7.7578125 C124.085943,8.19010633 124.937497,8.79166281 125.625,9.5625 C126.312503,10.3333372 126.833332,11.2447864 127.1875,12.296875 C127.541668,13.3489636 127.71875,14.4895772 127.71875,15.71875 L127.71875,16.046875 C127.71875,17.2864645 127.544273,18.4296823 127.195312,19.4765625 C126.846352,20.5234427 126.328128,21.4296837 125.640625,22.1953125 C124.953122,22.9609413 124.101568,23.5598937 123.085938,23.9921875 C122.070307,24.4244813 120.901048,24.640625 119.578125,24.640625 C118.255202,24.640625 117.085943,24.4244813 116.070312,23.9921875 C115.054682,23.5598937 114.200524,22.9609413 113.507812,22.1953125 C112.815101,21.4296837 112.291668,20.5234427 111.9375,19.4765625 C111.583332,18.4296823 111.40625,17.2864645 111.40625,16.046875 L111.40625,15.71875 Z M116.671875,16.046875 C116.671875,16.6822948 116.716145,17.2760389 116.804688,17.828125 C116.89323,18.3802111 117.049478,18.859373 117.273438,19.265625 C117.497397,19.671875 117.796873,19.9921863 118.171875,20.2265625 C118.546877,20.4609387 119.015622,20.578125 119.578125,20.578125 C120.130211,20.578125 120.591144,20.4609387 120.960938,20.2265625 C121.330731,19.9921863 121.624999,19.671875 121.84375,19.265625 C122.062501,18.859373 122.21875,18.3802111 122.3125,17.828125 C122.40625,17.2760389 122.453125,16.6822948 122.453125,16.046875 L122.453125,15.71875 C122.453125,15.1041636 122.408855,14.5208361 122.320312,13.96875 C122.23177,13.4166639 122.075522,12.9348979 121.851562,12.5234375 C121.627603,12.1119771 121.328127,11.7838554 120.953125,11.5390625 C120.578123,11.2942696 120.109378,11.171875 119.546875,11.171875 C118.994789,11.171875 118.533856,11.2942696 118.164062,11.5390625 C117.794269,11.7838554 117.500001,12.1119771 117.28125,12.5234375 C117.062499,12.9348979 116.90625,13.4166639 116.8125,13.96875 C116.71875,14.5208361 116.671875,15.1041636 116.671875,15.71875 L116.671875,16.046875 Z" id="foodingo" fill="#E91A34"></path>
            <path d="M5.1328125,40.1621094 L1.7578125,40.1621094 L1.7578125,43.6484375 L0,43.6484375 L0,35.1171875 L5.5546875,35.1171875 L5.5546875,36.5410156 L1.7578125,36.5410156 L1.7578125,38.7441406 L5.1328125,38.7441406 L5.1328125,40.1621094 Z M14.5820312,39.5761719 C14.5820312,40.2285189 14.4941415,40.813474 14.3183594,41.3310547 C14.1425772,41.8486354 13.8955094,42.2871076 13.5771484,42.6464844 C13.2587875,43.0058612 12.8769554,43.2822256 12.4316406,43.4755859 C11.9863259,43.6689463 11.4960964,43.765625 10.9609375,43.765625 C10.4257786,43.765625 9.9355491,43.6689463 9.49023438,43.4755859 C9.04491965,43.2822256 8.66113442,43.0058612 8.33886719,42.6464844 C8.01659995,42.2871076 7.7656259,41.8486354 7.5859375,41.3310547 C7.4062491,40.813474 7.31640625,40.2285189 7.31640625,39.5761719 L7.31640625,39.2011719 C7.31640625,38.5527311 7.40527255,37.9687526 7.58300781,37.4492188 C7.76074308,36.9296849 8.00976402,36.4882831 8.33007812,36.125 C8.65039223,35.7617169 9.0332009,35.4833994 9.47851562,35.2900391 C9.92383035,35.0966787 10.4140598,35 10.9492188,35 C11.4843777,35 11.9746071,35.0966787 12.4199219,35.2900391 C12.8652366,35.4833994 13.2480453,35.7617169 13.5683594,36.125 C13.8886735,36.4882831 14.1376944,36.9296849 14.3154297,37.4492188 C14.493165,37.9687526 14.5820312,38.5527311 14.5820312,39.2011719 L14.5820312,39.5761719 Z M12.8007812,39.1894531 C12.8007812,38.2949174 12.6406266,37.6152367 12.3203125,37.1503906 C11.9999984,36.6855446 11.5429717,36.453125 10.9492188,36.453125 C10.3554658,36.453125 9.8984391,36.6855446 9.578125,37.1503906 C9.2578109,37.6152367 9.09765625,38.2949174 9.09765625,39.1894531 L9.09765625,39.5761719 C9.09765625,40.0214866 9.13964802,40.4150374 9.22363281,40.7568359 C9.30761761,41.0986345 9.42871015,41.385741 9.58691406,41.6181641 C9.74511798,41.8505871 9.93945197,42.0263666 10.1699219,42.1455078 C10.4003918,42.264649 10.664061,42.3242188 10.9609375,42.3242188 C11.5546905,42.3242188 12.009764,42.0898461 12.3261719,41.6210938 C12.6425797,41.1523414 12.8007812,40.4707076 12.8007812,39.5761719 L12.8007812,39.1894531 Z M23.8671875,39.5761719 C23.8671875,40.2285189 23.7792978,40.813474 23.6035156,41.3310547 C23.4277335,41.8486354 23.1806657,42.2871076 22.8623047,42.6464844 C22.5439437,43.0058612 22.1621116,43.2822256 21.7167969,43.4755859 C21.2714821,43.6689463 20.7812527,43.765625 20.2460938,43.765625 C19.7109348,43.765625 19.2207054,43.6689463 18.7753906,43.4755859 C18.3300759,43.2822256 17.9462907,43.0058612 17.6240234,42.6464844 C17.3017562,42.2871076 17.0507821,41.8486354 16.8710938,41.3310547 C16.6914054,40.813474 16.6015625,40.2285189 16.6015625,39.5761719 L16.6015625,39.2011719 C16.6015625,38.5527311 16.6904288,37.9687526 16.8681641,37.4492188 C17.0458993,36.9296849 17.2949203,36.4882831 17.6152344,36.125 C17.9355485,35.7617169 18.3183571,35.4833994 18.7636719,35.2900391 C19.2089866,35.0966787 19.6992161,35 20.234375,35 C20.7695339,35 21.2597634,35.0966787 21.7050781,35.2900391 C22.1503929,35.4833994 22.5332015,35.7617169 22.8535156,36.125 C23.1738297,36.4882831 23.4228507,36.9296849 23.6005859,37.4492188 C23.7783212,37.9687526 23.8671875,38.5527311 23.8671875,39.2011719 L23.8671875,39.5761719 Z M22.0859375,39.1894531 C22.0859375,38.2949174 21.9257829,37.6152367 21.6054688,37.1503906 C21.2851546,36.6855446 20.828128,36.453125 20.234375,36.453125 C19.640622,36.453125 19.1835954,36.6855446 18.8632812,37.1503906 C18.5429671,37.6152367 18.3828125,38.2949174 18.3828125,39.1894531 L18.3828125,39.5761719 C18.3828125,40.0214866 18.4248043,40.4150374 18.5087891,40.7568359 C18.5927739,41.0986345 18.7138664,41.385741 18.8720703,41.6181641 C19.0302742,41.8505871 19.2246082,42.0263666 19.4550781,42.1455078 C19.685548,42.264649 19.9492173,42.3242188 20.2460938,42.3242188 C20.8398467,42.3242188 21.2949203,42.0898461 21.6113281,41.6210938 C21.927736,41.1523414 22.0859375,40.4707076 22.0859375,39.5761719 L22.0859375,39.1894531 Z M26.1445312,43.6484375 L26.1445312,35.1171875 L28.7695312,35.1171875 C29.3437529,35.1171875 29.8701148,35.2158193 30.3486328,35.4130859 C30.8271508,35.6103525 31.237303,35.8876935 31.5791016,36.2451172 C31.9209001,36.6025408 32.187499,37.0312475 32.3789062,37.53125 C32.5703135,38.0312525 32.6660156,38.5859345 32.6660156,39.1953125 L32.6660156,39.5820312 C32.6660156,40.1914093 32.57129,40.7451147 32.3818359,41.2431641 C32.1923819,41.7412134 31.9248064,42.1689435 31.5791016,42.5263672 C31.2333967,42.8837908 30.8203149,43.1601553 30.3398438,43.3554688 C29.8593726,43.5507822 29.330081,43.6484375 28.7519531,43.6484375 L26.1445312,43.6484375 Z M27.9023438,36.5410156 L27.9023438,42.2363281 L28.7519531,42.2363281 C29.4472691,42.2363281 29.9765607,42.0068382 30.3398438,41.5478516 C30.7031268,41.0888649 30.8847656,40.433598 30.8847656,39.5820312 L30.8847656,39.1835938 C30.8847656,38.3164019 30.7050799,37.6591819 30.3457031,37.2119141 C29.9863263,36.7646462 29.460941,36.5410156 28.7695312,36.5410156 L27.9023438,36.5410156 Z M38.9316406,43.6484375 L38.9316406,35.1171875 L41.5566406,35.1171875 C42.1308622,35.1171875 42.6572242,35.2158193 43.1357422,35.4130859 C43.6142602,35.6103525 44.0244124,35.8876935 44.3662109,36.2451172 C44.7080095,36.6025408 44.9746084,37.0312475 45.1660156,37.53125 C45.3574228,38.0312525 45.453125,38.5859345 45.453125,39.1953125 L45.453125,39.5820312 C45.453125,40.1914093 45.3583994,40.7451147 45.1689453,41.2431641 C44.9794912,41.7412134 44.7119158,42.1689435 44.3662109,42.5263672 C44.0205061,42.8837908 43.6074243,43.1601553 43.1269531,43.3554688 C42.646482,43.5507822 42.1171904,43.6484375 41.5390625,43.6484375 L38.9316406,43.6484375 Z M40.6894531,36.5410156 L40.6894531,42.2363281 L41.5390625,42.2363281 C42.2343785,42.2363281 42.7636701,42.0068382 43.1269531,41.5478516 C43.4902362,41.0888649 43.671875,40.433598 43.671875,39.5820312 L43.671875,39.1835938 C43.671875,38.3164019 43.4921893,37.6591819 43.1328125,37.2119141 C42.7734357,36.7646462 42.2480503,36.5410156 41.5566406,36.5410156 L40.6894531,36.5410156 Z M52.8632812,39.9511719 L49.4882812,39.9511719 L49.4882812,42.2363281 L53.4492188,42.2363281 L53.4492188,43.6484375 L47.7304688,43.6484375 L47.7304688,35.1171875 L53.4375,35.1171875 L53.4375,36.5410156 L49.4882812,36.5410156 L49.4882812,38.5742188 L52.8632812,38.5742188 L52.8632812,39.9511719 Z M57.2382812,42.2363281 L60.9707031,42.2363281 L60.9707031,43.6484375 L55.4804688,43.6484375 L55.4804688,35.1171875 L57.2382812,35.1171875 L57.2382812,42.2363281 Z M64.8476562,43.6484375 L63.0898438,43.6484375 L63.0898438,35.1171875 L64.8476562,35.1171875 L64.8476562,43.6484375 Z M70.6289062,41.5332031 L72.5625,35.1171875 L74.5195312,35.1171875 L71.5488281,43.6484375 L69.7148438,43.6484375 L66.7558594,35.1171875 L68.7070312,35.1171875 L70.6289062,41.5332031 Z M81.4550781,39.9511719 L78.0800781,39.9511719 L78.0800781,42.2363281 L82.0410156,42.2363281 L82.0410156,43.6484375 L76.3222656,43.6484375 L76.3222656,35.1171875 L82.0292969,35.1171875 L82.0292969,36.5410156 L78.0800781,36.5410156 L78.0800781,38.5742188 L81.4550781,38.5742188 L81.4550781,39.9511719 Z M87.2304688,40.5253906 L85.8300781,40.5253906 L85.8300781,43.6484375 L84.0722656,43.6484375 L84.0722656,35.1171875 L87.2421875,35.1171875 C87.7343775,35.1171875 88.1757793,35.172851 88.5664062,35.2841797 C88.9570332,35.3955084 89.287108,35.5595692 89.5566406,35.7763672 C89.8261732,35.9931651 90.0332024,36.2617171 90.1777344,36.5820312 C90.3222663,36.9023454 90.3945312,37.2734354 90.3945312,37.6953125 C90.3945312,38.0078141 90.3593754,38.2880847 90.2890625,38.5361328 C90.2187496,38.7841809 90.1171882,39.0048818 89.984375,39.1982422 C89.8515618,39.3916025 89.6914072,39.5605462 89.5039062,39.7050781 C89.3164053,39.8496101 89.1054699,39.9746088 88.8710938,40.0800781 L90.7167969,43.5664062 L90.7167969,43.6484375 L88.8300781,43.6484375 L87.2304688,40.5253906 Z M85.8300781,39.1015625 L87.2480469,39.1015625 C87.4785168,39.1015625 87.6806632,39.0712894 87.8544922,39.0107422 C88.0283212,38.950195 88.172851,38.8642584 88.2880859,38.7529297 C88.4033209,38.641601 88.4902341,38.5087898 88.5488281,38.3544922 C88.6074222,38.2001945 88.6367188,38.0273447 88.6367188,37.8359375 C88.6367188,37.4335917 88.5224621,37.1171887 88.2939453,36.8867188 C88.0654285,36.6562488 87.7148461,36.5410156 87.2421875,36.5410156 L85.8300781,36.5410156 L85.8300781,39.1015625 Z M95.390625,38.9609375 L97.1660156,35.1171875 L99.0878906,35.1171875 L96.2871094,40.5546875 L96.2871094,43.6484375 L94.5,43.6484375 L94.5,40.5546875 L91.6992188,35.1171875 L93.6269531,35.1171875 L95.390625,38.9609375 Z" id="FOODDELIVERY" fill="#9CACBF"></path>
        </g>
    </g>
</svg>