<?xml version="1.0" encoding="UTF-8"?>
<svg width="113px" height="113px" viewBox="0 0 113 113" version="1.1" xmlns="http://www.w3.org/2000/svg" xmlns:xlink="http://www.w3.org/1999/xlink">
    <!-- Generator: Sketch 64 (93537) - https://sketch.com -->
    <title>Group 5</title>
    <desc>Created with Sketch.</desc>
    <g id="Page-1" stroke="none" stroke-width="1" fill="none" fill-rule="evenodd">
        <g id="Artboard" transform="translate(-576.000000, -334.000000)">
            <g id="Group-5" transform="translate(576.000000, 334.000000)">
                <circle id="Oval" fill="#FFFFFF" cx="56.5" cy="56.5" r="56.5"></circle>
                <g id="Group-2" transform="translate(22.000000, 22.000000)">
                    <path d="M67.8794149,0.557370305 C68.2442149,2.27434459 68.4362149,4.05538224 68.4362149,5.88109316 C68.4362149,19.9562142 57.026282,31.366147 42.9513511,31.366147 C41.1248798,31.366147 39.3432719,31.1739569 37.6257273,30.8089668 C37.2609273,29.0918024 37.0689273,27.3107648 37.0689273,25.4850538 C37.0689273,11.4099328 48.4788601,2.36378577e-14 62.553791,2.36378577e-14 C64.3802623,2.36378577e-14 66.1618703,0.192190102 67.8794149,0.557370305 Z" id="Path" fill="#81C341"></path>
                    <path d="M34.2176322,54.7481355 C22.8789865,54.7481355 13.6871289,45.5562779 13.6871289,34.2176322 C13.6871289,22.8789865 22.8789865,13.6871289 34.2176322,13.6871289 L34.2176322,4.72757154e-14 C15.3196992,4.72757154e-14 5.4029389e-14,15.3196992 5.4029389e-14,34.2176322 C5.4029389e-14,53.115375 15.3196992,68.4352644 34.2176322,68.4352644 C53.115375,68.4352644 68.4352644,53.115375 68.4352644,34.2176322 L54.7481355,34.2176322 C54.7481355,45.5562779 45.5562779,54.7481355 34.2176322,54.7481355 Z" id="Path" fill="#F76754"></path>
                </g>
            </g>
        </g>
    </g>
</svg>