<?xml version="1.0" encoding="UTF-8"?>
<svg width="60px" height="60px" viewBox="0 0 60 60" version="1.1" xmlns="http://www.w3.org/2000/svg" xmlns:xlink="http://www.w3.org/1999/xlink">
    <!-- Generator: Sketch 53.2 (72643) - https://sketchapp.com -->
    <title>ic_img_upload</title>
    <desc>Created with Sketch.</desc>
    <g id="Web-App" stroke="none" stroke-width="1" fill="none" fill-rule="evenodd">
        <g id="Add-Food-Item" transform="translate(-1091.000000, -617.000000)">
            <g id="ic_img_upload" transform="translate(1091.000000, 617.000000)">
                <circle id="Oval" fill="#0B141F" cx="30" cy="30" r="30"></circle>
                <g id="126494" transform="translate(17.000000, 18.000000)" fill="#FFFFFF" fill-rule="nonzero" stroke="#FFFFFF" stroke-width="1.5">
                    <path d="M25.2122881,11.7061785 C24.7991525,11.7061785 24.4686441,12.0356979 24.4686441,12.4475973 L24.4686441,19.191762 C24.4686441,21.026087 22.970339,22.5144165 21.1360169,22.5144165 L4.81991525,22.5144165 C2.98008475,22.5144165 1.48728814,21.020595 1.48728814,19.191762 L1.48728814,12.3377574 C1.48728814,11.9258581 1.15677966,11.5963387 0.743644068,11.5963387 C0.330508475,11.5963387 0,11.9258581 0,12.3377574 L0,19.191762 C0,21.8443936 2.16483051,23.997254 4.81991525,23.997254 L21.1360169,23.997254 C23.7966102,23.997254 25.9559322,21.8389016 25.9559322,19.191762 L25.9559322,12.4475973 C25.9559322,12.0411899 25.6254237,11.7061785 25.2122881,11.7061785 Z" id="Path"></path>
                    <path d="M8.775,5.99450801 L12.234322,2.54553776 L12.234322,17.5881007 C12.234322,18 12.5648305,18.3295195 12.9779661,18.3295195 C13.3911017,18.3295195 13.7216102,18 13.7216102,17.5881007 L13.7216102,2.54553776 L17.1809322,5.99450801 C17.3241525,6.13729977 17.5169492,6.21418764 17.7042373,6.21418764 C17.8970339,6.21418764 18.084322,6.14279176 18.2275424,5.99450801 C18.5194915,5.70343249 18.5194915,5.23661327 18.2275424,4.94553776 L13.5012712,0.233409611 C13.3635593,0.0961098398 13.1707627,0.0137299771 12.9779661,0.0137299771 C12.779661,0.0137299771 12.5923729,0.090617849 12.454661,0.233409611 L7.72838983,4.94553776 C7.43644068,5.23661327 7.43644068,5.70343249 7.72838983,5.99450801 C8.01483051,6.28009153 8.48855932,6.28009153 8.775,5.99450801 Z" id="Path"></path>
                </g>
            </g>
        </g>
    </g>
</svg>