<?xml version="1.0" encoding="UTF-8"?>
<svg width="23px" height="20px" viewBox="0 0 23 20" version="1.1" xmlns="http://www.w3.org/2000/svg" xmlns:xlink="http://www.w3.org/1999/xlink">
    <!-- Generator: Sketch 54.1 (76490) - https://sketchapp.com -->
    <title>ic_shop</title>
    <desc>Created with Sketch.</desc>
    <g id="Android" stroke="none" stroke-width="1" fill="none" fill-rule="evenodd">
        <g id="Artboard" transform="translate(-30.000000, -129.000000)" fill="#A1B3D6" fill-rule="nonzero">
            <g id="ic_shop" transform="translate(30.000000, 129.000000)">
                <path d="M16.3206122,10.8761682 L13.1991837,10.8761682 C12.344898,10.8761682 11.6502041,11.567757 11.6502041,12.4182243 L11.6502041,14.8014019 C11.6502041,15.6518692 12.344898,16.3434579 13.1991837,16.3434579 L16.3206122,16.3434579 C17.174898,16.3434579 17.8695918,15.6518692 17.8695918,14.8014019 L17.8695918,12.4182243 C17.8695918,11.567757 17.174898,10.8761682 16.3206122,10.8761682 Z M16.7430612,14.8014019 C16.7430612,15.0350467 16.5506122,15.2219626 16.3206122,15.2219626 L13.1991837,15.2219626 C12.9644898,15.2219626 12.7767347,15.0303738 12.7767347,14.8014019 L12.7767347,12.4182243 C12.7767347,12.1845794 12.9691837,11.9976636 13.1991837,11.9976636 L16.3206122,11.9976636 C16.5553061,11.9976636 16.7430612,12.1892523 16.7430612,12.4182243 L16.7430612,14.8014019 Z" id="Shape"></path>
                <path d="M22.9718367,6.54439252 C22.9718367,6.44626168 22.9483673,6.35280374 22.8967347,6.26869159 L19.4795918,0.287383178 C19.3810204,0.114485981 19.1932653,0.0023364486 18.9914286,0.0023364486 L3.97571429,0.0023364486 C3.77387755,0.0023364486 3.58612245,0.109813084 3.48755102,0.287383178 L0.0751020408,6.26869159 C0.0281632653,6.35280374 0,6.44626168 0,6.54439252 C0,7.88551402 0.812040816,9.03504673 1.97142857,9.54439252 L1.97142857,19.4088785 C1.97142857,19.7172897 2.22489796,19.9696262 2.53469388,19.9696262 L5.64673469,19.9696262 C5.65142857,19.9696262 5.65612245,19.9696262 5.66081633,19.9696262 L10.0261224,19.9696262 C10.0308163,19.9696262 10.0355102,19.9696262 10.0402041,19.9696262 L20.432449,19.9696262 C20.7422449,19.9696262 20.9957143,19.7172897 20.9957143,19.4088785 L20.9957143,9.61448598 C20.9957143,9.5911215 20.9957143,9.57242991 20.9910204,9.55373832 C22.155102,9.04439252 22.9718367,7.89018692 22.9718367,6.54439252 Z M4.30428571,1.12850467 L18.6628571,1.12850467 L21.3336735,5.80607477 L1.63816327,5.80607477 L4.30428571,1.12850467 Z M16.3487755,6.9228972 C16.1704082,7.93224299 15.2832653,8.69859813 14.2177551,8.69859813 C13.1522449,8.69859813 12.265102,7.93224299 12.0867347,6.9228972 L16.3487755,6.9228972 Z M10.8897959,6.9228972 C10.7114286,7.93224299 9.82428571,8.69859813 8.75877551,8.69859813 C7.69326531,8.69859813 6.80612245,7.93224299 6.62306122,6.9228972 L10.8897959,6.9228972 Z M1.16408163,6.9228972 L5.43081633,6.9228972 C5.25244898,7.93224299 4.36061224,8.69859813 3.29510204,8.69859813 C2.22959184,8.70327103 1.34244898,7.93224299 1.16408163,6.9228972 Z M9.46285714,18.8481308 L6.22408163,18.8481308 L6.22408163,12.796729 C6.22408163,12.3574766 6.58081633,11.9976636 7.02673469,11.9976636 L8.66489796,11.9976636 C9.10612245,11.9976636 9.46755102,12.3528037 9.46755102,12.796729 L9.46755102,18.8481308 L9.46285714,18.8481308 Z M19.8691837,18.8481308 L10.5893878,18.8481308 L10.5893878,12.796729 C10.5893878,11.7406542 9.72571429,10.8761682 8.66020408,10.8761682 L7.02204082,10.8761682 C5.96122449,10.8761682 5.09285714,11.7359813 5.09285714,12.796729 L5.09285714,18.8528037 L3.09795918,18.8528037 L3.09795918,9.82009346 C3.16367347,9.82476636 3.22938776,9.82476636 3.29510204,9.82476636 C4.43102041,9.82476636 5.4355102,9.25 6.02693878,8.37616822 C6.61836735,9.25 7.62285714,9.82476636 8.75877551,9.82476636 C9.89469388,9.82476636 10.8944898,9.25 11.4906122,8.37616822 C12.0820408,9.25 13.0865306,9.82476636 14.2177551,9.82476636 C15.3536735,9.82476636 16.3534694,9.25 16.944898,8.37616822 C17.5363265,9.25 18.5408163,9.82476636 19.6767347,9.82476636 C19.742449,9.82476636 19.8034694,9.82009346 19.8691837,9.82009346 L19.8691837,18.8481308 L19.8691837,18.8481308 Z M19.6767347,8.70327103 C18.6112245,8.70327103 17.7240816,7.93691589 17.5457143,6.92757009 L21.812449,6.92757009 C21.6293878,7.93224299 20.7422449,8.70327103 19.6767347,8.70327103 Z" id="Shape"></path>
            </g>
        </g>
    </g>
</svg>