<?xml version="1.0" encoding="UTF-8"?>
<svg width="25px" height="20px" viewBox="0 0 25 20" version="1.1" xmlns="http://www.w3.org/2000/svg" xmlns:xlink="http://www.w3.org/1999/xlink">
    <!-- Generator: Sketch 54.1 (76490) - https://sketchapp.com -->
    <title>ic_scooter</title>
    <desc>Created with Sketch.</desc>
    <g id="Android" stroke="none" stroke-width="1" fill="none" fill-rule="evenodd">
        <g id="Artboard" transform="translate(-30.000000, -186.000000)" fill="#A1B3D6" fill-rule="nonzero">
            <g id="ic_scooter" transform="translate(30.000000, 186.000000)">
                <path d="M20.9257126,11.8075718 L20.3689575,8.91045232 C20.3689575,8.91026132 20.3689575,8.91026132 20.3689575,8.91026132 L19.8526382,6.13195296 C19.7021484,5.3216687 18.9954758,4.73353452 18.1724548,4.73353452 L15.9290313,4.73353452 C15.5246734,4.73353452 15.1966095,5.06207976 15.1966095,5.46703086 C15.1966095,5.87217301 15.5246734,6.20052719 15.9290313,6.20052719 L18.1724548,6.20052719 C18.2901382,6.20052719 18.391037,6.28457364 18.41259,6.40032856 L18.8764572,8.89612621 L16.8027878,12.1099481 L12.4923706,12.2029722 C12.490654,12.2029722 12.4887466,12.2031632 12.4868393,12.2031632 C12.4006271,12.2031632 12.3432159,12.1596118 12.3163223,12.1332518 C12.2890473,12.1065098 12.2430801,12.0480593 12.2430801,11.9586644 L12.2430801,9.04893795 C12.2430801,8.64379584 11.9150162,8.31544161 11.5106583,8.31544161 L7.36637114,8.31544161 L7.36637114,4.19850244 C7.36637114,3.79355134 7.03849795,3.46500611 6.63394927,3.46500611 L0.732421875,3.46500611 C0.327873242,3.46500611 0,3.79355134 0,4.19850244 L0,9.04893795 C0,9.4540801 0.327873242,9.78243428 0.732421875,9.78243428 L2.709198,9.78243428 C1.82762148,10.5438188 1.16157529,11.5611629 0.838088965,12.7402964 L0.0268936035,15.6977766 C-0.0335693359,15.9183985 0.0122070313,16.1546837 0.150680566,16.3367207 C0.289154053,16.5187577 0.504684473,16.6255349 0.733184814,16.6255349 L2.67028809,16.6255349 C3.01647188,18.528614 4.68292236,19.9765052 6.68163301,19.9765052 C8.70265962,19.9765052 10.3839874,18.4965235 10.704422,16.562309 L16.8838501,16.4650825 C17.1630859,18.4468597 18.8669205,19.9765052 20.9215164,19.9765052 C23.1704712,19.9765052 25,18.1441015 25,15.8920385 C25,13.6411217 23.1725693,11.809864 20.9257126,11.8075718 Z M1.46484375,4.93199878 L5.90152739,4.93199878 L5.90152739,8.31544161 L1.46484375,8.31544161 L1.46484375,4.93199878 Z M2.25067139,13.1290113 C2.79121396,11.158504 4.59365845,9.78243428 6.63394927,9.78243428 L10.7782364,9.78243428 L10.7782364,11.9586644 C10.7782364,12.4228301 10.9605789,12.8571975 11.2918854,13.1819223 C11.6230011,13.5066473 12.0609283,13.6797066 12.5240326,13.6697738 L17.2227859,13.568345 C17.4657822,13.5631877 17.6902771,13.4375 17.8220749,13.2331143 L19.2750931,10.9812423 L20.0372696,14.948426 L1.69391631,15.1585422 L2.25067139,13.1290113 Z M6.68163301,18.5095125 C5.49468994,18.5095125 4.48989868,17.7129814 4.17251587,16.6255349 L6.68163301,16.6255349 L6.6930771,16.6255349 L9.20200347,16.5859948 C8.89778135,17.6936889 7.88307187,18.5095125 6.68163301,18.5095125 Z M20.9215164,18.5095125 C19.6685791,18.5095125 18.6193466,17.6220584 18.3662415,16.4419697 L20.9329605,16.4016656 C21.1494446,16.3982274 21.3533401,16.2990908 21.4899063,16.1308068 C21.6264725,15.9625229 21.6815948,15.742474 21.6407776,15.5296837 L21.2106705,13.2909917 C22.5162506,13.4355898 23.5351562,14.5467222 23.5351562,15.8920385 C23.5351562,17.3353453 22.362709,18.5095125 20.9215164,18.5095125 Z" id="Shape"></path>
                <path d="M0.733184814,1.46699267 L3.00369263,1.46699267 C3.40824126,1.46699267 3.7361145,1.13863844 3.7361145,0.733496333 C3.7361145,0.32835423 3.40824126,0 3.00369263,0 L0.733184814,0 C0.328636182,0 0.000762939453,0.32835423 0.000762939453,0.733496333 C0.000762939453,1.13863844 0.328636182,1.46699267 0.733184814,1.46699267 Z" id="Path"></path>
            </g>
        </g>
    </g>
</svg>