<?xml version="1.0" encoding="UTF-8"?>
<svg width="20px" height="20px" viewBox="0 0 20 20" version="1.1" xmlns="http://www.w3.org/2000/svg" xmlns:xlink="http://www.w3.org/1999/xlink">
    <!-- Generator: Sketch 53.2 (72643) - https://sketchapp.com -->
    <title>ic_login_user</title>
    <desc>Created with Sketch.</desc>
    <g id="Web-App" stroke="none" stroke-width="1" fill="none" fill-rule="evenodd">
        <g id="Login" transform="translate(-904.000000, -377.000000)" fill="#A6A9AD" fill-rule="nonzero">
            <g id="Group-4" transform="translate(470.000000, 245.000000)">
                <g id="Group-3" transform="translate(30.000000, 116.000000)">
                    <g id="ic_login_user" transform="translate(404.000000, 16.000000)">
                        <path d="M9.7817678,10.6208801 C9.84770955,10.6233215 9.91380359,10.625 9.98050682,10.625 C10.0423368,10.625 10.1038621,10.6236267 10.1652351,10.6213379 C11.561434,10.6515503 12.934637,11.0217285 14.1479349,11.6983032 C14.5242446,11.9081116 14.9990862,11.7726135 15.2084856,11.3955688 C15.417885,11.0185242 15.2826511,10.5427551 14.9063414,10.3329468 C14.34774,10.0215149 13.7606604,9.76486207 13.1545443,9.56527711 C14.4456628,8.59542848 15.2826511,7.05001832 15.2826511,5.3125 C15.2826511,2.38311766 12.9040265,0 9.98050682,0 C7.05683478,0 4.67836257,2.38311766 4.67836257,5.3125 C4.67836257,7.05108641 5.51626464,8.59741211 6.80875365,9.56710816 C5.62469544,9.95758055 4.51358433,10.565033 3.5410575,11.3664246 C1.75819322,12.8358459 0.518548967,14.8854065 0.0505604288,17.1376037 C-0.0960952827,17.8433227 0.0796479142,18.5681152 0.532559688,19.1262817 C0.983187135,19.6815491 1.6515899,20 2.36613669,20 L8.46003899,20 C8.89056409,20 9.23976608,19.6502686 9.23976608,19.21875 C9.23976608,18.7872314 8.89056409,18.4375 8.46003899,18.4375 L2.36613669,18.4375 C2.03322979,18.4375 1.83251096,18.2513428 1.74235501,18.1404114 C1.58686647,17.948761 1.52671173,17.6994324 1.57727216,17.4560547 C2.38700047,13.5591125 5.81932261,10.7131958 9.7817678,10.6208801 Z M6.23781676,5.3125 C6.23781676,3.24478148 7.91666667,1.5625 9.98050682,1.5625 C12.0441947,1.5625 13.7231969,3.24478148 13.7231969,5.3125 C13.7231969,7.31796266 12.143945,8.96057129 10.1661489,9.05792234 C10.1041667,9.05670164 10.0423368,9.05593871 9.98050682,9.05593871 C9.91959064,9.05593871 9.85882674,9.05685426 9.79806285,9.05792234 C7.8187439,8.96240234 6.23781676,7.31903078 6.23781676,5.3125 Z M19.9610136,14.5245361 C19.9617751,15.0463867 19.7581628,15.5368042 19.3879447,15.9057617 L17.9376827,17.3507691 C17.7855446,17.5024414 17.5866533,17.578125 17.3879142,17.578125 C17.1876523,17.578125 16.9873903,17.5012207 16.8349476,17.3477173 C16.5312805,17.0417786 16.5326511,16.5472412 16.8379934,16.2429809 L17.8100634,15.274353 L13.391356,15.274353 C12.5208638,15.274353 11.8128655,15.9838867 11.8128655,16.8559265 C11.8128655,17.7279663 12.5123355,18.4375 13.3723197,18.4375 C13.8028448,18.4375 14.1520468,18.7872314 14.1520468,19.21875 C14.1520468,19.6502686 13.8028448,20 13.3723197,20 C12.5336562,20 11.7478375,19.671936 11.1598441,19.0760803 C10.575201,18.4837341 10.2534113,17.6953125 10.2534113,16.8559265 C10.2534113,15.1222229 11.6610319,13.711853 13.391356,13.711853 L17.7384869,13.711853 L16.8395163,12.8211975 C16.5334125,12.5177002 16.530519,12.0230102 16.8334247,11.7163086 C17.1361781,11.409607 17.6299037,11.4067078 17.9361598,11.7102051 L19.3841374,13.1448364 C19.7554215,13.5127258 19.9602522,14.0026855 19.9610136,14.5245361 L19.9610136,14.5245361 Z" id="Shape"></path>
                    </g>
                </g>
            </g>
        </g>
    </g>
</svg>