<?xml version="1.0" encoding="UTF-8"?>
<svg width="18px" height="20px" viewBox="0 0 18 20" version="1.1" xmlns="http://www.w3.org/2000/svg" xmlns:xlink="http://www.w3.org/1999/xlink">
    <!-- Generator: Sketch 53.2 (72643) - https://sketchapp.com -->
    <title>ic_login_pwd</title>
    <desc>Created with Sketch.</desc>
    <g id="Web-App" stroke="none" stroke-width="1" fill="none" fill-rule="evenodd">
        <g id="Login" transform="translate(-905.000000, -453.000000)" fill="#A6A9AD" fill-rule="nonzero">
            <g id="Group-4" transform="translate(470.000000, 245.000000)">
                <g id="Group-2" transform="translate(30.000000, 192.000000)">
                    <g id="ic_login_pwd" transform="translate(405.000000, 16.000000)">
                        <ellipse id="Oval" cx="13.5803571" cy="13.515625" rx="1" ry="1"></ellipse>
                        <path d="M17.1964286,14.140625 C17.6402411,14.140625 18,13.7908594 18,13.359375 L18,10.46875 C18,8.745625 16.5580714,7.34375 14.7857143,7.34375 L13.819942,7.34375 L13.819942,4.58851562 C13.819942,2.05839844 11.6570491,0 8.99851339,0 C6.33997768,0 4.17708482,2.05839844 4.17708482,4.58851562 L4.17708482,7.34375 L3.21428571,7.34375 C1.44192857,7.34375 0,8.745625 0,10.46875 L0,16.875 C0,18.598125 1.44192857,20 3.21428571,20 L14.7857143,20 C16.5580714,20 18,18.598125 18,16.875 C18,16.4435156 17.6402411,16.09375 17.1964286,16.09375 C16.7526161,16.09375 16.3928571,16.4435156 16.3928571,16.875 C16.3928571,17.7365625 15.6718929,18.4375 14.7857143,18.4375 L3.21428571,18.4375 C2.32810714,18.4375 1.60714286,17.7365625 1.60714286,16.875 L1.60714286,10.46875 C1.60714286,9.6071875 2.32810714,8.90625 3.21428571,8.90625 L14.7857143,8.90625 C15.6718929,8.90625 16.3928571,9.6071875 16.3928571,10.46875 L16.3928571,13.359375 C16.3928571,13.7908594 16.7526161,14.140625 17.1964286,14.140625 Z M12.2127991,7.34375 L5.78422768,7.34375 L5.78422768,4.58851562 C5.78422768,2.91996094 7.22615625,1.5625 8.99851339,1.5625 C10.7708705,1.5625 12.2127991,2.91996094 12.2127991,4.58851562 L12.2127991,7.34375 Z" id="Shape"></path>
                        <ellipse id="Oval" cx="7.51339286" cy="13.515625" rx="1" ry="1"></ellipse>
                        <ellipse id="Oval" cx="4.5" cy="13.515625" rx="1" ry="1"></ellipse>
                        <ellipse id="Oval" cx="10.5267857" cy="13.515625" rx="1" ry="1"></ellipse>
                    </g>
                </g>
            </g>
        </g>
    </g>
</svg>