<?xml version="1.0" encoding="UTF-8"?>
<svg width="130px" height="47px" viewBox="0 0 130 47" version="1.1" xmlns="http://www.w3.org/2000/svg" xmlns:xlink="http://www.w3.org/1999/xlink">
    <!-- Generator: Sketch 53.2 (72643) - https://sketchapp.com -->
    <title>Group</title>
    <desc>Created with Sketch.</desc>
    <g id="Web-App" stroke="none" stroke-width="1" fill="none" fill-rule="evenodd">
        <g id="Home" transform="translate(-135.000000, -12.000000)" fill-rule="nonzero">
            <g id="Group" transform="translate(135.000000, 14.000000)">
                <path d="M2.640625,23 L2.640625,9.75 L0.1875,9.75 L0.1875,6.09375 L2.640625,6.09375 L2.640625,4.71875 C2.640625,3.73957844 2.79166516,2.87239961 3.09375,2.1171875 C3.39583484,1.36197539 3.82812219,0.729169219 4.390625,0.21875 C4.95312781,-0.291669219 5.63280852,-0.677082031 6.4296875,-0.9375 C7.22656648,-1.19791797 8.124995,-1.328125 9.125,-1.328125 C9.57291891,-1.328125 9.99999797,-1.29687531 10.40625,-1.234375 C10.812502,-1.17187469 11.2083314,-1.09375047 11.59375,-1 L11.609375,2.875 C11.4322908,2.82291641 11.2421885,2.78645844 11.0390625,2.765625 C10.8359365,2.74479156 10.5937514,2.734375 10.3125,2.734375 C9.54166281,2.734375 8.95052289,2.90364414 8.5390625,3.2421875 C8.12760211,3.58073086 7.921875,4.07291344 7.921875,4.71875 L7.921875,6.09375 L11.21875,6.09375 L11.21875,9.75 L7.921875,9.75 L7.921875,23 L2.640625,23 Z M12.40625,14.390625 C12.40625,13.1614522 12.5833316,12.0208386 12.9375,10.96875 C13.2916684,9.91666141 13.8124966,9.00521219 14.5,8.234375 C15.1875034,7.46353781 16.0390574,6.86198133 17.0546875,6.4296875 C18.0703176,5.99739367 19.2343684,5.78125 20.546875,5.78125 C21.880215,5.78125 23.0546824,5.99739367 24.0703125,6.4296875 C25.0859426,6.86198133 25.9374966,7.46353781 26.625,8.234375 C27.3125034,9.00521219 27.8333316,9.91666141 28.1875,10.96875 C28.5416684,12.0208386 28.71875,13.1614522 28.71875,14.390625 L28.71875,14.71875 C28.71875,15.9583395 28.5442726,17.1015573 28.1953125,18.1484375 C27.8463524,19.1953177 27.3281284,20.1015587 26.640625,20.8671875 C25.9531216,21.6328163 25.1015676,22.2317687 24.0859375,22.6640625 C23.0703074,23.0963563 21.9010483,23.3125 20.578125,23.3125 C19.2552017,23.3125 18.0859426,23.0963563 17.0703125,22.6640625 C16.0546824,22.2317687 15.2005243,21.6328163 14.5078125,20.8671875 C13.8151007,20.1015587 13.2916684,19.1953177 12.9375,18.1484375 C12.5833316,17.1015573 12.40625,15.9583395 12.40625,14.71875 L12.40625,14.390625 Z M17.671875,14.71875 C17.671875,15.3541698 17.7161454,15.9479139 17.8046875,16.5 C17.8932296,17.0520861 18.049478,17.531248 18.2734375,17.9375 C18.497397,18.343752 18.7968731,18.6640613 19.171875,18.8984375 C19.5468769,19.1328137 20.0156222,19.25 20.578125,19.25 C21.1302111,19.25 21.591144,19.1328137 21.9609375,18.8984375 C22.330731,18.6640613 22.6249989,18.343752 22.84375,17.9375 C23.0625011,17.531248 23.2187495,17.0520861 23.3125,16.5 C23.4062505,15.9479139 23.453125,15.3541698 23.453125,14.71875 L23.453125,14.390625 C23.453125,13.7760386 23.4088546,13.1927111 23.3203125,12.640625 C23.2317704,12.0885389 23.075522,11.6067729 22.8515625,11.1953125 C22.627603,10.7838521 22.3281269,10.4557304 21.953125,10.2109375 C21.5781231,9.96614461 21.1093778,9.84375 20.546875,9.84375 C19.9947889,9.84375 19.533856,9.96614461 19.1640625,10.2109375 C18.794269,10.4557304 18.5000011,10.7838521 18.28125,11.1953125 C18.0624989,11.6067729 17.9062505,12.0885389 17.8125,12.640625 C17.7187495,13.1927111 17.671875,13.7760386 17.671875,14.390625 L17.671875,14.71875 Z M30.375,14.390625 C30.375,13.1614522 30.5520816,12.0208386 30.90625,10.96875 C31.2604184,9.91666141 31.7812466,9.00521219 32.46875,8.234375 C33.1562534,7.46353781 34.0078074,6.86198133 35.0234375,6.4296875 C36.0390676,5.99739367 37.2031184,5.78125 38.515625,5.78125 C39.848965,5.78125 41.0234324,5.99739367 42.0390625,6.4296875 C43.0546926,6.86198133 43.9062466,7.46353781 44.59375,8.234375 C45.2812534,9.00521219 45.8020816,9.91666141 46.15625,10.96875 C46.5104184,12.0208386 46.6875,13.1614522 46.6875,14.390625 L46.6875,14.71875 C46.6875,15.9583395 46.5130226,17.1015573 46.1640625,18.1484375 C45.8151024,19.1953177 45.2968784,20.1015587 44.609375,20.8671875 C43.9218716,21.6328163 43.0703176,22.2317687 42.0546875,22.6640625 C41.0390574,23.0963563 39.8697983,23.3125 38.546875,23.3125 C37.2239517,23.3125 36.0546926,23.0963563 35.0390625,22.6640625 C34.0234324,22.2317687 33.1692743,21.6328163 32.4765625,20.8671875 C31.7838507,20.1015587 31.2604184,19.1953177 30.90625,18.1484375 C30.5520816,17.1015573 30.375,15.9583395 30.375,14.71875 L30.375,14.390625 Z M35.640625,14.71875 C35.640625,15.3541698 35.6848954,15.9479139 35.7734375,16.5 C35.8619796,17.0520861 36.018228,17.531248 36.2421875,17.9375 C36.466147,18.343752 36.7656231,18.6640613 37.140625,18.8984375 C37.5156269,19.1328137 37.9843722,19.25 38.546875,19.25 C39.0989611,19.25 39.559894,19.1328137 39.9296875,18.8984375 C40.299481,18.6640613 40.5937489,18.343752 40.8125,17.9375 C41.0312511,17.531248 41.1874995,17.0520861 41.28125,16.5 C41.3750005,15.9479139 41.421875,15.3541698 41.421875,14.71875 L41.421875,14.390625 C41.421875,13.7760386 41.3776046,13.1927111 41.2890625,12.640625 C41.2005204,12.0885389 41.044272,11.6067729 40.8203125,11.1953125 C40.596353,10.7838521 40.2968769,10.4557304 39.921875,10.2109375 C39.5468731,9.96614461 39.0781278,9.84375 38.515625,9.84375 C37.9635389,9.84375 37.502606,9.96614461 37.1328125,10.2109375 C36.763019,10.4557304 36.4687511,10.7838521 36.25,11.1953125 C36.0312489,11.6067729 35.8750005,12.0885389 35.78125,12.640625 C35.6874995,13.1927111 35.640625,13.7760386 35.640625,14.390625 L35.640625,14.71875 Z M48.34375,14.421875 C48.34375,13.1406186 48.4843736,11.9687553 48.765625,10.90625 C49.0468764,9.84374469 49.4635389,8.93229547 50.015625,8.171875 C50.5677111,7.41145453 51.2526001,6.82291875 52.0703125,6.40625 C52.8880249,5.98958125 53.8385363,5.78125 54.921875,5.78125 C55.7239623,5.78125 56.4374969,5.93749844 57.0625,6.25 C57.6875031,6.56250156 58.2447892,6.99999719 58.734375,7.5625 L58.734375,-1 L64.015625,-1 L64.015625,23 L59.28125,23 L59.015625,21.1875 C58.5156225,21.8437533 57.9270867,22.3619773 57.25,22.7421875 C56.5729133,23.1223977 55.7864628,23.3125 54.890625,23.3125 C53.817703,23.3125 52.8750041,23.0963563 52.0625,22.6640625 C51.2499959,22.2317687 50.5677111,21.6354205 50.015625,20.875 C49.4635389,20.1145795 49.0468764,19.2109427 48.765625,18.1640625 C48.4843736,17.1171823 48.34375,15.9791728 48.34375,14.75 L48.34375,14.421875 Z M53.609375,14.75 C53.609375,15.3854198 53.6510413,15.9765598 53.734375,16.5234375 C53.8177087,17.0703152 53.9609365,17.546873 54.1640625,17.953125 C54.3671885,18.359377 54.6380191,18.6770822 54.9765625,18.90625 C55.3151059,19.1354178 55.7343725,19.25 56.234375,19.25 C56.828128,19.25 57.3333313,19.1223971 57.75,18.8671875 C58.1666687,18.6119779 58.4947905,18.2500023 58.734375,17.78125 L58.734375,11.34375 C58.2552059,10.343745 57.4322975,9.84375 56.265625,9.84375 C55.7760392,9.84375 55.3619809,9.95833219 55.0234375,10.1875 C54.6848941,10.4166678 54.4114594,10.7369771 54.203125,11.1484375 C53.9947906,11.5598979 53.8437505,12.044268 53.75,12.6015625 C53.6562495,13.158857 53.609375,13.7656217 53.609375,14.421875 L53.609375,14.75 Z M72.5625,23 L67.28125,23 L67.28125,6.09375 L72.5625,6.09375 L72.5625,23 Z M66.96875,1.734375 C66.96875,1.35937313 67.0390618,1.01562656 67.1796875,0.703125 C67.3203132,0.390623438 67.520832,0.119792813 67.78125,-0.109375 C68.041668,-0.338542813 68.3489566,-0.515624375 68.703125,-0.640625 C69.0572934,-0.765625625 69.4531228,-0.828125 69.890625,-0.828125 C70.3281272,-0.828125 70.7239566,-0.765625625 71.078125,-0.640625 C71.4322934,-0.515624375 71.739582,-0.338542813 72,-0.109375 C72.260418,0.119792813 72.4609368,0.390623438 72.6015625,0.703125 C72.7421882,1.01562656 72.8125,1.35937313 72.8125,1.734375 C72.8125,2.10937687 72.7421882,2.45312344 72.6015625,2.765625 C72.4609368,3.07812656 72.260418,3.34895719 72,3.578125 C71.739582,3.80729281 71.4322934,3.98437438 71.078125,4.109375 C70.7239566,4.23437562 70.3281272,4.296875 69.890625,4.296875 C69.4531228,4.296875 69.0572934,4.23437562 68.703125,4.109375 C68.3489566,3.98437438 68.041668,3.80729281 67.78125,3.578125 C67.520832,3.34895719 67.3203132,3.07812656 67.1796875,2.765625 C67.0390618,2.45312344 66.96875,2.10937687 66.96875,1.734375 Z M80.640625,6.09375 L80.8125,8.078125 C81.3854195,7.32812125 82.0807251,6.75781445 82.8984375,6.3671875 C83.7161499,5.97656055 84.6302033,5.78125 85.640625,5.78125 C86.4218789,5.78125 87.1380176,5.89322805 87.7890625,6.1171875 C88.4401074,6.34114695 88.9999977,6.71093492 89.46875,7.2265625 C89.9375023,7.74219008 90.2994779,8.41926664 90.5546875,9.2578125 C90.8098971,10.0963584 90.9375,11.1302022 90.9375,12.359375 L90.9375,23 L85.65625,23 L85.65625,12.34375 C85.65625,11.8333308 85.601563,11.4166683 85.4921875,11.09375 C85.382812,10.7708317 85.2265635,10.5156259 85.0234375,10.328125 C84.8203115,10.1406241 84.570314,10.0130212 84.2734375,9.9453125 C83.976561,9.87760383 83.6406269,9.84375 83.265625,9.84375 C82.7031222,9.84375 82.236981,9.95312391 81.8671875,10.171875 C81.497394,10.3906261 81.1979178,10.6874981 80.96875,11.0625 L80.96875,23 L75.703125,23 L75.703125,6.09375 L80.640625,6.09375 Z M93.234375,14.421875 C93.234375,13.1406186 93.3932276,11.9687553 93.7109375,10.90625 C94.0286474,9.84374469 94.4869762,8.93229547 95.0859375,8.171875 C95.6848988,7.41145453 96.4140582,6.82291875 97.2734375,6.40625 C98.1328168,5.98958125 99.098953,5.78125 100.171875,5.78125 C101.130213,5.78125 101.940101,5.93749844 102.601562,6.25 C103.263024,6.56250156 103.828123,6.99999719 104.296875,7.5625 L104.484375,6.09375 L109.265625,6.09375 L109.265625,22.34375 C109.265625,23.5208392 109.057294,24.5624955 108.640625,25.46875 C108.223956,26.3750045 107.638025,27.1380177 106.882812,27.7578125 C106.1276,28.3776073 105.221359,28.8489567 104.164062,29.171875 C103.106766,29.4947933 101.937506,29.65625 100.65625,29.65625 C100.093747,29.65625 99.5130238,29.601563 98.9140625,29.4921875 C98.3151012,29.382812 97.7395861,29.2213552 97.1875,29.0078125 C96.6354139,28.7942698 96.1171899,28.5312516 95.6328125,28.21875 C95.1484351,27.9062484 94.7343767,27.5416687 94.390625,27.125 L96.59375,24.03125 C97.0104187,24.5208358 97.5416634,24.93229 98.1875,25.265625 C98.8333366,25.59896 99.5937456,25.765625 100.46875,25.765625 C101.614589,25.765625 102.484372,25.4661488 103.078125,24.8671875 C103.671878,24.2682262 103.96875,23.4166722 103.96875,22.3125 L103.96875,21.640625 C103.489581,22.1718777 102.937503,22.5833319 102.3125,22.875 C101.687497,23.1666681 100.963546,23.3125 100.140625,23.3125 C99.067703,23.3125 98.1041709,23.0963563 97.25,22.6640625 C96.3958291,22.2317687 95.671878,21.6354205 95.078125,20.875 C94.484372,20.1145795 94.0286474,19.2109427 93.7109375,18.1640625 C93.3932276,17.1171823 93.234375,15.9791728 93.234375,14.75 L93.234375,14.421875 Z M98.515625,14.75 C98.515625,15.3854198 98.5755202,15.9765598 98.6953125,16.5234375 C98.8151048,17.0703152 98.9973946,17.546873 99.2421875,17.953125 C99.4869804,18.359377 99.7968731,18.6770822 100.171875,18.90625 C100.546877,19.1354178 100.984373,19.25 101.484375,19.25 C102.078128,19.25 102.578123,19.1510427 102.984375,18.953125 C103.390627,18.7552073 103.718749,18.4739602 103.96875,18.109375 L103.96875,11 C103.718749,10.6249981 103.393231,10.3385427 102.992188,10.140625 C102.591144,9.94270734 102.098961,9.84375 101.515625,9.84375 C101.026039,9.84375 100.593752,9.95833219 100.21875,10.1875 C99.8437481,10.4166678 99.5312512,10.7369771 99.28125,11.1484375 C99.0312488,11.5598979 98.8411465,12.044268 98.7109375,12.6015625 C98.5807285,13.158857 98.515625,13.7656217 98.515625,14.421875 L98.515625,14.75 Z M111.59375,14.390625 C111.59375,13.1614522 111.770832,12.0208386 112.125,10.96875 C112.479168,9.91666141 112.999997,9.00521219 113.6875,8.234375 C114.375003,7.46353781 115.226557,6.86198133 116.242188,6.4296875 C117.257818,5.99739367 118.421868,5.78125 119.734375,5.78125 C121.067715,5.78125 122.242182,5.99739367 123.257812,6.4296875 C124.273443,6.86198133 125.124997,7.46353781 125.8125,8.234375 C126.500003,9.00521219 127.020832,9.91666141 127.375,10.96875 C127.729168,12.0208386 127.90625,13.1614522 127.90625,14.390625 L127.90625,14.71875 C127.90625,15.9583395 127.731773,17.1015573 127.382812,18.1484375 C127.033852,19.1953177 126.515628,20.1015587 125.828125,20.8671875 C125.140622,21.6328163 124.289068,22.2317687 123.273438,22.6640625 C122.257807,23.0963563 121.088548,23.3125 119.765625,23.3125 C118.442702,23.3125 117.273443,23.0963563 116.257812,22.6640625 C115.242182,22.2317687 114.388024,21.6328163 113.695312,20.8671875 C113.002601,20.1015587 112.479168,19.1953177 112.125,18.1484375 C111.770832,17.1015573 111.59375,15.9583395 111.59375,14.71875 L111.59375,14.390625 Z M116.859375,14.71875 C116.859375,15.3541698 116.903645,15.9479139 116.992188,16.5 C117.08073,17.0520861 117.236978,17.531248 117.460938,17.9375 C117.684897,18.343752 117.984373,18.6640613 118.359375,18.8984375 C118.734377,19.1328137 119.203122,19.25 119.765625,19.25 C120.317711,19.25 120.778644,19.1328137 121.148438,18.8984375 C121.518231,18.6640613 121.812499,18.343752 122.03125,17.9375 C122.250001,17.531248 122.40625,17.0520861 122.5,16.5 C122.59375,15.9479139 122.640625,15.3541698 122.640625,14.71875 L122.640625,14.390625 C122.640625,13.7760386 122.596355,13.1927111 122.507812,12.640625 C122.41927,12.0885389 122.263022,11.6067729 122.039062,11.1953125 C121.815103,10.7838521 121.515627,10.4557304 121.140625,10.2109375 C120.765623,9.96614461 120.296878,9.84375 119.734375,9.84375 C119.182289,9.84375 118.721356,9.96614461 118.351562,10.2109375 C117.981769,10.4557304 117.687501,10.7838521 117.46875,11.1953125 C117.249999,11.6067729 117.09375,12.0885389 117,12.640625 C116.90625,13.1927111 116.859375,13.7760386 116.859375,14.390625 L116.859375,14.71875 Z" id="foodingo" fill="#E91A34"></path>
                <path d="M2.34960938,41.8300781 L2.34960938,45 L0.8671875,45 L0.8671875,36.46875 L4.13085938,36.46875 C4.62695561,36.46875 5.06738089,36.5361321 5.45214844,36.6708984 C5.83691599,36.8056647 6.16210805,36.9941394 6.42773438,37.2363281 C6.6933607,37.4785168 6.89550712,37.7656233 7.03417969,38.0976562 C7.17285226,38.4296892 7.2421875,38.7910137 7.2421875,39.1816406 C7.2421875,39.5957052 7.17285226,39.9667952 7.03417969,40.2949219 C6.89550712,40.6230485 6.6933607,40.9003895 6.42773438,41.1269531 C6.16210805,41.3535168 5.83691599,41.5273431 5.45214844,41.6484375 C5.06738089,41.7695319 4.62695561,41.8300781 4.13085938,41.8300781 L2.34960938,41.8300781 Z M2.34960938,40.640625 L4.13085938,40.640625 C4.41601705,40.640625 4.66113179,40.6054691 4.86621094,40.5351562 C5.07129009,40.4648434 5.24023371,40.365235 5.37304688,40.2363281 C5.50586004,40.1074212 5.60253876,39.9541025 5.66308594,39.7763672 C5.72363312,39.5986319 5.75390625,39.4042979 5.75390625,39.1933594 C5.75390625,38.9941396 5.72363312,38.8027353 5.66308594,38.6191406 C5.60253876,38.435546 5.50586004,38.2724617 5.37304688,38.1298828 C5.24023371,37.987304 5.07129009,37.8740239 4.86621094,37.7900391 C4.66113179,37.7060543 4.41601705,37.6640625 4.13085938,37.6640625 L2.34960938,37.6640625 L2.34960938,40.640625 Z M13.9695313,43.0136719 L10.6648438,43.0136719 L9.97343755,45 L8.43242192,45 L11.6550782,36.46875 L12.9851563,36.46875 L16.2136719,45 L14.6667969,45 L13.9695313,43.0136719 Z M11.0808594,41.8183594 L13.5535157,41.8183594 L12.3171875,38.2792969 L11.0808594,41.8183594 Z M22.0152345,41.7128906 L20.3628907,41.7128906 L20.3628907,45 L18.8804688,45 L18.8804688,36.46875 L21.8804688,36.46875 C22.3687525,36.46875 22.8042951,36.5244135 23.1871095,36.6357422 C23.5699239,36.7470709 23.8931628,36.9111317 24.156836,37.1279297 C24.4205092,37.3447276 24.6207025,37.6132796 24.757422,37.9335938 C24.8941414,38.2539079 24.9625001,38.6249979 24.9625001,39.046875 C24.9625001,39.6171904 24.8248062,40.0947246 24.5494142,40.4794922 C24.2740222,40.8642597 23.8902369,41.1601552 23.398047,41.3671875 L25.3140626,44.9238281 L25.3140626,45 L23.726172,45 L22.0152345,41.7128906 Z M20.3628907,40.5234375 L21.8863282,40.5234375 C22.1519545,40.5234375 22.3843741,40.4882816 22.5835938,40.4179688 C22.7828136,40.3476559 22.9488276,40.2500006 23.0816407,40.125 C23.2144539,39.9999994 23.3140623,39.8515634 23.3804688,39.6796875 C23.4468754,39.5078116 23.4800782,39.3183604 23.4800782,39.1113281 C23.4800782,38.892577 23.4488285,38.6943368 23.3863282,38.5166016 C23.3238279,38.3388663 23.2281257,38.1865241 23.0992188,38.0595703 C22.970312,37.9326166 22.8052745,37.8349613 22.6041017,37.7666016 C22.4029288,37.6982418 22.1617203,37.6640625 21.8804688,37.6640625 L20.3628907,37.6640625 L20.3628907,40.5234375 Z M33.9398439,37.6640625 L31.2796876,37.6640625 L31.2796876,45 L29.8089845,45 L29.8089845,37.6640625 L27.1722658,37.6640625 L27.1722658,36.46875 L33.9398439,36.46875 L33.9398439,37.6640625 Z M43.5265627,45 L42.0441408,45 L38.2414064,38.9472656 L38.2414064,45 L36.7589846,45 L36.7589846,36.46875 L38.2414064,36.46875 L42.0558596,42.5449219 L42.0558596,36.46875 L43.5265627,36.46875 L43.5265627,45 Z M51.964844,41.1914062 L48.4609377,41.1914062 L48.4609377,43.8164062 L52.5566409,43.8164062 L52.5566409,45 L46.9785159,45 L46.9785159,36.46875 L52.5156252,36.46875 L52.5156252,37.6640625 L48.4609377,37.6640625 L48.4609377,40.0195312 L51.964844,40.0195312 L51.964844,41.1914062 Z M58.5984378,41.7128906 L56.946094,41.7128906 L56.946094,45 L55.4636722,45 L55.4636722,36.46875 L58.4636722,36.46875 C58.9519559,36.46875 59.3874984,36.5244135 59.7703128,36.6357422 C60.1531272,36.7470709 60.4763662,36.9111317 60.7400393,37.1279297 C61.0037125,37.3447276 61.2039059,37.6132796 61.3406253,37.9335938 C61.4773447,38.2539079 61.5457034,38.6249979 61.5457034,39.046875 C61.5457034,39.6171904 61.4080095,40.0947246 61.1326175,40.4794922 C60.8572255,40.8642597 60.4734402,41.1601552 59.9812503,41.3671875 L61.8972659,44.9238281 L61.8972659,45 L60.3093753,45 L58.5984378,41.7128906 Z M56.946094,40.5234375 L58.4695315,40.5234375 C58.7351579,40.5234375 58.9675774,40.4882816 59.1667972,40.4179688 C59.3660169,40.3476559 59.5320309,40.2500006 59.664844,40.125 C59.7976572,39.9999994 59.8972656,39.8515634 59.9636722,39.6796875 C60.0300787,39.5078116 60.0632815,39.3183604 60.0632815,39.1113281 C60.0632815,38.892577 60.0320318,38.6943368 59.9695315,38.5166016 C59.9070312,38.3388663 59.8113291,38.1865241 59.6824222,38.0595703 C59.5535153,37.9326166 59.3884779,37.8349613 59.187305,37.7666016 C58.9861321,37.6982418 58.7449236,37.6640625 58.4636722,37.6640625 L56.946094,37.6640625 L56.946094,40.5234375 Z M76.031641,42.890625 L77.344141,36.46875 L78.8148441,36.46875 L76.8460941,45 L75.4281254,45 L73.8050785,38.7714844 L72.1468754,45 L70.7230473,45 L68.7542973,36.46875 L70.2250004,36.46875 L71.5492191,42.8789062 L73.1781254,36.46875 L74.4203129,36.46875 L76.031641,42.890625 Z M86.5851567,41.1914062 L83.0812504,41.1914062 L83.0812504,43.8164062 L87.1769536,43.8164062 L87.1769536,45 L81.5988286,45 L81.5988286,36.46875 L87.1359379,36.46875 L87.1359379,37.6640625 L83.0812504,37.6640625 L83.0812504,40.0195312 L86.5851567,40.0195312 L86.5851567,41.1914062 Z M90.0839849,45 L90.0839849,36.46875 L93.007813,36.46875 C93.4687528,36.46875 93.8828111,36.514648 94.2500005,36.6064453 C94.6171898,36.6982426 94.9277336,36.8378897 95.1816411,37.0253906 C95.4355486,37.2128916 95.6298826,37.452147 95.7646489,37.7431641 C95.8994152,38.0341811 95.9667974,38.3789043 95.9667974,38.7773438 C95.9667974,39.1679707 95.8613297,39.5195297 95.6503911,39.8320312 C95.4394525,40.1445328 95.1308619,40.3867179 94.7246099,40.5585938 C94.9707048,40.6250003 95.1845699,40.7216791 95.3662114,40.8486328 C95.5478529,40.9755866 95.6982421,41.1249991 95.8173833,41.296875 C95.9365245,41.4687509 96.0253908,41.6582021 96.0839849,41.8652344 C96.1425789,42.0722667 96.1718755,42.2871083 96.1718755,42.5097656 C96.1718755,42.9199239 96.1044933,43.2802719 95.969727,43.5908203 C95.8349607,43.9013687 95.6396502,44.1611318 95.3837895,44.3701172 C95.1279289,44.5791026 94.8173851,44.7363276 94.4521489,44.8417969 C94.0869127,44.9472662 93.6738309,45 93.2128911,45 L90.0839849,45 Z M91.5664067,41.1503906 L91.5664067,43.8164062 L93.2128911,43.8164062 C93.4550798,43.8164062 93.6689449,43.7851566 93.8544927,43.7226562 C94.0400405,43.6601559 94.1953124,43.5712896 94.320313,43.4560547 C94.4453136,43.3408197 94.5390627,43.2031258 94.601563,43.0429688 C94.6640633,42.8828117 94.695313,42.7050791 94.695313,42.5097656 C94.695313,42.0878885 94.583986,41.7558606 94.3613286,41.5136719 C94.1386712,41.2714832 93.7773467,41.1503906 93.2773442,41.1503906 L91.5664067,41.1503906 Z M91.5664067,40.0605469 L93.0195317,40.0605469 C93.4804715,40.0605469 93.8408195,39.9560557 94.1005864,39.7470703 C94.3603533,39.5380849 94.4902349,39.2421894 94.4902349,38.859375 C94.4902349,38.4374979 94.3701189,38.1328134 94.1298833,37.9453125 C93.8896477,37.7578116 93.515628,37.6640625 93.007813,37.6640625 L91.5664067,37.6640625 L91.5664067,40.0605469 Z M108.817969,43.0136719 L105.513282,43.0136719 L104.821876,45 L103.28086,45 L106.503516,36.46875 L107.833594,36.46875 L111.06211,45 L109.515235,45 L108.817969,43.0136719 Z M105.929297,41.8183594 L108.401954,41.8183594 L107.165626,38.2792969 L105.929297,41.8183594 Z M115.211329,41.8300781 L115.211329,45 L113.728907,45 L113.728907,36.46875 L116.992579,36.46875 C117.488675,36.46875 117.9291,36.5361321 118.313868,36.6708984 C118.698635,36.8056647 119.023827,36.9941394 119.289454,37.2363281 C119.55508,37.4785168 119.757226,37.7656233 119.895899,38.0976562 C120.034572,38.4296892 120.103907,38.7910137 120.103907,39.1816406 C120.103907,39.5957052 120.034572,39.9667952 119.895899,40.2949219 C119.757226,40.6230485 119.55508,40.9003895 119.289454,41.1269531 C119.023827,41.3535168 118.698635,41.5273431 118.313868,41.6484375 C117.9291,41.7695319 117.488675,41.8300781 116.992579,41.8300781 L115.211329,41.8300781 Z M115.211329,40.640625 L116.992579,40.640625 C117.277736,40.640625 117.522851,40.6054691 117.72793,40.5351562 C117.933009,40.4648434 118.101953,40.365235 118.234766,40.2363281 C118.367579,40.1074212 118.464258,39.9541025 118.524805,39.7763672 C118.585352,39.5986319 118.615626,39.4042979 118.615626,39.1933594 C118.615626,38.9941396 118.585352,38.8027353 118.524805,38.6191406 C118.464258,38.435546 118.367579,38.2724617 118.234766,38.1298828 C118.101953,37.987304 117.933009,37.8740239 117.72793,37.7900391 C117.522851,37.7060543 117.277736,37.6640625 116.992579,37.6640625 L115.211329,37.6640625 L115.211329,40.640625 Z M124.581251,41.8300781 L124.581251,45 L123.098829,45 L123.098829,36.46875 L126.362501,36.46875 C126.858597,36.46875 127.299022,36.5361321 127.68379,36.6708984 C128.068557,36.8056647 128.393749,36.9941394 128.659376,37.2363281 C128.925002,37.4785168 129.127148,37.7656233 129.265821,38.0976562 C129.404494,38.4296892 129.473829,38.7910137 129.473829,39.1816406 C129.473829,39.5957052 129.404494,39.9667952 129.265821,40.2949219 C129.127148,40.6230485 128.925002,40.9003895 128.659376,41.1269531 C128.393749,41.3535168 128.068557,41.5273431 127.68379,41.6484375 C127.299022,41.7695319 126.858597,41.8300781 126.362501,41.8300781 L124.581251,41.8300781 Z M124.581251,40.640625 L126.362501,40.640625 C126.647658,40.640625 126.892773,40.6054691 127.097852,40.5351562 C127.302931,40.4648434 127.471875,40.365235 127.604688,40.2363281 C127.737501,40.1074212 127.83418,39.9541025 127.894727,39.7763672 C127.955274,39.5986319 127.985548,39.4042979 127.985548,39.1933594 C127.985548,38.9941396 127.955274,38.8027353 127.894727,38.6191406 C127.83418,38.435546 127.737501,38.2724617 127.604688,38.1298828 C127.471875,37.987304 127.302931,37.8740239 127.097852,37.7900391 C126.892773,37.7060543 126.647658,37.6640625 126.362501,37.6640625 L124.581251,37.6640625 L124.581251,40.640625 Z" id="PARTNERWEBAPP" fill="#9CACBF" opacity="0.600000024"></path>
            </g>
        </g>
    </g>
</svg>