<?xml version="1.0" encoding="UTF-8"?>
<svg width="14px" height="11px" viewBox="0 0 14 11" version="1.1" xmlns="http://www.w3.org/2000/svg" xmlns:xlink="http://www.w3.org/1999/xlink">
    <!-- Generator: Sketch 53.2 (72643) - https://sketchapp.com -->
    <title>“</title>
    <desc>Created with Sketch.</desc>
    <g id="Web-App" stroke="none" stroke-width="1" fill="none" fill-rule="evenodd">
        <g id="Home-Expand" transform="translate(-161.000000, -668.000000)" fill="#E91A34" fill-rule="nonzero">
            <g id="Group-12" transform="translate(136.000000, 655.000000)">
                <path d="M38.7553059,13 L38.7553059,15.1415929 C37.7765293,15.4336283 36.9725343,15.9528024 36.3433208,16.7315634 C35.7141074,17.4454277 35.3995006,18.2241888 35.4344569,19.0029499 C35.6092385,18.9056047 35.8888889,18.8731563 36.3083645,18.8731563 C37.0424469,18.8731563 37.6716604,19.100295 38.2309613,19.5870206 C38.7203496,20.0737463 39,20.6902655 39,21.4365782 C39,22.1828909 38.7203496,22.79941 38.1610487,23.2861357 C37.6017478,23.740413 36.9026217,24 36.0636704,24 C35.0848939,24 34.3158552,23.6106195 33.6866417,22.8967552 C33.0574282,22.1828909 32.7777778,21.2418879 32.7777778,20.1386431 C32.7777778,18.3864307 33.3021223,16.8938053 34.3857678,15.6283186 C35.4344569,14.3303835 36.9026217,13.4542773 38.7553059,13 Z M30.9775281,13 L30.9775281,15.1415929 C29.9987516,15.4336283 29.2297129,15.9528024 28.6004994,16.7315634 C27.9363296,17.4454277 27.6217228,18.2241888 27.6566792,19.0029499 C27.8314607,18.9056047 28.1111111,18.8731563 28.5305868,18.8731563 C29.2646692,18.8731563 29.8938826,19.100295 30.4182272,19.5870206 C30.9425718,20.0737463 31.2222222,20.6902655 31.2222222,21.4365782 C31.2222222,22.1828909 30.9425718,22.79941 30.4182272,23.2861357 C29.8589263,23.740413 29.1248439,24 28.2858926,24 C27.3071161,24 26.5380774,23.6106195 25.9438202,22.8967552 C25.3146067,22.1828909 25,21.2418879 25,20.1386431 C25,18.3864307 25.5243446,16.8938053 26.60799,15.6283186 C27.6566792,14.3303835 29.1248439,13.4542773 30.9775281,13 Z" id="“"></path>
            </g>
        </g>
    </g>
</svg>