<?xml version="1.0" encoding="UTF-8"?>
<svg width="120px" height="37px" viewBox="0 0 120 37" version="1.1" xmlns="http://www.w3.org/2000/svg" xmlns:xlink="http://www.w3.org/1999/xlink">
    <!-- Generator: Sketch 54.1 (76490) - https://sketchapp.com -->
    <title>ic_logo</title>
    <desc>Created with Sketch.</desc>
    <g id="Android" stroke="none" stroke-width="1" fill="none" fill-rule="evenodd">
        <g id="Artboard" transform="translate(-29.000000, -22.000000)">
            <g id="ic_logo" transform="translate(29.000000, 19.000000)">
                <g id="switzGo_vector" transform="translate(0.000000, 2.985075)" fill-rule="nonzero">
                    <g id="SwitzGo" transform="translate(0.045992, 0.026399)">
                        <path d="M1.95744971,8.03974806 C1.95744971,6.75573792 2.2219673,5.6631677 2.7510104,4.76200462 C3.28005351,3.86084154 3.94722564,3.12166331 4.75254682,2.54444774 C5.55786799,1.96723217 6.44841053,1.54610672 7.42420115,1.28105876 C8.39999177,1.01601079 9.33462057,0.883488798 10.2281156,0.883488798 C12.6852269,0.883488798 14.5868145,1.5402089 15.9329352,2.85366882 C17.279056,4.16712873 17.9521063,5.91936399 17.9521063,8.11042717 L12.8556832,8.48149246 C12.8556832,7.5390997 12.6088001,6.82642586 12.1150266,6.34344957 C11.621253,5.86047328 10.9393855,5.61898876 10.0694035,5.61898876 C9.29347357,5.61898876 8.63805777,5.83691381 8.10313641,6.27277047 C7.56821505,6.70862712 7.30075838,7.2033759 7.30075838,7.75703165 C7.30075838,8.21644812 7.53588512,8.60223437 8.00614566,8.91440197 C8.4764062,9.22656958 9.06422306,9.52695276 9.76961387,9.81556055 C10.4750047,10.1041683 11.2391666,10.4163313 12.0621225,10.7520587 C12.8850785,11.0877861 13.6521795,11.5089115 14.3634485,12.0154477 C15.0747176,12.5219838 15.6625345,13.1492545 16.1269168,13.8972788 C16.591299,14.6453031 16.8234867,15.572957 16.8234867,16.6802685 C16.8234867,17.6697809 16.6383244,18.6062697 16.2679942,19.4897629 C15.897664,20.3732561 15.3509944,21.1536634 14.6279688,21.8310082 C13.9049432,22.508353 13.0202788,23.0443308 11.9739491,23.4389578 C10.9276194,23.8335848 9.7167167,24.0308953 8.34120462,24.0308953 C5.71950211,24.0308953 3.67389945,23.3741752 2.20433526,22.0607153 C0.734771072,20.7472554 4.54747351e-13,18.9302316 4.54747351e-13,16.6095894 L5.23750057,16.2561939 C5.23750057,17.2928259 5.51965267,18.0643984 6.08396531,18.5709345 C6.64827796,19.0774706 7.43595255,19.3307349 8.44701271,19.3307349 C9.34050774,19.3307349 10.0635225,19.1010301 10.6160786,18.6416136 C11.1686347,18.1821972 11.4449087,17.6285497 11.4449087,16.9806547 C11.4449087,16.4976784 11.2097819,16.0883327 10.7395214,15.7526053 C10.2692608,15.4168778 9.68732215,15.0958801 8.99368785,14.7896025 C8.30005356,14.4833248 7.53589164,14.1623271 6.70117919,13.8265997 C5.86646673,13.4908723 5.10230481,13.0756367 4.40867052,12.5808805 C3.71503622,12.0861243 3.13309753,11.4765231 2.66283699,10.7520587 C2.19257645,10.0275942 1.95744971,9.12349974 1.95744971,8.03974806 Z M29.6094054,7.20926859 L32.8718216,7.20926859 L34.1944227,16.8392965 L38.7089013,7.20926859 L43.8758632,7.20926859 L35.3583117,23.8541976 L31.1965268,23.8541976 L29.9444643,14.6305745 L25.4299857,23.8541976 L21.2682008,23.8541976 L18.6053638,7.20926859 L23.5430747,7.20926859 L24.7422331,16.8392965 L29.6094054,7.20926859 Z M47.1919576,23.8541976 L42.3247853,23.8541976 L45.2521426,7.20926859 L50.1193148,7.20926859 L47.1919576,23.8541976 Z M47.9502489,5.442291 C47.2566146,5.442291 46.6805541,5.18902674 46.2220501,4.68249063 C45.7635461,4.17595452 45.5342975,3.58107801 45.5342975,2.89784326 C45.5342975,2.50910624 45.6195309,2.14098959 45.7900004,1.79348226 C45.9604698,1.44597493 46.1838402,1.13970187 46.4601183,0.87465391 C46.7363964,0.609605945 47.0538175,0.397570754 47.4123911,0.238541976 C47.7709648,0.0795131967 48.1442285,0 48.5321934,0 C49.2258277,0 49.8018882,0.253264256 50.2603923,0.759800366 C50.7188963,1.26633648 50.9481449,1.86121299 50.9481449,2.54444774 C50.9481449,2.93318475 50.8629114,3.3013014 50.692442,3.64880874 C50.5219725,3.99631607 50.2986021,4.30258912 50.0223241,4.56763709 C49.746046,4.83268505 49.4286249,5.04472024 49.0700512,5.20374902 C48.7114776,5.3627778 48.3382139,5.442291 47.9502489,5.442291 Z M57.8793491,17.0513338 C57.7147579,17.8288078 57.8323213,18.4501887 58.2320428,18.9154952 C58.6317642,19.3808016 59.2137029,19.6134513 59.9778763,19.6134513 L60.3393873,19.6134513 C60.4628307,19.6134513 60.5598204,19.6016716 60.6303595,19.5781118 C60.7244116,19.5545519 60.806706,19.5309925 60.8772451,19.5074327 L60.1189537,23.8541976 C59.9778756,23.9013172 59.8250432,23.9366564 59.660452,23.9602162 C59.5193738,23.983776 59.3459679,24.0014456 59.1402289,24.0132255 C58.9344899,24.0250054 58.7081804,24.0308953 58.4612936,24.0308953 C56.5567384,24.0308953 55.1371607,23.5479263 54.2025179,22.5819737 C53.2678751,21.6160211 52.8005607,20.3732593 52.8005607,18.853651 C52.8005607,18.323555 52.847586,17.8288062 52.9416381,17.3693898 L53.946815,11.7327312 L51.4250555,11.7327312 L52.1480774,7.56266411 L53.4001399,7.56266411 C54.0232351,7.56266411 54.5405139,7.38891305 54.9519919,7.04140572 C55.3634699,6.69389839 55.6338656,6.20798441 55.7631873,5.5836492 L56.1511503,3.233569 L60.3129352,3.233569 L59.6251826,7.20926859 L63.046311,7.20926859 L62.2527503,11.7327312 L58.8316219,11.7327312 L57.8793491,17.0513338 Z M71.2824817,11.909429 L64.4225903,11.909429 L65.2514204,7.20926859 L78.4245279,7.20926859 L77.7367753,11.1849682 L69.4661094,19.1540371 L76.6963291,19.1540371 L75.867499,23.8541976 L62.3240632,23.8541976 L63.0118158,19.878498 L71.2824817,11.909429 Z" id="Switz" fill="#FFFFFF"></path>
                        <path d="M90.3639819,11.5560335 L101.315119,11.5560335 L99.1460535,23.8541976 L95.5309437,23.8541976 L95.0195379,21.8575129 C94.5140078,22.2698097 93.9497037,22.6349814 93.3266084,22.953039 C92.7740523,23.2239769 92.136271,23.4713513 91.4132454,23.6951696 C90.6902199,23.9189878 89.8996062,24.0308953 89.0413807,24.0308953 C87.5718165,24.0308953 86.2168987,23.7599615 84.9765865,23.2180856 C83.7362743,22.6762098 82.6635085,21.9399765 81.758257,21.0093636 C80.8530055,20.0787508 80.1476252,18.9802907 79.6420952,17.7139504 C79.1365651,16.4476101 78.8838038,15.0899959 78.8838038,13.641067 C78.8838038,11.826961 79.2335549,10.1454041 79.9330674,8.59634601 C80.63258,7.0472879 81.5525134,5.69850849 82.6928952,4.54996731 C83.833277,3.40142613 85.1441086,2.5032215 86.6254293,1.85532648 C88.10675,1.20743145 89.6291956,0.883488798 91.1928119,0.883488798 C92.6623761,0.883488798 93.9820249,1.09846892 95.151798,1.52843562 C96.3215711,1.95840232 97.326738,2.54149909 98.1673287,3.27774344 C99.0079194,4.01398779 99.6809697,4.86507349 100.1865,5.83102607 C100.69203,6.79697865 101.04472,7.79825594 101.244581,8.83488798 L95.7072905,9.20595328 C95.3898647,8.33423997 94.8373168,7.57150227 94.0496304,6.91771729 C93.261944,6.26393231 92.180361,5.93704472 90.8048489,5.93704472 C89.9583799,5.93704472 89.1383754,6.11963058 88.3448108,6.48480778 C87.5512461,6.84998497 86.8429268,7.35651349 86.2198316,8.00440851 C85.5967364,8.65230354 85.0912139,9.42387604 84.7032489,10.3191492 C84.315284,11.2144223 84.1213044,12.2039198 84.1213044,13.2876715 C84.1213044,14.135825 84.2653195,14.9073975 84.5533541,15.6024122 C84.8413887,16.2974268 85.2322869,16.8981932 85.7260605,17.4047293 C86.219834,17.9112654 86.8047118,18.3058865 87.4807113,18.5886043 C88.1567109,18.8713221 88.8767865,19.0126789 89.6409599,19.0126789 C90.9224199,19.0126789 91.971673,18.7034609 92.7887506,18.0850157 C93.6058283,17.4665704 94.1965843,16.7332821 94.5610362,15.8851286 L89.6056905,15.8851286 L90.3639819,11.5560335 Z M110.485928,24.2075931 C109.357303,24.2075931 108.322745,24.0102825 107.382224,23.6156556 C106.441703,23.2210286 105.627577,22.6673812 104.939821,21.9546966 C104.252065,21.2420121 103.714212,20.408596 103.326247,19.4544233 C102.938282,18.5002507 102.744303,17.4813038 102.744303,16.3975521 C102.744303,15.0428625 103.005881,13.7824311 103.529046,12.61622 C104.052211,11.450009 104.745835,10.436952 105.609939,9.57701857 C106.474042,8.71708518 107.464514,8.0456404 108.581383,7.56266411 C109.698251,7.07968782 110.862129,6.8382033 112.07305,6.8382033 C113.178162,6.8382033 114.206841,7.03845876 115.159119,7.43897568 C116.111397,7.8394926 116.931401,8.39608498 117.619157,9.10876951 C118.306913,9.82145404 118.841827,10.6548701 119.223913,11.6090428 C119.606,12.5632155 119.79704,13.5821624 119.79704,14.665914 C119.79704,16.0206036 119.538401,17.2810351 119.021114,18.4472461 C118.503828,19.6134572 117.813143,20.6265142 116.949039,21.4864476 C116.084936,22.346381 115.091525,23.0148808 113.968778,23.4919671 C112.846031,23.9690535 111.685093,24.2075931 110.485928,24.2075931 Z M110.873891,19.6841304 C111.379421,19.6841304 111.879066,19.5781128 112.372839,19.3660745 C112.866613,19.1540361 113.301597,18.8359833 113.677806,18.4119066 C114.054014,17.9878298 114.35674,17.4871912 114.585992,16.9099756 C114.815244,16.33276 114.929868,15.6789849 114.929868,14.9486305 C114.929868,13.8648788 114.627142,12.9961235 114.021682,12.3423385 C113.416222,11.6885535 112.631486,11.3616659 111.667452,11.3616659 C111.161922,11.3616659 110.662278,11.4765183 110.168504,11.7062266 C109.67473,11.9359348 109.242685,12.2569325 108.872355,12.6692294 C108.502025,13.0815262 108.202238,13.5821648 107.972986,14.1711603 C107.743734,14.7601558 107.62911,15.4198208 107.62911,16.1501752 C107.62911,17.2339269 107.928896,18.0938474 108.528479,18.7299625 C109.128061,19.3660776 109.909857,19.6841304 110.873891,19.6841304 Z" id="Go" fill="#00D552"></path>
                    </g>
                    <path d="M14.7361459,30.2807968 L18.6332994,30.2807968 L18.5011246,31.019238 L16.9430643,31.019238 L16.1620315,35.4579116 L15.3850039,35.4579116 L16.1620315,31.019238 L14.6039711,31.019238 L14.7361459,30.2807968 Z M20.7580292,31.7175465 C20.9876673,31.7175465 21.1859275,31.7590165 21.3528157,31.8419578 C21.5197039,31.924899 21.6558826,32.0319184 21.7613559,32.1630192 C21.8668293,32.2941199 21.9455993,32.4446159 21.9976684,32.6145117 C22.0497376,32.7844076 22.0757717,32.9563075 22.0757717,33.1302166 C22.0757717,33.2399131 22.0677612,33.3469325 22.0517399,33.451278 L21.6992738,35.4579116 L20.9622993,35.4579116 L21.322776,33.3950922 C21.3441377,33.2693425 21.3414675,33.147608 21.3147654,33.0298849 C21.2880633,32.9121618 21.2400002,32.8078179 21.1705747,32.71685 C21.1011492,32.6258822 21.0150362,32.5529752 20.9122331,32.498127 C20.8094299,32.4432787 20.6912749,32.415855 20.5577643,32.415855 C20.4429452,32.415855 20.3307981,32.4379277 20.2213194,32.4820739 C20.1118408,32.5262201 20.013712,32.5850807 19.9269301,32.6586577 C19.8401483,32.7322346 19.7667186,32.8198567 19.7066388,32.9215267 C19.6465591,33.0231966 19.605839,33.1315538 19.5844773,33.2466013 L19.1959635,35.4579116 L18.4589889,35.4579116 L19.3601807,30.2807968 L20.1011605,30.2807968 L19.7727262,32.1469661 C19.8555027,32.0640248 19.9449535,31.9917867 20.0410811,31.9302497 C20.129198,31.8767392 20.2340022,31.8279116 20.3554968,31.7837654 C20.4769915,31.7396192 20.6111675,31.7175465 20.7580292,31.7175465 Z M26.1911338,34.3903825 C26.1136977,34.5321853 26.0189066,34.668635 25.9067578,34.7997358 C25.7946089,34.9308365 25.6677758,35.0485578 25.5262546,35.1529033 C25.3847334,35.2572488 25.2278609,35.3408577 25.0556323,35.4037325 C24.8834036,35.4666073 24.7038346,35.4980443 24.5169199,35.4980443 C24.2766009,35.4980443 24.0569793,35.4585809 23.8580486,35.3796529 C23.6591179,35.3007249 23.4882269,35.1883545 23.3453706,35.0425384 C23.2025143,34.8967223 23.0903672,34.7228158 23.0089257,34.5208137 C22.9274843,34.3188116 22.8867642,34.0974152 22.8867642,33.856618 C22.8867642,33.5382305 22.9415027,33.2486093 23.0509813,32.9877456 C23.16046,32.7268819 23.3053168,32.5021412 23.485556,32.3135167 C23.6657952,32.1248922 23.8707309,31.9784094 24.100369,31.8740639 C24.3300072,31.7697184 24.5649822,31.7175465 24.8053012,31.7175465 C25.0509606,31.7175465 25.2732524,31.7590165 25.4721831,31.8419578 C25.6711138,31.924899 25.8393346,32.0386071 25.9768505,32.1830855 C26.1143663,32.3275638 26.2198381,32.5014703 26.2932689,32.7048102 C26.3666997,32.9081501 26.4034145,33.1275399 26.4034145,33.3629861 C26.4034145,33.4405763 26.3967391,33.5121455 26.3833881,33.5776959 C26.370037,33.6432462 26.3580212,33.7027758 26.3473404,33.7562863 C26.3313191,33.8178233 26.3152981,33.8780217 26.2992768,33.9368833 L23.6317493,33.9288568 C23.6317493,34.0439043 23.6537782,34.1535992 23.6978367,34.2579447 C23.7418952,34.3622902 23.8046442,34.4552632 23.8860857,34.5368668 C23.9675271,34.6184703 24.0656559,34.6826819 24.180475,34.7295036 C24.295294,34.7763253 24.4207921,34.7997358 24.5569728,34.7997358 C24.6557706,34.7997358 24.7478915,34.7863583 24.8333383,34.7596031 C24.918785,34.7328478 24.9968875,34.6987354 25.0676481,34.6572648 C25.1384087,34.6157941 25.2011578,34.5703109 25.2558971,34.5208137 C25.3106364,34.4713165 25.3540267,34.4278398 25.3860692,34.3903825 L26.1911338,34.3903825 Z M24.829333,32.415855 C24.5836736,32.415855 24.3607143,32.4994639 24.1604485,32.6666842 C23.9601826,32.8339045 23.8133232,33.0526254 23.7198659,33.3228534 L25.6744506,33.3228534 C25.6851314,33.0553009 25.6163745,32.8372489 25.4681778,32.6686908 C25.3199811,32.5001328 25.1070349,32.415855 24.829333,32.415855 Z M31.706267,30.9389726 C31.4979905,30.9389726 31.2817067,30.989138 31.0574089,31.0894702 C30.8331112,31.1898023 30.6268405,31.3349474 30.4385906,31.5249097 C30.2503407,31.7148719 30.0961384,31.9422881 29.9759789,32.2071651 C29.8558194,32.4720421 29.7957405,32.7716964 29.7957405,33.106137 C29.7957405,33.3469342 29.8337905,33.5703372 29.9098915,33.7763526 C29.9859925,33.982368 30.0907967,34.1609566 30.2243073,34.3121238 C30.3578178,34.4632909 30.5153579,34.58235 30.6969322,34.6693046 C30.8785066,34.7562591 31.0694238,34.7997358 31.2696897,34.7997358 C31.4459236,34.7997358 31.616147,34.7682988 31.780365,34.705424 C31.9445829,34.6425491 32.0974502,34.5589402 32.2389714,34.4545948 C32.3804926,34.3502493 32.5059906,34.232528 32.6154693,34.1014273 C32.7249479,33.9703265 32.8130636,33.8338768 32.8798189,33.692074 L33.7009047,33.692074 C33.6021068,33.9168181 33.4746062,34.1368767 33.3183988,34.3522565 C33.1621915,34.5676362 32.9786172,34.7602711 32.7676706,34.930167 C32.5567239,35.1000628 32.3217488,35.2371814 32.0627384,35.3415268 C31.8037279,35.4458723 31.5233599,35.4980443 31.2216261,35.4980443 C30.9092114,35.4980443 30.6194978,35.4378459 30.3524767,35.3174472 C30.0854556,35.1970486 29.8518157,35.0311686 29.6515498,34.8198021 C29.451284,34.6084356 29.295079,34.3589467 29.1829301,34.0713278 C29.0707813,33.7837088 29.0147077,33.4766969 29.0147077,33.1502829 C29.0147077,32.7382521 29.0928102,32.3556577 29.2490175,32.0024885 C29.4052249,31.6493192 29.6114956,31.3409696 29.8678359,31.0774304 C30.1241761,30.8138911 30.4152248,30.6085477 30.7409905,30.4613938 C31.0667563,30.31424 31.4018627,30.2406641 31.7463199,30.2406641 C32.0427134,30.2406641 32.3150708,30.2935049 32.5634004,30.3991882 C32.8117301,30.5048714 33.0286815,30.6439966 33.2142611,30.816568 C33.3998408,30.9891393 33.5487028,31.1837809 33.6608517,31.4004984 C33.7730006,31.6172159 33.8437601,31.8325924 33.8731324,32.0466344 L33.0600572,32.0466344 C33.0280147,31.9155337 32.9732762,31.7830972 32.8958401,31.6493209 C32.8184039,31.5155447 32.7222778,31.3964856 32.6074587,31.2921402 C32.4926396,31.1877947 32.3591311,31.102848 32.206929,31.0372977 C32.054727,30.9717473 31.8878413,30.9389726 31.706267,30.9389726 Z M35.8897191,34.7997358 C36.0258999,34.7997358 36.1654163,34.7669611 36.3082726,34.7014107 C36.4511289,34.6358604 36.5772945,34.544225 36.6867731,34.4265019 C36.7962518,34.3087788 36.8863701,34.1663092 36.9571307,33.9990889 C37.0278912,33.8318686 37.063271,33.6492668 37.063271,33.451278 C37.063271,33.298773 37.0385719,33.1583101 36.989173,33.0298849 C36.9397741,32.9014597 36.8743549,32.7917648 36.7929135,32.700797 C36.7114721,32.6098291 36.6146784,32.5395976 36.5025295,32.4901004 C36.3903806,32.4406032 36.271558,32.415855 36.1460581,32.415855 C36.0045369,32.415855 35.8636854,32.4486297 35.7234993,32.51418 C35.5833132,32.5797304 35.4584827,32.6713658 35.3490041,32.7890889 C35.2395254,32.9068119 35.1494072,33.0479438 35.0786466,33.2124886 C35.007886,33.3770333 34.9725062,33.5582974 34.9725062,33.7562863 C34.9725062,33.9087912 34.9972053,34.049923 35.0466042,34.179686 C35.0960031,34.3094489 35.1614223,34.4191438 35.2428637,34.5087739 C35.3243052,34.598404 35.4210989,34.6693043 35.5332477,34.7214771 C35.6453966,34.7736498 35.7642192,34.7997358 35.8897191,34.7997358 Z M36.1941217,31.7175465 C36.4291002,31.7175465 36.6433815,31.7590165 36.8369718,31.8419578 C37.0305621,31.924899 37.1987828,32.0399449 37.3416391,32.1870988 C37.4844954,32.3342526 37.5953075,32.5094969 37.6740787,32.7128368 C37.75285,32.9161767 37.792235,33.1355664 37.792235,33.3710126 C37.792235,33.684049 37.7374965,33.9716636 37.6280178,34.2338651 C37.5185392,34.4960665 37.3736824,34.7201384 37.1934432,34.9060873 C37.0132039,35.0920363 36.8055981,35.2371814 36.5706195,35.3415268 C36.335641,35.4458723 36.0926554,35.4980443 35.8416556,35.4980443 C35.606677,35.4980443 35.3917282,35.4572431 35.1968028,35.3756396 C35.0018774,35.2940361 34.8336566,35.1789903 34.6921355,35.0304986 C34.5506143,34.882007 34.4404697,34.7081005 34.3616985,34.5087739 C34.2829273,34.3094473 34.2435422,34.0893887 34.2435422,33.8485914 C34.2435422,33.535555 34.2982807,33.2472715 34.4077594,32.9837323 C34.5172381,32.7201931 34.6620948,32.4954524 34.8423341,32.3095034 C35.0225733,32.1235544 35.2301791,31.9784094 35.4651577,31.8740639 C35.7001363,31.7697184 35.9431218,31.7175465 36.1941217,31.7175465 Z M42.9529795,33.2787075 C42.9796816,33.0432613 42.9429668,32.8405933 42.8428338,32.6706975 C42.7427009,32.5008016 42.5778179,32.415855 42.3481797,32.415855 C42.1719458,32.415855 42.0097329,32.4820732 41.8615362,32.6145117 C41.7133395,32.7469502 41.6178809,32.9282143 41.5751575,33.1583094 L41.1746278,35.4579116 L40.433648,35.4579116 L40.8221617,33.2787075 C40.8488638,33.0432613 40.8114814,32.8405933 40.7100134,32.6706975 C40.6085454,32.5008016 40.4429948,32.415855 40.2133567,32.415855 C40.0371227,32.415855 39.8755774,32.4820732 39.7287158,32.6145117 C39.5818542,32.7469502 39.4870631,32.9282143 39.4443397,33.1583094 L39.0398048,35.4579116 L38.3028302,35.4579116 L38.9516882,31.7576792 L39.4843927,31.7576792 L39.5805198,32.130913 C39.6526155,32.0533228 39.7353908,31.9837602 39.8288482,31.9222231 C39.9062843,31.8740637 40.0004078,31.8279116 40.1112216,31.7837654 C40.2220353,31.7396192 40.3441957,31.7175465 40.4777062,31.7175465 C40.6352487,31.7175465 40.7714274,31.7449702 40.8862465,31.7998185 C41.0010655,31.8546667 41.0945215,31.915534 41.1666172,31.9824221 C41.2493938,32.0600123 41.3174831,32.1469656 41.3708874,32.2432845 C41.4590043,32.1442901 41.563141,32.0573368 41.6833005,31.9824221 C41.7874387,31.915534 41.9102666,31.8546667 42.0517878,31.7998185 C42.193309,31.7449702 42.3548543,31.7175465 42.5364287,31.7175465 C42.755386,31.7175465 42.9382927,31.7576788 43.0851543,31.8379445 C43.2320159,31.9182102 43.3521736,32.0198787 43.445631,32.1429528 C43.5390884,32.266027 43.6065102,32.4038144 43.6478984,32.5563193 C43.6892867,32.7088243 43.7099805,32.8626646 43.7099805,33.0178451 C43.7099805,33.1221906 43.7006349,33.223859 43.6819435,33.3228534 L43.3054456,35.4579116 L42.568471,35.4579116 L42.9529795,33.2787075 Z M46.6598014,31.7175465 C46.9108012,31.7175465 47.1377657,31.7630297 47.3407018,31.8539976 C47.5436378,31.9449654 47.7131937,32.0667 47.8493744,32.2192049 C47.9855552,32.3717098 48.0910269,32.5469541 48.1657929,32.7449429 C48.2405588,32.9429318 48.2779412,33.1516196 48.2779412,33.3710126 C48.2779412,33.6894001 48.2232027,33.9783524 48.113724,34.2378783 C48.0042453,34.4974043 47.858721,34.7201384 47.6771467,34.9060873 C47.4955723,35.0920363 47.2886341,35.2371814 47.0563257,35.3415268 C46.8240173,35.4458723 46.585037,35.4980443 46.3393776,35.4980443 C46.1311012,35.4980443 45.9575401,35.4719583 45.8186891,35.4197856 C45.6798381,35.3676128 45.5636857,35.309421 45.4702283,35.2452084 C45.36609,35.1729693 45.2819797,35.0873537 45.2178946,34.9883593 L44.8734391,36.9388072 L44.1324592,36.9388072 L45.0456668,31.7576792 L45.5783713,31.7576792 L45.6744984,32.130913 C45.7572749,32.0533228 45.8480608,31.9837602 45.9468586,31.9222231 C46.0349755,31.8740637 46.1377771,31.8279116 46.2552664,31.7837654 C46.3727557,31.7396192 46.5075993,31.7175465 46.6598014,31.7175465 Z M46.587706,32.415855 C46.4408444,32.415855 46.2959876,32.4486297 46.1531313,32.51418 C46.010275,32.5797304 45.8814393,32.6713658 45.7666202,32.7890889 C45.6518011,32.9068119 45.5603478,33.0479438 45.4922574,33.2124886 C45.424167,33.3770333 45.3901223,33.5582974 45.3901223,33.7562863 C45.3901223,33.9034401 45.4148214,34.0405587 45.4642203,34.1676462 C45.5136192,34.2947336 45.5803735,34.4057662 45.6644852,34.5007474 C45.7485968,34.5957285 45.8493958,34.6693043 45.966885,34.7214771 C46.0843743,34.7736498 46.2085373,34.7997358 46.3393776,34.7997358 C46.4862392,34.7997358 46.631096,34.7669611 46.7739523,34.7014107 C46.9168086,34.6358604 47.0456443,34.544225 47.1604634,34.4265019 C47.2752825,34.3087788 47.3667359,34.167647 47.4348262,34.0031022 C47.5029166,33.8385574 47.5369613,33.6572933 47.5369613,33.4593045 C47.5369613,33.3121506 47.5122622,33.1757009 47.4628633,33.0499512 C47.4134644,32.9242016 47.3467101,32.8131689 47.2625985,32.71685 C47.1784868,32.6205311 47.0776879,32.5462864 46.9601986,32.4941137 C46.8427093,32.441941 46.7185464,32.415855 46.587706,32.415855 Z M49.5615586,35.4579116 L48.824584,35.4579116 L49.7337864,30.2807968 L50.4747662,30.2807968 L49.5615586,35.4579116 Z M54.0974768,34.3903825 C54.0200407,34.5321853 53.9252497,34.668635 53.8131008,34.7997358 C53.7009519,34.9308365 53.5741188,35.0485578 53.4325976,35.1529033 C53.2910764,35.2572488 53.1342039,35.3408577 52.9619753,35.4037325 C52.7897467,35.4666073 52.6101777,35.4980443 52.4232629,35.4980443 C52.1829439,35.4980443 51.9633223,35.4585809 51.7643916,35.3796529 C51.5654609,35.3007249 51.3945699,35.1883545 51.2517136,35.0425384 C51.1088574,34.8967223 50.9967102,34.7228158 50.9152687,34.5208137 C50.8338273,34.3188116 50.7931072,34.0974152 50.7931072,33.856618 C50.7931072,33.5382305 50.8478457,33.2486093 50.9573244,32.9877456 C51.066803,32.7268819 51.2116598,32.5021412 51.391899,32.3135167 C51.5721383,32.1248922 51.7770739,31.9784094 52.006712,31.8740639 C52.2363502,31.7697184 52.4713252,31.7175465 52.7116442,31.7175465 C52.9573037,31.7175465 53.1795954,31.7590165 53.3785261,31.8419578 C53.5774568,31.924899 53.7456776,32.0386071 53.8831935,32.1830855 C54.0207094,32.3275638 54.1261811,32.5014703 54.1996119,32.7048102 C54.2730427,32.9081501 54.3097576,33.1275399 54.3097576,33.3629861 C54.3097576,33.4405763 54.3030821,33.5121455 54.2897311,33.5776959 C54.27638,33.6432462 54.2643643,33.7027758 54.2536834,33.7562863 C54.2376621,33.8178233 54.2216411,33.8780217 54.2056199,33.9368833 L51.5380924,33.9288568 C51.5380924,34.0439043 51.5601213,34.1535992 51.6041797,34.2579447 C51.6482382,34.3622902 51.7109872,34.4552632 51.7924287,34.5368668 C51.8738701,34.6184703 51.9719989,34.6826819 52.086818,34.7295036 C52.2016371,34.7763253 52.3271351,34.7997358 52.4633159,34.7997358 C52.5621137,34.7997358 52.6542346,34.7863583 52.7396813,34.7596031 C52.8251281,34.7328478 52.9032306,34.6987354 52.9739912,34.6572648 C53.0447518,34.6157941 53.1075008,34.5703109 53.1622401,34.5208137 C53.2169794,34.4713165 53.2603697,34.4278398 53.2924122,34.3903825 L54.0974768,34.3903825 Z M52.735676,32.415855 C52.4900166,32.415855 52.2670573,32.4994639 52.0667915,32.6666842 C51.8665257,32.8339045 51.7196663,33.0526254 51.6262089,33.3228534 L53.5807936,33.3228534 C53.5914744,33.0553009 53.5227175,32.8372489 53.3745208,32.6686908 C53.2263241,32.5001328 53.013378,32.415855 52.735676,32.415855 Z M56.1020477,34.1937324 C56.0700051,34.3569394 56.1047174,34.4987401 56.2061854,34.6191387 C56.3076534,34.7395374 56.4451672,34.7997358 56.6187309,34.7997358 L56.6928289,34.7997358 C56.7155257,34.7997358 56.7375546,34.7970603 56.7589163,34.7917092 C56.780278,34.7917092 56.8029744,34.7890337 56.8270063,34.7836827 L56.7108527,35.4498851 C56.6894911,35.4605872 56.6627893,35.4686136 56.6307468,35.4739647 C56.569332,35.4900178 56.491897,35.4980443 56.3984396,35.4980443 C56.0700037,35.4980443 55.8129997,35.395707 55.62742,35.1910293 C55.4418404,34.9863517 55.3490519,34.724823 55.3490519,34.4064356 C55.3490519,34.3181432 55.3570624,34.2245013 55.3730837,34.1255069 L55.6614651,32.4559877 L55.0045964,32.4559877 L55.1287606,31.7576792 L55.4131367,31.7576792 C55.5546578,31.7576792 55.6808234,31.711527 55.7916372,31.6192214 C55.9024509,31.5269158 55.9712078,31.4098634 55.99791,31.2680605 L56.0860265,30.7744287 L56.6948316,30.7744287 L56.5226038,31.7576792 L57.3436896,31.7576792 L57.2195254,32.4559877 L56.3984396,32.4559877 L56.1020477,34.1937324 Z M60.9864267,34.3903825 C60.9089906,34.5321853 60.8141995,34.668635 60.7020507,34.7997358 C60.5899018,34.9308365 60.4630687,35.0485578 60.3215475,35.1529033 C60.1800263,35.2572488 60.0231538,35.3408577 59.8509251,35.4037325 C59.6786965,35.4666073 59.4991275,35.4980443 59.3122128,35.4980443 C59.0718938,35.4980443 58.8522722,35.4585809 58.6533415,35.3796529 C58.4544108,35.3007249 58.2835198,35.1883545 58.1406635,35.0425384 C57.9978072,34.8967223 57.88566,34.7228158 57.8042186,34.5208137 C57.7227772,34.3188116 57.6820571,34.0974152 57.6820571,33.856618 C57.6820571,33.5382305 57.7367956,33.2486093 57.8462742,32.9877456 C57.9557529,32.7268819 58.1006096,32.5021412 58.2808489,32.3135167 C58.4610881,32.1248922 58.6660238,31.9784094 58.8956619,31.8740639 C59.1253001,31.7697184 59.3602751,31.7175465 59.6005941,31.7175465 C59.8462535,31.7175465 60.0685453,31.7590165 60.267476,31.8419578 C60.4664067,31.924899 60.6346275,32.0386071 60.7721433,32.1830855 C60.9096592,32.3275638 61.015131,32.5014703 61.0885618,32.7048102 C61.1619926,32.9081501 61.1987074,33.1275399 61.1987074,33.3629861 C61.1987074,33.4405763 61.192032,33.5121455 61.178681,33.5776959 C61.1653299,33.6432462 61.1533141,33.7027758 61.1426333,33.7562863 C61.126612,33.8178233 61.110591,33.8780217 61.0945697,33.9368833 L58.4270422,33.9288568 C58.4270422,34.0439043 58.4490711,34.1535992 58.4931296,34.2579447 C58.5371881,34.3622902 58.5999371,34.4552632 58.6813785,34.5368668 C58.76282,34.6184703 58.8609488,34.6826819 58.9757678,34.7295036 C59.0905869,34.7763253 59.216085,34.7997358 59.3522657,34.7997358 C59.4510635,34.7997358 59.5431844,34.7863583 59.6286312,34.7596031 C59.7140779,34.7328478 59.7921804,34.6987354 59.862941,34.6572648 C59.9337016,34.6157941 59.9964506,34.5703109 60.05119,34.5208137 C60.1059293,34.4713165 60.1493196,34.4278398 60.1813621,34.3903825 L60.9864267,34.3903825 Z M59.6246259,32.415855 C59.3789665,32.415855 59.1560072,32.4994639 58.9557414,32.6666842 C58.7554755,32.8339045 58.6086161,33.0526254 58.5151587,33.3228534 L60.4697435,33.3228534 C60.4804243,33.0553009 60.4116674,32.8372489 60.2634707,32.6686908 C60.115274,32.5001328 59.9023278,32.415855 59.6246259,32.415855 Z M65.5322781,34.7194704 C65.7565758,34.7194704 65.9808702,34.6686362 66.2051679,34.5669663 C66.4294656,34.4652963 66.6317311,34.3228268 66.8119703,34.1395533 C66.9922096,33.9562798 67.1397365,33.7382278 67.2545556,33.4853907 C67.3693747,33.2325536 67.4267834,32.9563098 67.4267834,32.656651 C67.4267834,32.437258 67.3900685,32.2272324 67.3166377,32.0265681 C67.2432069,31.8259037 67.1450781,31.6519972 67.0222484,31.5048433 C66.8994187,31.3576894 66.7545619,31.2399681 66.5876737,31.1516758 C66.4207856,31.0633835 66.2438867,31.019238 66.0569719,31.019238 L65.2639232,31.019238 L64.6150652,34.7194704 L65.5322781,34.7194704 Z M63.7058629,35.4579116 L64.6150652,30.2807968 L66.1811361,30.2807968 C66.4721891,30.2807968 66.7405413,30.3450084 66.9862007,30.4734336 C67.2318602,30.6018588 67.4448063,30.7744276 67.6250455,30.9911451 C67.8052848,31.2078626 67.9474714,31.4573516 68.0516096,31.7396195 C68.1557479,32.0218873 68.2078162,32.3155218 68.2078162,32.6205316 C68.2078162,33.0138338 68.1297137,33.3837196 67.9735063,33.7302 C67.817299,34.0766805 67.6123634,34.3770037 67.3586933,34.6311785 C67.1050233,34.8853534 66.8139746,35.0866836 66.4855387,35.2351753 C66.1571027,35.3836669 65.8233313,35.4579116 65.4842145,35.4579116 L63.7058629,35.4579116 Z M72.0107652,34.3903825 C71.9333291,34.5321853 71.838538,34.668635 71.7263891,34.7997358 C71.6142403,34.9308365 71.4874071,35.0485578 71.3458859,35.1529033 C71.2043648,35.2572488 71.0474922,35.3408577 70.8752636,35.4037325 C70.703035,35.4666073 70.523466,35.4980443 70.3365512,35.4980443 C70.0962322,35.4980443 69.8766107,35.4585809 69.6776799,35.3796529 C69.4787492,35.3007249 69.3078583,35.1883545 69.165002,35.0425384 C69.0221457,34.8967223 68.9099985,34.7228158 68.8285571,34.5208137 C68.7471156,34.3188116 68.7063955,34.0974152 68.7063955,33.856618 C68.7063955,33.5382305 68.761134,33.2486093 68.8706127,32.9877456 C68.9800913,32.7268819 69.1249481,32.5021412 69.3051874,32.3135167 C69.4854266,32.1248922 69.6903622,31.9784094 69.9200004,31.8740639 C70.1496385,31.7697184 70.3846136,31.7175465 70.6249326,31.7175465 C70.870592,31.7175465 71.0928837,31.7590165 71.2918144,31.8419578 C71.4907452,31.924899 71.6589659,32.0386071 71.7964818,32.1830855 C71.9339977,32.3275638 72.0394694,32.5014703 72.1129002,32.7048102 C72.186331,32.9081501 72.2230459,33.1275399 72.2230459,33.3629861 C72.2230459,33.4405763 72.2163705,33.5121455 72.2030194,33.5776959 C72.1896684,33.6432462 72.1776526,33.7027758 72.1669717,33.7562863 C72.1509505,33.8178233 72.1349294,33.8780217 72.1189082,33.9368833 L69.4513807,33.9288568 C69.4513807,34.0439043 69.4734096,34.1535992 69.5174681,34.2579447 C69.5615266,34.3622902 69.6242756,34.4552632 69.705717,34.5368668 C69.7871584,34.6184703 69.8852872,34.6826819 70.0001063,34.7295036 C70.1149254,34.7763253 70.2404234,34.7997358 70.3766042,34.7997358 C70.475402,34.7997358 70.5675229,34.7863583 70.6529696,34.7596031 C70.7384164,34.7328478 70.8165189,34.6987354 70.8872795,34.6572648 C70.9580401,34.6157941 71.0207891,34.5703109 71.0755284,34.5208137 C71.1302678,34.4713165 71.173658,34.4278398 71.2057006,34.3903825 L72.0107652,34.3903825 Z M70.6489643,32.415855 C70.4033049,32.415855 70.1803456,32.4994639 69.9800798,32.6666842 C69.779814,32.8339045 69.6329546,33.0526254 69.5394972,33.3228534 L71.4940819,33.3228534 C71.5047628,33.0553009 71.4360059,32.8372489 71.2878091,32.6686908 C71.1396124,32.5001328 70.9266663,32.415855 70.6489643,32.415855 Z M73.4986527,35.4579116 L72.7616782,35.4579116 L73.6708805,30.2807968 L74.4118604,30.2807968 L73.4986527,35.4579116 Z M75.8036208,31.1837819 C75.6888017,31.1837819 75.5913405,31.141643 75.5112342,31.057364 C75.4311278,30.973085 75.3910753,30.8760987 75.3910753,30.7664021 C75.3910753,30.6299504 75.4431436,30.5149045 75.5472818,30.4212611 C75.6514201,30.3276178 75.7662374,30.2807968 75.8917373,30.2807968 C76.0065564,30.2807968 76.1040176,30.3229357 76.184124,30.4072147 C76.2642303,30.4914937 76.3042829,30.5884801 76.3042829,30.6981766 C76.3042829,30.8346284 76.2522145,30.9496742 76.1480763,31.0433176 C76.0439381,31.136961 75.9291207,31.1837819 75.8036208,31.1837819 Z M75.3830647,35.4579116 L74.6460901,35.4579116 L75.2949481,31.7576792 L76.0319227,31.7576792 L75.3830647,35.4579116 Z M80.2153749,31.7576792 L78.0925677,35.4579116 L77.4356991,35.4579116 L76.6066027,31.7576792 L77.3515878,31.7576792 L77.9123293,34.4305152 L79.4022997,31.7576792 L80.2153749,31.7576792 Z M83.6938948,34.3903825 C83.6164587,34.5321853 83.5216676,34.668635 83.4095188,34.7997358 C83.2973699,34.9308365 83.1705368,35.0485578 83.0290156,35.1529033 C82.8874944,35.2572488 82.7306219,35.3408577 82.5583932,35.4037325 C82.3861646,35.4666073 82.2065956,35.4980443 82.0196809,35.4980443 C81.7793619,35.4980443 81.5597403,35.4585809 81.3608096,35.3796529 C81.1618788,35.3007249 80.9909879,35.1883545 80.8481316,35.0425384 C80.7052753,34.8967223 80.5931281,34.7228158 80.5116867,34.5208137 C80.4302453,34.3188116 80.3895252,34.0974152 80.3895252,33.856618 C80.3895252,33.5382305 80.4442637,33.2486093 80.5537423,32.9877456 C80.663221,32.7268819 80.8080777,32.5021412 80.988317,32.3135167 C81.1685562,32.1248922 81.3734919,31.9784094 81.60313,31.8740639 C81.8327682,31.7697184 82.0677432,31.7175465 82.3080622,31.7175465 C82.5537216,31.7175465 82.7760134,31.7590165 82.9749441,31.8419578 C83.1738748,31.924899 83.3420956,32.0386071 83.4796114,32.1830855 C83.6171273,32.3275638 83.7225991,32.5014703 83.7960299,32.7048102 C83.8694607,32.9081501 83.9061755,33.1275399 83.9061755,33.3629861 C83.9061755,33.4405763 83.8995001,33.5121455 83.886149,33.5776959 C83.872798,33.6432462 83.8607822,33.7027758 83.8501014,33.7562863 C83.8340801,33.8178233 83.8180591,33.8780217 83.8020378,33.9368833 L81.1345103,33.9288568 C81.1345103,34.0439043 81.1565392,34.1535992 81.2005977,34.2579447 C81.2446562,34.3622902 81.3074052,34.4552632 81.3888466,34.5368668 C81.4702881,34.6184703 81.5684169,34.6826819 81.6832359,34.7295036 C81.798055,34.7763253 81.9235531,34.7997358 82.0597338,34.7997358 C82.1585316,34.7997358 82.2506525,34.7863583 82.3360993,34.7596031 C82.421546,34.7328478 82.4996485,34.6987354 82.5704091,34.6572648 C82.6411697,34.6157941 82.7039187,34.5703109 82.7586581,34.5208137 C82.8133974,34.4713165 82.8567877,34.4278398 82.8888302,34.3903825 L83.6938948,34.3903825 Z M82.332094,32.415855 C82.0864346,32.415855 81.8634753,32.4994639 81.6632095,32.6666842 C81.4629436,32.8339045 81.3160842,33.0526254 81.2226268,33.3228534 L83.1772116,33.3228534 C83.1878924,33.0553009 83.1191355,32.8372489 82.9709388,32.6686908 C82.8227421,32.5001328 82.6097959,32.415855 82.332094,32.415855 Z M86.6997898,31.7175465 C86.7425132,31.7175465 86.7778929,31.720222 86.8059301,31.725573 C86.8339673,31.7309241 86.8586664,31.736275 86.8800281,31.7416261 C86.9013898,31.7469771 86.9214161,31.7523281 86.9401076,31.7576792 L86.8079328,32.5001336 C86.7812307,32.4947826 86.7571991,32.4894316 86.7358374,32.4840805 C86.7144758,32.4787295 86.6884416,32.4727096 86.6577342,32.4660208 C86.6270267,32.459332 86.5983224,32.4559877 86.5716203,32.4559877 C86.4461204,32.4559877 86.3252951,32.4807359 86.2091409,32.5302331 C86.0929868,32.5797303 85.987515,32.6459486 85.8927225,32.7288898 C85.79793,32.8118311 85.7164898,32.9081486 85.6483994,33.0178451 C85.580309,33.1275416 85.5342486,33.2425875 85.5102167,33.3629861 L85.1417294,35.4579116 L84.4047548,35.4579116 L85.0536129,31.7576792 L85.5863173,31.7576792 L85.6824444,32.130913 C85.765221,32.0533228 85.858677,31.9837602 85.9628152,31.9222231 C86.0562726,31.8740637 86.1630794,31.8279116 86.2832389,31.7837654 C86.4033984,31.7396192 86.5422473,31.7175465 86.6997898,31.7175465 Z M87.2304115,31.7576792 L88.0114443,31.7576792 L88.5601699,34.4305152 L90.0621561,31.7576792 L90.9072737,31.7576792 L88.5601699,35.8030526 C88.346553,36.1642484 88.1469578,36.4231016 87.9613781,36.5796198 C87.7757984,36.736138 87.5655225,36.8143959 87.3305439,36.8143959 C87.2878205,36.8143959 87.2457653,36.8117205 87.204377,36.8063694 C87.1629888,36.8010184 87.1222687,36.7929919 87.0822155,36.7822898 C87.0394921,36.7715877 86.9954343,36.7568725 86.9500407,36.7381439 L87.0581837,36.124114 C87.0688646,36.129465 87.0822154,36.1321405 87.0982367,36.1321405 L87.1743373,36.1321405 C87.3505712,36.1321405 87.4900877,36.0940148 87.5928908,36.0177624 C87.6956939,35.9415099 87.7751315,35.8485368 87.8312059,35.7388403 L88.0354761,35.3335003 L87.2304115,31.7576792 Z M93.1500796,35.4579116 L92.3129726,35.4579116 L95.1927808,30.2807968 L95.8496494,30.2807968 L96.9070477,35.4579116 L96.1019831,35.4579116 L95.8656706,34.2659712 L93.8149588,34.2659712 L93.1500796,35.4579116 Z M95.7014535,33.52753 L95.3329662,31.4727372 L94.223499,33.52753 L95.7014535,33.52753 Z M99.700662,31.7175465 C99.9516618,31.7175465 100.178626,31.7630297 100.381562,31.8539976 C100.584498,31.9449654 100.754054,32.0667 100.890235,32.2192049 C101.026416,32.3717098 101.131888,32.5469541 101.206653,32.7449429 C101.281419,32.9429318 101.318802,33.1516196 101.318802,33.3710126 C101.318802,33.6894001 101.264063,33.9783524 101.154585,34.2378783 C101.045106,34.4974043 100.899582,34.7201384 100.718007,34.9060873 C100.536433,35.0920363 100.329495,35.2371814 100.097186,35.3415268 C99.864878,35.4458723 99.6258977,35.4980443 99.3802383,35.4980443 C99.1719618,35.4980443 98.9984007,35.4719583 98.8595497,35.4197856 C98.7206987,35.3676128 98.6045463,35.309421 98.5110889,35.2452084 C98.4069507,35.1729693 98.3228403,35.0873537 98.2587552,34.9883593 L97.9142997,36.9388072 L97.1733199,36.9388072 L98.0865275,31.7576792 L98.6192319,31.7576792 L98.715359,32.130913 C98.7981356,32.0533228 98.8889214,31.9837602 98.9877192,31.9222231 C99.0758362,31.8740637 99.1786377,31.8279116 99.296127,31.7837654 C99.4136163,31.7396192 99.5484599,31.7175465 99.700662,31.7175465 Z M99.6285666,32.415855 C99.481705,32.415855 99.3368483,32.4486297 99.193992,32.51418 C99.0511357,32.5797304 98.9222999,32.6713658 98.8074808,32.7890889 C98.6926618,32.9068119 98.6012084,33.0479438 98.533118,33.2124886 C98.4650277,33.3770333 98.430983,33.5582974 98.430983,33.7562863 C98.430983,33.9034401 98.4556821,34.0405587 98.505081,34.1676462 C98.5544799,34.2947336 98.6212341,34.4057662 98.7053458,34.5007474 C98.7894574,34.5957285 98.8902564,34.6693043 99.0077457,34.7214771 C99.125235,34.7736498 99.2493979,34.7997358 99.3802383,34.7997358 C99.5270999,34.7997358 99.6719566,34.7669611 99.8148129,34.7014107 C99.9576692,34.6358604 100.086505,34.544225 100.201324,34.4265019 C100.316143,34.3087788 100.407596,34.167647 100.475687,34.0031022 C100.543777,33.8385574 100.577822,33.6572933 100.577822,33.4593045 C100.577822,33.3121506 100.553123,33.1757009 100.503724,33.0499512 C100.454325,32.9242016 100.387571,32.8131689 100.303459,32.71685 C100.219347,32.6205311 100.118549,32.5462864 100.001059,32.4941137 C99.8835699,32.441941 99.759407,32.415855 99.6285666,32.415855 Z M104.088384,31.7175465 C104.339384,31.7175465 104.566349,31.7630297 104.769285,31.8539976 C104.972221,31.9449654 105.141777,32.0667 105.277957,32.2192049 C105.414138,32.3717098 105.51961,32.5469541 105.594376,32.7449429 C105.669142,32.9429318 105.706524,33.1516196 105.706524,33.3710126 C105.706524,33.6894001 105.651786,33.9783524 105.542307,34.2378783 C105.432828,34.4974043 105.287304,34.7201384 105.10573,34.9060873 C104.924155,35.0920363 104.717217,35.2371814 104.484909,35.3415268 C104.2526,35.4458723 104.01362,35.4980443 103.767961,35.4980443 C103.559684,35.4980443 103.386123,35.4719583 103.247272,35.4197856 C103.108421,35.3676128 102.992269,35.309421 102.898811,35.2452084 C102.794673,35.1729693 102.710563,35.0873537 102.646477,34.9883593 L102.302022,36.9388072 L101.561042,36.9388072 L102.47425,31.7576792 L103.006954,31.7576792 L103.103081,32.130913 C103.185858,32.0533228 103.276644,31.9837602 103.375441,31.9222231 C103.463558,31.8740637 103.56636,31.8279116 103.683849,31.7837654 C103.801339,31.7396192 103.936182,31.7175465 104.088384,31.7175465 Z M104.016289,32.415855 C103.869427,32.415855 103.724571,32.4486297 103.581714,32.51418 C103.438858,32.5797304 103.310022,32.6713658 103.195203,32.7890889 C103.080384,32.9068119 102.988931,33.0479438 102.92084,33.2124886 C102.85275,33.3770333 102.818705,33.5582974 102.818705,33.7562863 C102.818705,33.9034401 102.843404,34.0405587 102.892803,34.1676462 C102.942202,34.2947336 103.008956,34.4057662 103.093068,34.5007474 C103.17718,34.5957285 103.277979,34.6693043 103.395468,34.7214771 C103.512957,34.7736498 103.63712,34.7997358 103.767961,34.7997358 C103.914822,34.7997358 104.059679,34.7669611 104.202535,34.7014107 C104.345391,34.6358604 104.474227,34.544225 104.589046,34.4265019 C104.703865,34.3087788 104.795319,34.167647 104.863409,34.0031022 C104.9315,33.8385574 104.965544,33.6572933 104.965544,33.4593045 C104.965544,33.3121506 104.940845,33.1757009 104.891446,33.0499512 C104.842047,32.9242016 104.775293,32.8131689 104.691181,32.71685 C104.60707,32.6205311 104.506271,32.5462864 104.388781,32.4941137 C104.271292,32.441941 104.147129,32.415855 104.016289,32.415855 Z" id="TheCompleteDeliveryApp" fill="#FFFFFF" opacity="0.699999988"></path>
                </g>
                <g id="1488859" transform="translate(48.023833, 0.000000)">
                    <g id="Group"></g>
                </g>
            </g>
        </g>
    </g>
</svg>