<?xml version="1.0" encoding="UTF-8"?>
<svg width="879px" height="272px" viewBox="0 0 879 272" version="1.1" xmlns="http://www.w3.org/2000/svg" xmlns:xlink="http://www.w3.org/1999/xlink">
    <!-- Generator: Sketch 55.1 (78136) - https://sketchapp.com -->
    <title>SwitzGo_Logo</title>
    <desc>Created with Sketch.</desc>
    <g id="Logo" stroke="none" stroke-width="1" fill="none" fill-rule="evenodd">
        <g id="Group-7-Copy" transform="translate(-72.000000, -381.000000)" fill-rule="nonzero">
            <g id="Group-6" transform="translate(72.000000, 371.000000)">
                <g id="switzGo_vector" transform="translate(0.000000, 10.742857)">
                    <g id="SwitzGo_Logo" transform="translate(0.337278, 0.193206)">
                        <g id="Group-8" transform="translate(0.000000, 0.000000)">
                            <path d="M14.3546312,58.8394705 C14.3546312,49.4423505 16.2944268,41.4462973 20.1740763,34.851071 C24.0537257,28.2558446 28.9463214,22.8461159 34.85201,18.6217225 C40.7576986,14.3973292 47.2883439,11.3152925 54.4441418,9.37552002 C61.5999397,7.43574756 68.4538842,6.46587588 75.0061811,6.46587588 C93.0249974,6.46587588 106.969973,11.2721289 116.841525,20.8847791 C126.713078,30.4974293 131.64878,43.3212882 131.64878,59.3567405 L94.2750103,62.0724084 C94.2750103,55.1754397 92.4645344,49.9596853 88.8435283,46.4249888 C85.2225221,42.8902923 80.22216,41.1229706 73.842292,41.1229706 C68.1521395,41.1229706 63.345757,42.7178707 59.4230003,45.9077187 C55.5002437,49.0975668 53.5388948,52.718421 53.5388948,56.7703902 C53.5388948,60.1326625 55.2631575,62.9560667 58.7117348,65.2406876 C62.1603121,67.5253085 66.4709691,69.7236843 71.643835,71.835881 C76.816701,73.9480777 82.420555,76.2326643 88.4555653,78.6897094 C94.4905755,81.1467545 100.115983,84.2287912 105.331956,87.9359119 C110.547929,91.6430326 114.858586,96.2337586 118.264056,101.708228 C121.669526,107.182696 123.372236,113.971798 123.372236,122.075737 C123.372236,129.317554 122.014379,136.171314 119.298624,142.637222 C116.58287,149.10313 112.573959,154.814597 107.271771,159.771793 C101.969583,164.728989 95.4820447,168.651581 87.8089602,171.539687 C80.1358758,174.427793 71.2559224,175.871824 61.1688339,175.871824 C41.9430155,175.871824 26.9419293,171.065571 16.1651252,161.452921 C5.38832119,151.84027 4.54747351e-13,138.542252 4.54747351e-13,121.558466 L38.4083375,118.972116 C38.4083375,126.558782 40.4774529,132.20559 44.6157456,135.912711 C48.7540384,139.619832 54.5303187,141.473364 61.9447599,141.473364 C68.4970567,141.473364 73.7991648,139.792253 77.8512431,136.429981 C81.9033214,133.067709 83.9293302,129.0158 83.9293302,124.274134 C83.9293302,120.739438 82.2050674,117.743612 78.7564901,115.286567 C75.3079128,112.829522 71.0403624,110.480277 65.9537109,108.238762 C60.8670594,105.997247 55.2632054,103.648003 49.1419807,101.190957 C43.020756,98.7339123 37.416902,95.6949811 32.3302505,92.0740725 C27.243599,88.4531639 22.9760486,83.9917541 19.5274713,78.6897094 C16.078894,73.3876647 14.3546312,66.7709845 14.3546312,58.8394705 Z M217.135639,52.7615471 L241.060025,52.7615471 L250.7591,123.239594 L283.865276,52.7615471 L321.75633,52.7615471 L259.294286,174.578649 L228.77453,174.578649 L219.592738,107.074905 L186.486562,174.578649 L155.966806,174.578649 L136.439334,52.7615471 L172.649215,52.7615471 L181.443043,123.239594 L217.135639,52.7615471 Z M346.074356,174.578649 L310.381759,174.578649 L331.849045,52.7615471 L367.541642,52.7615471 L346.074356,174.578649 Z M351.635159,39.8297954 C346.548507,39.8297954 342.324063,37.9762628 338.961701,34.2691421 C335.599338,30.5620214 333.918182,26.2083752 333.918182,21.2080729 C333.918182,18.3630733 334.543227,15.6689853 335.793336,13.125728 C337.043445,10.5824708 338.681495,8.34098958 340.707534,6.40121712 C342.733573,4.46144466 345.061328,2.90964996 347.690868,1.74578649 C350.320408,0.58192301 353.057676,-4.40536496e-13 355.902752,-4.40536496e-13 C360.989403,-4.40536496e-13 365.213847,1.85353255 368.57621,5.56065325 C371.938573,9.26777396 373.619729,13.6214202 373.619729,18.6217225 C373.619729,21.4667221 372.994684,24.1608101 371.744575,26.7040674 C370.494465,29.2473246 368.856416,31.4888058 366.830376,33.4285783 C364.804337,35.3683507 362.476583,36.9201454 359.847042,38.0840089 C357.217502,39.2478724 354.480235,39.8297954 351.635159,39.8297954 Z M424.44856,124.791404 C423.241558,130.481404 424.10369,135.029024 427.03498,138.434402 C429.966271,141.839781 434.233821,143.542444 439.837759,143.542444 L442.48884,143.542444 C443.394091,143.542444 444.10535,143.456234 444.622636,143.283809 C445.312352,143.111385 445.915844,142.938964 446.43313,142.766539 L440.872327,174.578649 C439.837754,174.923497 438.716983,175.18213 437.509981,175.354554 C436.475408,175.526978 435.203764,175.656294 433.695012,175.742506 C432.186259,175.828718 430.526656,175.871824 428.716153,175.871824 C414.749415,175.871824 404.339179,172.33718 397.485131,165.267787 C390.631084,158.198394 387.204112,149.103153 387.204112,137.981791 C387.204112,134.102246 387.548964,130.481392 388.23868,127.11912 L395.609977,85.8668316 L377.117073,85.8668316 L382.419235,55.3478975 L391.601026,55.3478975 C396.170391,55.3478975 399.963769,54.076288 402.981274,51.5330307 C405.998779,48.9897735 407.981681,45.4335773 408.93004,40.8643355 L411.775102,23.6651057 L442.294858,23.6651057 L437.251339,52.7615471 L462.339614,52.7615471 L456.520169,85.8668316 L431.431894,85.8668316 L424.44856,124.791404 Z M522.738199,87.1600068 L472.432329,87.1600068 L478.510416,52.7615471 L575.113205,52.7615471 L570.069686,81.8579886 L509.418136,140.180189 L562.439747,140.180189 L556.361659,174.578649 L457.04313,174.578649 L462.086649,145.482207 L522.738199,87.1600068 Z" id="Switz" fill="#03060B"></path>
                            <path d="M662.6692,84.5736565 L742.977542,84.5736565 L727.071059,174.578649 L700.560254,174.578649 L696.809945,159.965769 C693.102724,162.983193 688.964494,165.655728 684.395129,167.983455 C680.34305,169.966334 675.665988,171.776761 670.3638,173.414791 C665.061612,175.052821 659.263779,175.871824 652.970125,175.871824 C642.193321,175.871824 632.257257,173.888975 623.161634,169.923218 C614.066012,165.957461 606.199063,160.569285 599.560551,153.758528 C592.92204,146.947772 587.749252,138.908613 584.042031,129.640811 C580.334811,120.37301 578.481228,110.437213 578.481228,99.8331235 C578.481228,86.5564587 581.046069,74.2498647 586.175828,62.9129723 C591.305586,51.5760799 598.051765,41.7049414 606.414565,33.2992608 C614.777364,24.8935801 624.390129,18.3200054 635.253148,13.5783393 C646.116166,8.83667332 657.280768,6.46587588 668.747287,6.46587588 C679.524091,6.46587588 689.201516,8.03922327 697.779852,11.1859653 C706.358188,14.3327073 713.729412,18.6001427 719.893744,23.9883995 C726.058076,29.3766563 730.993778,35.6053878 734.700998,42.6747808 C738.408219,49.7441738 740.994613,57.0720931 742.460258,64.6587588 L701.853464,67.3744266 C699.525674,60.9947305 695.473657,55.4125802 689.69729,50.6278081 C683.920923,45.843036 675.989314,43.4506859 665.902225,43.4506859 C659.694786,43.4506859 653.68142,44.7869535 647.861946,47.4595289 C642.042471,50.1321043 636.84813,53.8391694 632.278765,58.5808354 C627.7094,63.3225015 624.002235,68.9693099 621.157159,75.5214302 C618.312082,82.0735505 616.889566,89.3152591 616.889566,97.2467732 C616.889566,103.454045 617.945677,109.100854 620.05793,114.187368 C622.170184,119.273882 625.036771,123.670634 628.657777,127.377755 C632.278783,131.084875 636.567887,133.972938 641.525217,136.042028 C646.482546,138.111119 651.763101,139.145649 657.367039,139.145649 C666.764412,139.145649 674.458935,136.882615 680.450838,132.356479 C686.442741,127.830343 690.774951,122.46372 693.447599,116.256448 L657.108397,116.256448 L662.6692,84.5736565 Z M810.230141,177.164999 C801.953555,177.164999 794.366799,175.720968 787.469644,172.832862 C780.57249,169.944756 774.60223,165.892848 769.558686,160.677016 C764.515141,155.461183 760.57089,149.361768 757.725814,142.378587 C754.880738,135.395406 753.458221,127.93817 753.458221,120.006656 C753.458221,110.092264 755.376463,100.867706 759.213006,92.3327075 C763.049548,83.7977087 768.136123,76.3835785 774.472884,70.0900945 C780.809645,63.7966105 788.073102,58.882594 796.263473,55.3478975 C804.453844,51.813201 812.988944,50.0458793 821.869031,50.0458793 C829.973188,50.0458793 837.516837,51.5114632 844.500206,54.4426749 C851.483575,57.3738866 857.496942,61.4473477 862.540486,66.6631803 C867.58403,71.8790129 871.506728,77.9784281 874.308697,84.961609 C877.110666,91.9447899 878.51163,99.4020255 878.51163,107.33354 C878.51163,117.247932 876.614941,126.472489 872.821506,135.007488 C869.028071,143.542487 863.963049,150.956617 857.626288,157.250101 C851.289527,163.543585 844.004517,168.436049 835.771039,171.92764 C827.53756,175.41923 819.024013,177.164999 810.230141,177.164999 Z M813.075203,144.059715 C816.782423,144.059715 820.446482,143.283817 824.067488,141.731999 C827.688494,140.180181 830.87838,137.852489 833.637242,134.748853 C836.396104,131.645217 838.616092,127.981258 840.297274,123.756864 C841.978455,119.532471 842.819033,114.747771 842.819033,109.40262 C842.819033,101.471106 840.599045,95.1130581 836.159002,90.328286 C831.718958,85.5435139 825.964231,83.1511638 818.894648,83.1511638 C815.187427,83.1511638 811.523369,83.9917192 807.902363,85.6728554 C804.281357,87.3539915 801.113024,89.7032362 798.397269,92.7206601 C795.681514,95.7380839 793.483079,99.4020436 791.801898,103.712649 C790.120717,108.023255 789.280138,112.85106 789.280138,118.196211 C789.280138,126.127725 791.478574,132.421115 795.87551,137.076569 C800.272446,141.732022 806.005619,144.059715 813.075203,144.059715 Z" id="Go" fill="#00D552"></path>
                            <path d="M107.727792,221.418968 L136.306918,221.418968 L135.337636,226.823302 L123.91186,226.823302 L118.184286,259.308052 L112.486084,259.308052 L118.184286,226.823302 L106.75851,226.823302 L107.727792,221.418968 Z M151.888269,231.933923 C153.572283,231.933923 155.026191,232.237424 156.250037,232.844436 C157.473884,233.451448 158.472528,234.234677 159.245999,235.194147 C160.01947,236.153617 160.597117,237.255033 160.978958,238.498427 C161.360798,239.741822 161.551715,240.999884 161.551715,242.27265 C161.551715,243.075472 161.492971,243.858701 161.375482,244.622361 L158.790731,259.308052 L153.38625,259.308052 L156.029746,244.211161 C156.186398,243.290853 156.166817,242.39993 155.971002,241.538365 C155.775186,240.676801 155.422724,239.913152 154.913603,239.247398 C154.404483,238.581643 153.772988,238.048068 153.019098,237.646657 C152.265209,237.245246 151.398738,237.044544 150.419661,237.044544 C149.577654,237.044544 148.755242,237.206085 147.952398,237.529172 C147.149555,237.852258 146.429944,238.283034 145.793543,238.821513 C145.157143,239.359991 144.618658,240.001259 144.178074,240.745338 C143.737489,241.489417 143.438875,242.282436 143.282222,243.12442 L140.433121,259.308052 L135.028641,259.308052 L141.63738,221.418968 L147.071233,221.418968 L144.662714,235.076661 C145.269742,234.46965 145.925714,233.94097 146.63065,233.490606 C147.276841,233.098986 148.045405,232.741638 148.936366,232.418551 C149.827326,232.095464 150.811284,231.933923 151.888269,231.933923 Z M191.731037,251.495264 C191.163172,252.533058 190.468038,253.531676 189.645613,254.491146 C188.823188,255.450616 187.893078,256.312167 186.855256,257.075827 C185.817434,257.839487 184.667035,258.451385 183.404026,258.911539 C182.141016,259.371693 180.824176,259.601766 179.453468,259.601766 C177.691129,259.601766 176.080571,259.312951 174.621745,258.73531 C173.16292,258.15767 171.90972,257.33528 170.862107,256.268114 C169.814494,255.200949 168.992081,253.928201 168.394844,252.449834 C167.797607,250.971467 167.498993,249.351162 167.498993,247.58887 C167.498993,245.258729 167.900409,243.139115 168.703252,241.229966 C169.506096,239.320816 170.568379,237.676035 171.890133,236.295574 C173.211888,234.915112 174.714749,233.843067 176.398762,233.079407 C178.082775,232.315747 179.805925,231.933923 181.568265,231.933923 C183.369767,231.933923 184.999906,232.237424 186.458732,232.844436 C187.917557,233.451448 189.151176,234.283628 190.159626,235.341004 C191.168075,236.398379 191.941535,237.671126 192.480028,239.159283 C193.01852,240.647441 193.287762,242.253061 193.287762,243.97619 C193.287762,244.54404 193.238809,245.067824 193.140901,245.547559 C193.042994,246.027294 192.954878,246.462965 192.876552,246.854586 C192.759063,247.304949 192.641575,247.745516 192.524086,248.176298 L172.962217,248.117555 C172.962217,248.959539 173.123763,249.762349 173.446858,250.526009 C173.769954,251.289669 174.230113,251.970099 174.827351,252.56732 C175.424588,253.164541 176.144199,253.634478 176.986205,253.977146 C177.828212,254.319814 178.748531,254.491146 179.74719,254.491146 C180.471707,254.491146 181.14726,254.393242 181.77387,254.197432 C182.400479,254.001621 182.973231,253.751967 183.492142,253.448461 C184.011053,253.144956 184.471213,252.812083 184.872634,252.449834 C185.274056,252.087586 185.592251,251.769399 185.82723,251.495264 L191.731037,251.495264 Z M181.744498,237.044544 C179.942995,237.044544 178.307961,237.656442 176.839344,238.880255 C175.370728,240.104069 174.293759,241.704793 173.608405,243.682476 L187.942027,243.682476 C188.020353,241.724374 187.516135,240.128545 186.42936,238.894941 C185.342584,237.661337 183.780979,237.044544 181.744498,237.044544 Z M232.175347,226.235875 C230.647986,226.235875 229.061905,226.603013 227.417055,227.337302 C225.772205,228.07159 224.259553,229.133844 222.879054,230.524097 C221.498554,231.914349 220.367737,233.578711 219.486567,235.517232 C218.605398,237.455753 218.164819,239.648794 218.164819,242.096422 C218.164819,243.858714 218.443852,245.493704 219.001926,247.001443 C219.560001,248.509181 220.328565,249.816195 221.307642,250.922522 C222.28672,252.02885 223.442014,252.900192 224.773559,253.536576 C226.105104,254.172959 227.505164,254.491146 228.97378,254.491146 C230.266162,254.491146 231.514467,254.261072 232.718732,253.800918 C233.922997,253.340764 235.044024,252.728866 236.081846,251.965207 C237.119668,251.201547 238.039987,250.339995 238.84283,249.380525 C239.645674,248.421055 240.291855,247.422438 240.781394,246.384644 L246.80269,246.384644 C246.078173,248.029449 245.143168,249.639964 243.997647,251.216236 C242.852127,252.792508 241.505915,254.202321 239.958973,255.445715 C238.412031,256.68911 236.688881,257.692622 234.78947,258.456282 C232.89006,259.219942 230.834029,259.601766 228.621314,259.601766 C226.330273,259.601766 224.205707,259.1612 222.247552,258.280054 C220.289397,257.398908 218.576037,256.184903 217.107421,254.638002 C215.638805,253.091102 214.493302,251.265199 213.670877,249.160239 C212.848452,247.05528 212.437245,244.808391 212.437245,242.419507 C212.437245,239.40403 213.009997,236.603986 214.155518,234.019291 C215.301038,231.434597 216.81369,229.177918 218.693519,227.249187 C220.573347,225.320457 222.707704,223.817636 225.096653,222.74068 C227.485602,221.663724 229.943049,221.125254 232.469069,221.125254 C234.64262,221.125254 236.639908,221.511973 238.460992,222.285424 C240.282076,223.058874 241.873053,224.077072 243.233971,225.340048 C244.594888,226.603023 245.686543,228.027521 246.508968,229.613584 C247.331393,231.199646 247.850296,232.775895 248.065693,234.342377 L242.103142,234.342377 C241.868163,233.382907 241.466748,232.413661 240.898883,231.43461 C240.331018,230.455559 239.626093,229.584216 238.784086,228.820556 C237.94208,228.056897 236.963017,227.435209 235.846869,226.955474 C234.73072,226.475739 233.506892,226.235875 232.175347,226.235875 Z M262.853996,254.491146 C263.852655,254.491146 264.875775,254.251282 265.923388,253.771547 C266.971001,253.291812 267.896215,252.621172 268.699059,251.759607 C269.501902,250.898042 270.162769,249.855368 270.68168,248.631555 C271.200591,247.407741 271.460043,246.071356 271.460043,244.622361 C271.460043,243.506243 271.278917,242.478254 270.916658,241.538365 C270.554399,240.598476 270.074659,239.795667 269.477421,239.129912 C268.880184,238.464157 268.170364,237.950163 267.347939,237.587914 C266.525514,237.225666 265.654148,237.044544 264.733815,237.044544 C263.695993,237.044544 262.663082,237.284408 261.635051,237.764143 C260.607019,238.243878 259.691596,238.914518 258.888752,239.776082 C258.085909,240.637647 257.425042,241.670531 256.906131,242.874763 C256.38722,244.078996 256.127768,245.40559 256.127768,246.854586 C256.127768,247.970704 256.308895,249.003587 256.671153,249.953267 C257.033412,250.902946 257.513152,251.705756 258.11039,252.36172 C258.707627,253.017684 259.417447,253.536574 260.239872,253.918404 C261.062297,254.300233 261.933663,254.491146 262.853996,254.491146 Z M265.086281,231.933923 C266.809457,231.933923 268.380853,232.237424 269.800515,232.844436 C271.220177,233.451448 272.453796,234.293419 273.501409,235.370375 C274.549022,236.447331 275.361644,237.729869 275.9393,239.218026 C276.516955,240.706184 276.805779,242.311803 276.805779,244.034933 C276.805779,246.325912 276.404363,248.43084 275.60152,250.34978 C274.798676,252.26872 273.736393,253.908606 272.414639,255.269487 C271.092884,256.630368 269.570442,257.692622 267.847266,258.456282 C266.124089,259.219942 264.342195,259.601766 262.50153,259.601766 C260.778354,259.601766 259.202063,259.30316 257.77261,258.705939 C256.343157,258.108718 255.109538,257.266747 254.071716,256.18 C253.033894,255.093253 252.226167,253.820506 251.648511,252.36172 C251.070856,250.902934 250.782032,249.292419 250.782032,247.530128 C250.782032,245.239148 251.183448,243.129325 251.986291,241.200595 C252.789135,239.271864 253.851418,237.627083 255.173172,236.266202 C256.494927,234.905321 258.017369,233.843067 259.740545,233.079407 C261.463722,232.315747 263.245616,231.933923 265.086281,231.933923 Z M314.651239,243.359391 C314.847054,241.636261 314.577812,240.153021 313.843504,238.909627 C313.109196,237.666232 311.900053,237.044544 310.21604,237.044544 C308.923658,237.044544 307.734097,237.529167 306.647321,238.498427 C305.560545,239.467688 304.860515,240.794282 304.547211,242.47825 L301.609993,259.308052 L296.176141,259.308052 L299.025242,243.359391 C299.221057,241.636261 298.94692,240.153021 298.202821,238.909627 C297.458722,237.666232 296.244684,237.044544 294.560671,237.044544 C293.268289,237.044544 292.083623,237.529167 291.006638,238.498427 C289.929653,239.467688 289.234518,240.794282 288.921214,242.47825 L285.954624,259.308052 L280.550144,259.308052 L285.308436,232.227637 L289.214935,232.227637 L289.919868,234.959176 C290.448569,234.391326 291.055588,233.882227 291.740942,233.431864 C292.308807,233.079405 292.999046,232.741638 293.811681,232.418551 C294.624315,232.095464 295.520157,231.933923 296.499235,231.933923 C297.654546,231.933923 298.65319,232.134626 299.495196,232.536036 C300.337203,232.937447 301.022547,233.382909 301.551249,233.872434 C302.158277,234.440284 302.657599,235.076658 303.04923,235.781574 C303.695421,235.057077 304.45909,234.420703 305.340259,233.872434 C306.10394,233.382909 307.004677,232.937447 308.042499,232.536036 C309.080321,232.134626 310.264987,231.933923 311.596532,231.933923 C313.202219,231.933923 314.543535,232.227634 315.62052,232.815065 C316.697506,233.402495 317.578662,234.146563 318.264016,235.04729 C318.94937,235.948017 319.443797,236.956424 319.747311,238.072542 C320.050825,239.18866 320.20258,240.314552 320.20258,241.450251 C320.20258,242.213911 320.134045,242.957979 319.996974,243.682476 L317.23599,259.308052 L311.83151,259.308052 L314.651239,243.359391 Z M341.834599,231.933923 C343.675264,231.933923 345.339671,232.266795 346.827869,232.93255 C348.316066,233.598305 349.559476,234.489228 350.558135,235.605346 C351.556794,236.721464 352.330253,238.004002 352.878537,239.452997 C353.42682,240.901993 353.700958,242.429289 353.700958,244.034933 C353.700958,246.365074 353.299542,248.479793 352.496698,250.379152 C351.693855,252.278511 350.626677,253.908606 349.295131,255.269487 C347.963586,256.630368 346.446039,257.692622 344.742444,258.456282 C343.03885,259.219942 341.286327,259.601766 339.484825,259.601766 C337.957464,259.601766 336.684683,259.410854 335.666442,259.029024 C334.648202,258.647194 333.796417,258.221314 333.111063,257.751369 C332.347383,257.222682 331.730573,256.596098 331.260616,255.871601 L328.734609,270.146093 L323.300757,270.146093 L329.997613,232.227637 L333.904112,232.227637 L334.609044,234.959176 C335.216072,234.391326 335.881835,233.882227 336.606352,233.431864 C337.252543,233.079405 338.006421,232.741638 338.868009,232.418551 C339.729597,232.095464 340.718451,231.933923 341.834599,231.933923 Z M341.3059,237.044544 C340.228915,237.044544 339.166632,237.284408 338.119019,237.764143 C337.071406,238.243878 336.126611,238.914518 335.284604,239.776082 C334.442597,240.637647 333.771939,241.670531 333.27261,242.874763 C332.773281,244.078996 332.52362,245.40559 332.52362,246.854586 C332.52362,247.931542 332.704746,248.935054 333.067005,249.865153 C333.429263,250.795251 333.918795,251.607851 334.535614,252.302977 C335.152432,252.998104 335.891625,253.536574 336.753213,253.918404 C337.614801,254.300233 338.525329,254.491146 339.484825,254.491146 C340.56181,254.491146 341.624093,254.251282 342.671706,253.771547 C343.719319,253.291812 344.664114,252.621172 345.506121,251.759607 C346.348127,250.898042 347.018785,249.865159 347.518115,248.660926 C348.017444,247.456693 348.267105,246.130099 348.267105,244.681103 C348.267105,243.604147 348.085979,242.60553 347.72372,241.685222 C347.361461,240.764914 346.87193,239.952314 346.255111,239.247398 C345.638292,238.542481 344.8991,237.999116 344.037512,237.617286 C343.175924,237.235456 342.265396,237.044544 341.3059,237.044544 Z M363.114152,259.308052 L357.709672,259.308052 L364.377156,221.418968 L369.811008,221.418968 L363.114152,259.308052 Z M396.377553,251.495264 C395.809688,252.533058 395.114553,253.531676 394.292128,254.491146 C393.469703,255.450616 392.539594,256.312167 391.501772,257.075827 C390.46395,257.839487 389.313551,258.451385 388.050541,258.911539 C386.787531,259.371693 385.470692,259.601766 384.099984,259.601766 C382.337644,259.601766 380.727086,259.312951 379.268261,258.73531 C377.809435,258.15767 376.556235,257.33528 375.508622,256.268114 C374.46101,255.200949 373.638597,253.928201 373.04136,252.449834 C372.444123,250.971467 372.145508,249.351162 372.145508,247.58887 C372.145508,245.258729 372.546924,243.139115 373.349768,241.229966 C374.152611,239.320816 375.214894,237.676035 376.536649,236.295574 C377.858403,234.915112 379.361264,233.843067 381.045277,233.079407 C382.72929,232.315747 384.452441,231.933923 386.21478,231.933923 C388.016282,231.933923 389.646422,232.237424 391.105247,232.844436 C392.564073,233.451448 393.797692,234.283628 394.806141,235.341004 C395.814591,236.398379 396.58805,237.671126 397.126543,239.159283 C397.665036,240.647441 397.934278,242.253061 397.934278,243.97619 C397.934278,244.54404 397.885325,245.067824 397.787417,245.547559 C397.689509,246.027294 397.601394,246.462965 397.523067,246.854586 C397.405578,247.304949 397.288091,247.745516 397.170601,248.176298 L377.608733,248.117555 C377.608733,248.959539 377.770278,249.762349 378.093374,250.526009 C378.416469,251.289669 378.876629,251.970099 379.473866,252.56732 C380.071103,253.164541 380.790714,253.634478 381.632721,253.977146 C382.474727,254.319814 383.395046,254.491146 384.393705,254.491146 C385.118223,254.491146 385.793776,254.393242 386.420385,254.197432 C387.046995,254.001621 387.619747,253.751967 388.138658,253.448461 C388.657569,253.144956 389.117728,252.812083 389.51915,252.449834 C389.920571,252.087586 390.238767,251.769399 390.473745,251.495264 L396.377553,251.495264 Z M386.391013,237.044544 C384.589511,237.044544 382.954476,237.656442 381.48586,238.880255 C380.017244,240.104069 378.940275,241.704793 378.254921,243.682476 L392.588542,243.682476 C392.666868,241.724374 392.162651,240.128545 391.075875,238.894941 C389.989099,237.661337 388.427494,237.044544 386.391013,237.044544 Z M411.077739,250.056067 C410.84276,251.250509 411.097316,252.288287 411.841415,253.169433 C412.585514,254.050579 413.593949,254.491146 414.866749,254.491146 L415.410134,254.491146 C415.576578,254.491146 415.738123,254.471565 415.894775,254.432403 C416.051428,254.432403 416.217868,254.412822 416.394102,254.37366 L415.542309,259.24931 C415.385657,259.327634 415.189844,259.386376 414.954866,259.425538 C414.50449,259.543024 413.936634,259.601766 413.25128,259.601766 C410.842749,259.601766 408.958053,258.852803 407.597136,257.354855 C406.236218,255.856907 405.55577,253.942891 405.55577,251.61275 C405.55577,250.966576 405.614514,250.281251 405.732003,249.556753 L407.846799,237.338258 L403.029763,237.338258 L403.9403,232.227637 L406.025725,232.227637 C407.063547,232.227637 407.988761,231.889869 408.801395,231.214324 C409.614029,230.538779 410.118247,229.682122 410.314062,228.644328 L410.96025,225.031648 L415.42482,225.031648 L414.161817,232.227637 L420.183113,232.227637 L419.272575,237.338258 L413.25128,237.338258 L411.077739,250.056067 Z M446.896518,251.495264 C446.328653,252.533058 445.633519,253.531676 444.811094,254.491146 C443.988669,255.450616 443.058559,256.312167 442.020737,257.075827 C440.982915,257.839487 439.832517,258.451385 438.569507,258.911539 C437.306497,259.371693 435.989658,259.601766 434.618949,259.601766 C432.85661,259.601766 431.246052,259.312951 429.787226,258.73531 C428.328401,258.15767 427.075201,257.33528 426.027588,256.268114 C424.979975,255.200949 424.157563,253.928201 423.560325,252.449834 C422.963088,250.971467 422.664474,249.351162 422.664474,247.58887 C422.664474,245.258729 423.06589,243.139115 423.868733,241.229966 C424.671577,239.320816 425.73386,237.676035 427.055614,236.295574 C428.377369,234.915112 429.88023,233.843067 431.564243,233.079407 C433.248256,232.315747 434.971407,231.933923 436.733746,231.933923 C438.535248,231.933923 440.165388,232.237424 441.624213,232.844436 C443.083038,233.451448 444.316657,234.283628 445.325107,235.341004 C446.333557,236.398379 447.107016,237.671126 447.645509,239.159283 C448.184001,240.647441 448.453244,242.253061 448.453244,243.97619 C448.453244,244.54404 448.40429,245.067824 448.306383,245.547559 C448.208475,246.027294 448.120359,246.462965 448.042033,246.854586 C447.924544,247.304949 447.807056,247.745516 447.689567,248.176298 L428.127699,248.117555 C428.127699,248.959539 428.289244,249.762349 428.612339,250.526009 C428.935435,251.289669 429.395595,251.970099 429.992832,252.56732 C430.590069,253.164541 431.30968,253.634478 432.151687,253.977146 C432.993693,254.319814 433.914012,254.491146 434.912671,254.491146 C435.637188,254.491146 436.312742,254.393242 436.939351,254.197432 C437.565961,254.001621 438.138712,253.751967 438.657623,253.448461 C439.176534,253.144956 439.636694,252.812083 440.038115,252.449834 C440.439537,252.087586 440.757733,251.769399 440.992711,251.495264 L446.896518,251.495264 Z M436.909979,237.044544 C435.108476,237.044544 433.473442,237.656442 432.004826,238.880255 C430.53621,240.104069 429.459241,241.704793 428.773886,243.682476 L443.107508,243.682476 C443.185834,241.724374 442.681617,240.128545 441.594841,238.894941 C440.508065,237.661337 438.94646,237.044544 436.909979,237.044544 Z M480.232762,253.903718 C481.877612,253.903718 483.522437,253.531684 485.167287,252.787605 C486.812137,252.043527 488.295417,251.000853 489.617172,249.659553 C490.938926,248.318253 492.02079,246.722424 492.862797,244.872017 C493.704803,243.021611 494.1258,240.999901 494.1258,238.806827 C494.1258,237.201183 493.856558,235.664096 493.318066,234.19552 C492.779573,232.726943 492.059962,231.454196 491.159211,230.37724 C490.25846,229.300284 489.196177,228.438732 487.97233,227.792558 C486.748483,227.146384 485.451225,226.823302 484.080517,226.823302 L478.264826,226.823302 L473.506534,253.903718 L480.232762,253.903718 Z M466.83905,259.308052 L473.506534,221.418968 L484.991054,221.418968 C487.125443,221.418968 489.093359,221.888905 490.894861,222.828794 C492.696364,223.768683 494.257969,225.03164 495.579723,226.617703 C496.901478,228.203765 497.944179,230.029668 498.70786,232.095466 C499.47154,234.161263 499.853374,236.310248 499.853374,238.542484 C499.853374,241.420894 499.280623,244.12793 498.135102,246.663672 C496.989582,249.199414 495.48672,251.397351 493.626473,253.257547 C491.766226,255.117744 489.63187,256.591194 487.223339,257.677941 C484.814809,258.764687 482.367152,259.308052 479.880296,259.308052 L466.83905,259.308052 Z M527.741667,251.495264 C527.173802,252.533058 526.478668,253.531676 525.656243,254.491146 C524.833818,255.450616 523.903708,256.312167 522.865886,257.075827 C521.828064,257.839487 520.677665,258.451385 519.414655,258.911539 C518.151646,259.371693 516.834806,259.601766 515.464098,259.601766 C513.701759,259.601766 512.0912,259.312951 510.632375,258.73531 C509.17355,258.15767 507.92035,257.33528 506.872737,256.268114 C505.825124,255.200949 505.002711,253.928201 504.405474,252.449834 C503.808237,250.971467 503.509623,249.351162 503.509623,247.58887 C503.509623,245.258729 503.911039,243.139115 504.713882,241.229966 C505.516725,239.320816 506.579008,237.676035 507.900763,236.295574 C509.222517,234.915112 510.725379,233.843067 512.409392,233.079407 C514.093405,232.315747 515.816555,231.933923 517.578894,231.933923 C519.380397,231.933923 521.010536,232.237424 522.469362,232.844436 C523.928187,233.451448 525.161806,234.283628 526.170256,235.341004 C527.178705,236.398379 527.952165,237.671126 528.490657,239.159283 C529.02915,240.647441 529.298392,242.253061 529.298392,243.97619 C529.298392,244.54404 529.249439,245.067824 529.151531,245.547559 C529.053624,246.027294 528.965508,246.462965 528.887182,246.854586 C528.769692,247.304949 528.652205,247.745516 528.534716,248.176298 L508.972847,248.117555 C508.972847,248.959539 509.134393,249.762349 509.457488,250.526009 C509.780584,251.289669 510.240743,251.970099 510.83798,252.56732 C511.435218,253.164541 512.154829,253.634478 512.996835,253.977146 C513.838842,254.319814 514.759161,254.491146 515.75782,254.491146 C516.482337,254.491146 517.15789,254.393242 517.7845,254.197432 C518.411109,254.001621 518.983861,253.751967 519.502772,253.448461 C520.021683,253.144956 520.481842,252.812083 520.883264,252.449834 C521.284686,252.087586 521.602881,251.769399 521.83786,251.495264 L527.741667,251.495264 Z M517.755128,237.044544 C515.953625,237.044544 514.31859,237.656442 512.849974,238.880255 C511.381358,240.104069 510.304389,241.704793 509.619035,243.682476 L523.952656,243.682476 C524.030983,241.724374 523.526765,240.128545 522.439989,238.894941 C521.353214,237.661337 519.791609,237.044544 517.755128,237.044544 Z M538.652842,259.308052 L533.248362,259.308052 L539.915846,221.418968 L545.349698,221.418968 L538.652842,259.308052 Z M555.555942,228.027529 C554.713935,228.027529 553.999219,227.719133 553.411773,227.102331 C552.824326,226.485528 552.530608,225.775727 552.530608,224.972905 C552.530608,223.974273 552.912442,223.132302 553.676122,222.446966 C554.439803,221.761631 555.281797,221.418968 556.202129,221.418968 C557.044136,221.418968 557.758852,221.727364 558.346298,222.344166 C558.933745,222.960969 559.227463,223.67077 559.227463,224.473592 C559.227463,225.472224 558.845629,226.314195 558.081949,226.999531 C557.318268,227.684866 556.476274,228.027529 555.555942,228.027529 Z M552.471863,259.308052 L547.067383,259.308052 L551.825675,232.227637 L557.230156,232.227637 L552.471863,259.308052 Z M587.908805,232.227637 L572.341552,259.308052 L567.524515,259.308052 L561.444475,232.227637 L566.9077,232.227637 L571.019804,251.788978 L581.946253,232.227637 L587.908805,232.227637 Z M613.417951,251.495264 C612.850086,252.533058 612.154952,253.531676 611.332527,254.491146 C610.510102,255.450616 609.579992,256.312167 608.54217,257.075827 C607.504348,257.839487 606.353949,258.451385 605.090939,258.911539 C603.82793,259.371693 602.51109,259.601766 601.140382,259.601766 C599.378043,259.601766 597.767485,259.312951 596.308659,258.73531 C594.849834,258.15767 593.596634,257.33528 592.549021,256.268114 C591.501408,255.200949 590.678995,253.928201 590.081758,252.449834 C589.484521,250.971467 589.185907,249.351162 589.185907,247.58887 C589.185907,245.258729 589.587323,243.139115 590.390166,241.229966 C591.193009,239.320816 592.255292,237.676035 593.577047,236.295574 C594.898801,234.915112 596.401663,233.843067 598.085676,233.079407 C599.769689,232.315747 601.492839,231.933923 603.255179,231.933923 C605.056681,231.933923 606.68682,232.237424 608.145646,232.844436 C609.604471,233.451448 610.83809,234.283628 611.84654,235.341004 C612.854989,236.398379 613.628449,237.671126 614.166941,239.159283 C614.705434,240.647441 614.974676,242.253061 614.974676,243.97619 C614.974676,244.54404 614.925723,245.067824 614.827815,245.547559 C614.729908,246.027294 614.641792,246.462965 614.563466,246.854586 C614.445976,247.304949 614.328489,247.745516 614.211,248.176298 L594.649131,248.117555 C594.649131,248.959539 594.810677,249.762349 595.133772,250.526009 C595.456868,251.289669 595.917027,251.970099 596.514264,252.56732 C597.111502,253.164541 597.831113,253.634478 598.673119,253.977146 C599.515126,254.319814 600.435445,254.491146 601.434104,254.491146 C602.158621,254.491146 602.834174,254.393242 603.460784,254.197432 C604.087393,254.001621 604.660145,253.751967 605.179056,253.448461 C605.697967,253.144956 606.158126,252.812083 606.559548,252.449834 C606.96097,252.087586 607.279165,251.769399 607.514144,251.495264 L613.417951,251.495264 Z M603.431412,237.044544 C601.629909,237.044544 599.994874,237.656442 598.526258,238.880255 C597.057642,240.104069 595.980673,241.704793 595.295319,243.682476 L609.62894,243.682476 C609.707267,241.724374 609.203049,240.128545 608.116273,238.894941 C607.029498,237.661337 605.467893,237.044544 603.431412,237.044544 Z M635.461181,231.933923 C635.774485,231.933923 636.033937,231.953504 636.239543,231.992666 C636.44515,232.031828 636.626276,232.070989 636.782929,232.110151 C636.939581,232.149313 637.08644,232.188475 637.223511,232.227637 L636.254229,237.661343 C636.058414,237.622181 635.882183,237.583019 635.72553,237.543857 C635.568878,237.504695 635.377961,237.460639 635.152773,237.411686 C634.927585,237.362734 634.717087,237.338258 634.521271,237.338258 C633.600938,237.338258 632.714887,237.519379 631.863089,237.881628 C631.011292,238.243877 630.237832,238.7285 629.542687,239.335512 C628.847543,239.942523 628.250314,240.647429 627.750985,241.450251 C627.251655,242.253073 626.913879,243.095044 626.737645,243.97619 L624.035405,259.308052 L618.630925,259.308052 L623.389217,232.227637 L627.295716,232.227637 L628.000648,234.959176 C628.607676,234.391326 629.29302,233.882227 630.056701,233.431864 C630.742055,233.079405 631.525305,232.741638 632.406475,232.418551 C633.287644,232.095464 634.305869,231.933923 635.461181,231.933923 Z M639.352406,232.227637 L645.079981,232.227637 L649.103968,251.788978 L660.118534,232.227637 L666.316063,232.227637 L649.103968,261.833991 C647.537445,264.477429 646.073746,266.371864 644.712828,267.517354 C643.351911,268.662844 641.809887,269.23558 640.086711,269.23558 C639.773406,269.23558 639.465001,269.215999 639.161487,269.176837 C638.857973,269.137675 638.559359,269.078933 638.265636,269.000609 C637.952331,268.922285 637.629241,268.814591 637.296354,268.677524 L638.089403,264.183702 C638.167729,264.222864 638.265635,264.242445 638.383125,264.242445 L638.941196,264.242445 C640.233578,264.242445 641.256699,263.963419 642.010588,263.40536 C642.764478,262.847301 643.34702,262.166871 643.758233,261.364049 L645.256214,258.39754 L639.352406,232.227637 Z M682.763306,259.308052 L676.624521,259.308052 L697.743115,221.418968 L702.560152,221.418968 L710.314406,259.308052 L704.410599,259.308052 L702.67764,250.584752 L687.639087,250.584752 L682.763306,259.308052 Z M701.473381,245.180417 L698.771141,230.142269 L690.635049,245.180417 L701.473381,245.180417 Z M730.80091,231.933923 C732.641576,231.933923 734.305982,232.266795 735.79418,232.93255 C737.282378,233.598305 738.525787,234.489228 739.524446,235.605346 C740.523105,236.721464 741.296565,238.004002 741.844848,239.452997 C742.393131,240.901993 742.667269,242.429289 742.667269,244.034933 C742.667269,246.365074 742.265853,248.479793 741.46301,250.379152 C740.660166,252.278511 739.592988,253.908606 738.261443,255.269487 C736.929897,256.630368 735.41235,257.692622 733.708755,258.456282 C732.005161,259.219942 730.252639,259.601766 728.451136,259.601766 C726.923775,259.601766 725.650994,259.410854 724.632754,259.029024 C723.614513,258.647194 722.762728,258.221314 722.077374,257.751369 C721.313694,257.222682 720.696884,256.596098 720.226927,255.871601 L717.70092,270.146093 L712.267068,270.146093 L718.963924,232.227637 L722.870423,232.227637 L723.575355,234.959176 C724.182383,234.391326 724.848146,233.882227 725.572663,233.431864 C726.218854,233.079405 726.972732,232.741638 727.834321,232.418551 C728.695909,232.095464 729.684762,231.933923 730.80091,231.933923 Z M730.272211,237.044544 C729.195226,237.044544 728.132943,237.284408 727.08533,237.764143 C726.037717,238.243878 725.092922,238.914518 724.250915,239.776082 C723.408909,240.637647 722.738251,241.670531 722.238921,242.874763 C721.739592,244.078996 721.489931,245.40559 721.489931,246.854586 C721.489931,247.931542 721.671057,248.935054 722.033316,249.865153 C722.395575,250.795251 722.885106,251.607851 723.501925,252.302977 C724.118744,252.998104 724.857936,253.536574 725.719524,253.918404 C726.581112,254.300233 727.49164,254.491146 728.451136,254.491146 C729.528121,254.491146 730.590404,254.251282 731.638017,253.771547 C732.68563,253.291812 733.630425,252.621172 734.472432,251.759607 C735.314439,250.898042 735.985097,249.865159 736.484426,248.660926 C736.983755,247.456693 737.233416,246.130099 737.233416,244.681103 C737.233416,243.604147 737.05229,242.60553 736.690031,241.685222 C736.327773,240.764914 735.838241,239.952314 735.221422,239.247398 C734.604604,238.542481 733.865411,237.999116 733.003823,237.617286 C732.142235,237.235456 731.231707,237.044544 730.272211,237.044544 Z M762.97754,231.933923 C764.818206,231.933923 766.482612,232.266795 767.97081,232.93255 C769.459008,233.598305 770.702417,234.489228 771.701076,235.605346 C772.699735,236.721464 773.473195,238.004002 774.021478,239.452997 C774.569761,240.901993 774.843899,242.429289 774.843899,244.034933 C774.843899,246.365074 774.442483,248.479793 773.63964,250.379152 C772.836796,252.278511 771.769618,253.908606 770.438073,255.269487 C769.106527,256.630368 767.58898,257.692622 765.885385,258.456282 C764.181791,259.219942 762.429269,259.601766 760.627766,259.601766 C759.100405,259.601766 757.827624,259.410854 756.809383,259.029024 C755.791143,258.647194 754.939358,258.221314 754.254004,257.751369 C753.490324,257.222682 752.873514,256.596098 752.403557,255.871601 L749.87755,270.146093 L744.443698,270.146093 L751.140554,232.227637 L755.047053,232.227637 L755.751985,234.959176 C756.359013,234.391326 757.024776,233.882227 757.749293,233.431864 C758.395484,233.079405 759.149362,232.741638 760.010951,232.418551 C760.872539,232.095464 761.861392,231.933923 762.97754,231.933923 Z M762.448841,237.044544 C761.371856,237.044544 760.309573,237.284408 759.26196,237.764143 C758.214347,238.243878 757.269552,238.914518 756.427545,239.776082 C755.585539,240.637647 754.914881,241.670531 754.415551,242.874763 C753.916222,244.078996 753.666561,245.40559 753.666561,246.854586 C753.666561,247.931542 753.847687,248.935054 754.209946,249.865153 C754.572205,250.795251 755.061736,251.607851 755.678555,252.302977 C756.295374,252.998104 757.034566,253.536574 757.896154,253.918404 C758.757742,254.300233 759.66827,254.491146 760.627766,254.491146 C761.704751,254.491146 762.767034,254.251282 763.814647,253.771547 C764.86226,253.291812 765.807055,252.621172 766.649062,251.759607 C767.491069,250.898042 768.161727,249.865159 768.661056,248.660926 C769.160385,247.456693 769.410046,246.130099 769.410046,244.681103 C769.410046,243.604147 769.22892,242.60553 768.866661,241.685222 C768.504403,240.764914 768.014871,239.952314 767.398052,239.247398 C766.781234,238.542481 766.042041,237.999116 765.180453,237.617286 C764.318865,237.235456 763.408337,237.044544 762.448841,237.044544 Z" id="TheCompleteDeliveryApp" fill="#03060B" opacity="0.870000005"></path>
                        </g>
                    </g>
                </g>
            </g>
        </g>
    </g>
</svg>