<?xml version="1.0" encoding="UTF-8"?>
<svg width="471px" height="115px" viewBox="0 0 471 115" version="1.1" xmlns="http://www.w3.org/2000/svg" xmlns:xlink="http://www.w3.org/1999/xlink">
    <!-- Generator: Sketch 51.1 (57501) - http://www.bohemiancoding.com/sketch -->
    <title>Group 63</title>
    <desc>Created with Sketch.</desc>
    <defs>
        <polyline id="path-1" points="0 0.383155675 255.958219 0.383155675 255.958219 101.778144 0 101.778144"></polyline>
        <linearGradient x1="34.0347494%" y1="28.2046196%" x2="57.1949386%" y2="199.891166%" id="linearGradient-3">
            <stop stop-color="#0875FB" offset="2.57406069%"></stop>
            <stop stop-color="#241182" offset="100%"></stop>
        </linearGradient>
    </defs>
    <g id="Page-3" stroke="none" stroke-width="1" fill="none" fill-rule="evenodd">
        <g id="Group-63">
            <g id="logo-color">
                <g id="Group-30">
                    <g id="Imported-Layers">
                        <path d="M88.0421391,32.349852 C87.8759499,31.2947714 86.4951134,30.5265331 83.4230575,29.8381117 C76.5164307,21.8738747 66.0416246,17.0948337 55.2539917,16.6134376 C53.6678626,11.9266849 47.6679444,11.4228403 47.6679444,11.4228403 C47.5066432,11.6498198 42.9511045,13.0640767 42.3034555,18.2147655 C32.3614323,21.138062 24.132624,27.5782938 19.0736298,36.3855975 C18.5799502,37.1663072 18.2891191,37.7150489 18.1473696,37.9669712 C16.1066642,39.0494889 15.1388566,40.0970866 15.1535204,41.1471786 C15.231727,43.77615 22.4902838,45.048233 24.6849586,45.3849608 C36.9438545,46.3751901 42.3474468,46.1731534 52.3872283,45.0083245 C70.5165126,42.8557606 84.4397442,37.9021199 87.4287055,34.0509511 C87.8539543,33.4672896 88.0934622,32.8811337 88.0421391,32.349852" id="Fill-1" fill="#0A72F8" fill-rule="nonzero"></path>
                        <g id="Group-5">
                            <g id="Fill-3-Clipped">
                                <mask id="mask-2" fill="white">
                                    <use xlink:href="#path-1"></use>
                                </mask>
                                <g id="path-1"></g>
                                <path d="M215.068349,9.61772963 C164.493072,30.043391 121.061485,36.4736456 100.055662,28.3123605 L87.0904616,24.5360201 C50.6461523,63.2871588 18.087737,29.3824067 14.1651835,33.2360698 C14.1651835,33.2360698 -1.81341722,49.8629422 0.171077096,67.7344606 C6.40805922,123.843296 83.9597508,98.0449548 107.226236,78.7267539 C208.139727,-5.06110993 255.41566,7.79191645 255.41566,7.79191645 C255.41566,7.79191645 263.766667,-10.0371991 215.068349,9.61772963" id="Fill-3" fill="url(#linearGradient-3)" fill-rule="nonzero" mask="url(#mask-2)"></path>
                            </g>
                        </g>
                        <path d="M20.546848,35.0743544 C20.546848,35.0743544 53.9679807,56.9392155 82.0319563,29.1703929 C82.0319563,29.1703929 54.3981174,46.6627806 20.546848,35.0743544" id="Fill-6" fill="#FFFFFF" fill-rule="nonzero"></path>
                    </g>
                </g>
            </g>
            <path d="M212.197404,114.641026 L211.295865,111.723208 L206.577813,111.723208 L205.646223,114.641026 L202,114.641026 L206.848274,101.358974 L211.34595,101.358974 L216.204242,114.641026 L212.197404,114.641026 Z M208.861711,104.350427 L207.279009,109.293228 L210.604685,109.293228 L209.052035,104.350427 L208.861711,104.350427 Z M226.191893,114.641026 L219.250046,114.641026 L219.250046,101.358974 L225.991551,101.358974 C228.876475,101.358974 230.579381,102.610782 230.579381,104.672584 C230.579381,106.099277 229.417398,107.305062 227.884782,107.498356 L227.884782,107.673241 C229.778014,107.765286 231.24051,109.118343 231.24051,110.811966 C231.24051,113.140697 229.287176,114.641026 226.191893,114.641026 Z M222.92632,103.742932 L222.92632,106.771203 L224.869637,106.771203 C226.211927,106.771203 226.993261,106.200526 226.993261,105.26167 C226.993261,104.313609 226.262013,103.742932 225.009876,103.742932 L222.92632,103.742932 Z M222.92632,112.257068 L225.150115,112.257068 C226.672714,112.257068 227.504133,111.640368 227.504133,110.517423 C227.504133,109.431295 226.65268,108.8238 225.130081,108.8238 L222.92632,108.8238 L222.92632,112.257068 Z M233.855579,110.857988 L237.361563,110.857988 C237.451717,111.824458 238.503511,112.441157 240.026109,112.441157 C241.398451,112.441157 242.340059,111.833662 242.340059,110.959237 C242.340059,110.22288 241.708983,109.827088 240.05616,109.52334 L238.152913,109.17357 C235.5084,108.713346 234.146075,107.387903 234.146075,105.298488 C234.146075,102.702827 236.409937,101 239.895887,101 C243.281665,101 245.625666,102.684418 245.685768,105.142012 L242.289972,105.142012 C242.209837,104.203156 241.238177,103.549638 239.945973,103.549638 C238.653767,103.549638 237.802315,104.111111 237.802315,104.99474 C237.802315,105.721893 238.443409,106.145299 239.966007,106.421433 L241.829187,106.752794 C244.68406,107.25904 245.966246,108.446417 245.966246,110.554241 C245.966246,113.324786 243.662317,115 239.875853,115 C236.219612,115 233.915681,113.416831 233.855579,110.857988 Z M255.813659,101 C260.161078,101 262.925798,103.678501 262.925798,107.995398 C262.925798,112.321499 260.161078,115 255.813659,115 C251.446206,115 248.681487,112.321499 248.681487,107.995398 C248.681487,103.678501 251.476257,101 255.813659,101 Z M255.813659,103.798159 C253.780189,103.798159 252.427881,105.436555 252.427881,107.995398 C252.427881,110.563445 253.760156,112.201841 255.813659,112.201841 C257.847131,112.201841 259.189422,110.563445 259.189422,107.995398 C259.189422,105.436555 257.837113,103.798159 255.813659,103.798159 Z M276.088869,111.852071 L276.088869,114.641026 L266.272115,114.641026 L266.272115,101.358974 L269.948389,101.358974 L269.948389,111.852071 L276.088869,111.852071 Z M282.951186,101.358974 L282.951186,109.698225 C282.951186,111.244576 283.872758,112.155819 285.505545,112.155819 C287.138332,112.155819 288.049889,111.244576 288.049889,109.698225 L288.049889,101.358974 L291.726163,101.358974 L291.726163,110.057199 C291.726163,113.039448 289.261957,115 285.505545,115 C281.749135,115 279.274912,113.039448 279.274912,110.057199 L279.274912,101.358974 L282.951186,101.358974 Z M302.805677,114.641026 L299.139421,114.641026 L299.139421,104.074293 L294.972308,104.074293 L294.972308,101.358974 L306.982805,101.358974 L306.982805,104.074293 L302.805677,104.074293 L302.805677,114.641026 Z M320.125843,111.925707 L320.125843,114.641026 L310.218935,114.641026 L310.218935,101.358974 L320.125843,101.358974 L320.125843,104.074293 L313.895209,104.074293 L313.895209,106.725181 L319.755211,106.725181 L319.755211,109.210388 L313.895209,109.210388 L313.895209,111.925707 L320.125843,111.925707 Z M339.440019,111.925707 L339.440019,114.641026 L329.533109,114.641026 L329.533109,101.358974 L339.440019,101.358974 L339.440019,104.074293 L333.209383,104.074293 L333.209383,106.725181 L339.069385,106.725181 L339.069385,109.210388 L333.209383,109.210388 L333.209383,111.925707 L339.440019,111.925707 Z M342.365617,114.641026 L346.80319,107.940171 L342.375635,101.358974 L346.66295,101.358974 L349.257378,105.758711 L349.447703,105.758711 L352.062166,101.358974 L356.149141,101.358974 L351.531259,107.976989 L356.109072,114.641026 L351.972011,114.641026 L349.227327,110.434583 L349.037002,110.434583 L346.272285,114.641026 L342.365617,114.641026 Z M364.994843,115 C360.667457,115 358.002911,112.330704 358.002911,107.995398 C358.002911,103.660092 360.657442,101 364.994843,101 C368.631048,101 371.38575,103.227482 371.495939,106.237344 L367.959903,106.237344 C367.769578,104.792242 366.577543,103.816568 364.994843,103.816568 C362.981407,103.816568 361.749303,105.399737 361.749303,107.986193 C361.749303,110.581854 362.981407,112.183432 365.004861,112.183432 C366.587561,112.183432 367.769578,111.244576 367.979939,109.817883 L371.505955,109.817883 C371.38575,112.855358 368.701169,115 364.994843,115 Z M384.689061,111.925707 L384.689061,114.641026 L374.782154,114.641026 L374.782154,101.358974 L384.689061,101.358974 L384.689061,104.074293 L378.458428,104.074293 L378.458428,106.725181 L384.318427,106.725181 L384.318427,109.210388 L378.458428,109.210388 L378.458428,111.925707 L384.689061,111.925707 Z M398.262832,111.852071 L398.262832,114.641026 L388.446078,114.641026 L388.446078,101.358974 L392.122353,101.358974 L392.122353,111.852071 L398.262832,111.852071 Z M411.375819,111.852071 L411.375819,114.641026 L401.559065,114.641026 L401.559065,101.358974 L405.235339,101.358974 L405.235339,111.852071 L411.375819,111.852071 Z M424.578956,111.925707 L424.578956,114.641026 L414.672048,114.641026 L414.672048,101.358974 L424.578956,101.358974 L424.578956,104.074293 L418.348323,104.074293 L418.348323,106.725181 L424.208324,106.725181 L424.208324,109.210388 L418.348323,109.210388 L418.348323,111.925707 L424.578956,111.925707 Z M431.821925,114.641026 L428.335976,114.641026 L428.335976,101.358974 L431.270984,101.358974 L437.291259,108.833005 L437.481584,108.833005 L437.481584,101.358974 L440.967533,101.358974 L440.967533,114.641026 L438.052558,114.641026 L432.01225,107.09336 L431.821925,107.09336 L431.821925,114.641026 Z M451.305782,115 C446.978398,115 444.31385,112.330704 444.31385,107.995398 C444.31385,103.660092 446.968381,101 451.305782,101 C454.941987,101 457.696689,103.227482 457.806878,106.237344 L454.270842,106.237344 C454.080517,104.792242 452.888485,103.816568 451.305782,103.816568 C449.292346,103.816568 448.060244,105.399737 448.060244,107.986193 C448.060244,110.581854 449.292346,112.183432 451.3158,112.183432 C452.8985,112.183432 454.080517,111.244576 454.290878,109.817883 L457.816896,109.817883 C457.696689,112.855358 455.012107,115 451.305782,115 Z M471,111.925707 L471,114.641026 L461.093093,114.641026 L461.093093,101.358974 L471,101.358974 L471,104.074293 L464.769367,104.074293 L464.769367,106.725181 L470.629368,106.725181 L470.629368,109.210388 L464.769367,109.210388 L464.769367,111.925707 L471,111.925707 Z" id="Absolute-Excellence-Copy" fill="#242C3A" fill-rule="nonzero" opacity="0.400000006"></path>
            <path d="M205.386193,88.2195768 L205.386193,46.3888889 L216.663038,46.3888889 L216.663038,88.2195768 L205.386193,88.2195768 Z M211.024616,41.7843915 C207.626114,41.7843915 205,39.1699736 205,35.8921956 C205,32.5753967 207.626114,30 211.024616,30 C214.423116,30 217.049231,32.5753967 217.049231,35.8921956 C217.049231,39.1699736 214.423116,41.7843915 211.024616,41.7843915 Z M222.532099,88.2195768 L222.532099,31.9120371 L233.808943,31.9120371 L233.808943,88.2195768 L222.532099,88.2195768 Z M239.793862,88.2195768 L239.793862,31.9120371 L251.070706,31.9120371 L251.070706,88.2195768 L239.793862,88.2195768 Z M295.018427,46.3888889 L295.018427,88.2195768 L284.127777,88.2195768 L284.127777,80.6884921 L283.89606,80.6884921 C281.849235,85.9563493 277.755586,89 271.499256,89 C262.539572,89 256.592194,83.1078044 256.592194,73.3525131 L256.592194,46.3888889 L267.869038,46.3888889 L267.869038,70.9722223 C267.869038,76.5522487 270.61101,79.5178572 275.592905,79.5178572 C280.613417,79.5178572 283.741583,75.8888889 283.741583,70.3478837 L283.741583,46.3888889 L295.018427,46.3888889 Z M300.462677,88.2195768 L300.462677,46.3888889 L311.353328,46.3888889 L311.353328,53.9589948 L311.585044,53.9589948 C313.322913,48.9252646 317.764137,45.6084656 323.402559,45.6084656 C329.388554,45.6084656 333.559443,48.7301588 334.949738,54.1931218 L335.181453,54.1931218 C337.035182,48.9252646 341.978456,45.6084656 348.04169,45.6084656 C356.15175,45.6084656 361.597076,51.2275133 361.597076,59.6560846 L361.597076,88.2195768 L350.320232,88.2195768 L350.320232,62.5046297 C350.320232,57.6660053 347.925832,55.0125662 343.561847,55.0125662 C339.275102,55.0125662 336.455892,58.1732803 336.455892,62.8167989 L336.455892,88.2195768 L325.603861,88.2195768 L325.603861,62.1534391 C325.603861,57.6660053 323.093603,55.0125662 318.922716,55.0125662 C314.635971,55.0125662 311.739521,58.290344 311.739521,62.9728835 L311.739521,88.2195768 L300.462677,88.2195768 Z M367.041324,88.2195768 L367.041324,46.3888889 L378.318168,46.3888889 L378.318168,88.2195768 L367.041324,88.2195768 Z M372.679746,41.7843915 C369.281246,41.7843915 366.65513,39.1699736 366.65513,35.8921956 C366.65513,32.5753967 369.281246,30 372.679746,30 C376.078247,30 378.704361,32.5753967 378.704361,35.8921956 C378.704361,39.1699736 376.078247,41.7843915 372.679746,41.7843915 Z M383.916895,88.2195768 L383.916895,46.3888889 L394.807545,46.3888889 L394.807545,53.8419312 L395.039262,53.8419312 C397.240564,48.6521163 401.604548,45.6084656 407.976737,45.6084656 C417.168137,45.6084656 422.343128,51.4616403 422.343128,61.2559525 L422.343128,88.2195768 L411.066284,88.2195768 L411.066284,63.6362434 C411.066284,58.1732803 408.517408,55.0515872 403.458275,55.0515872 C398.399142,55.0515872 395.193739,58.797619 395.193739,64.2215608 L395.193739,88.2195768 L383.916895,88.2195768 Z M426.821893,88.2195768 L426.821893,81.7420635 L447.444615,55.3247354 L447.444615,55.0906084 L427.130847,55.0906084 L427.130847,46.3888889 L460.536569,46.3888889 L460.536569,53.6078041 L441.149663,79.2837302 L441.149663,79.478836 L461,79.478836 L461,88.2195768 L426.821893,88.2195768 Z" id="illuminz-copy" fill="#242C3A" fill-rule="nonzero"></path>
        </g>
    </g>
</svg>